SplineFontDB: 3.0
FontName: ETBembo-DisplayItalic
FullName: ETBembo Display Italic
FamilyName: ETBembo
Weight: Display
Copyright: ETBembo Italic designed for Eward Tufte / Graphics Press (c) 2004 Dmitry Krasny / Deka Design
Version: 001.001
ItalicAngle: 0
UnderlinePosition: -111
UnderlineWidth: 50
Ascent: 800
Descent: 200
InvalidEm: 0
LayerCount: 2
Layer: 0 0 "Back" 1
Layer: 1 0 "Fore" 0
UniqueID: 4699633
OS2Version: 0
OS2_WeightWidthSlopeOnly: 0
OS2_UseTypoMetrics: 0
CreationTime: 1444759070
ModificationTime: 1444759070
OS2TypoAscent: 0
OS2TypoAOffset: 1
OS2TypoDescent: 0
OS2TypoDOffset: 1
OS2TypoLinegap: 0
OS2WinAscent: 0
OS2WinAOffset: 1
OS2WinDescent: 0
OS2WinDOffset: 1
HheadAscent: 0
HheadAOffset: 1
HheadDescent: 0
HheadDOffset: 1
OS2Vendor: 'PfEd'
DEI: 91125
Encoding: AdobeStandard
UnicodeInterp: none
NameList: AGL For New Fonts
DisplaySize: -48
AntiAlias: 1
FitToEm: 0
BeginPrivate: 8
BlueValues 34 [ -22 -1 427 430 644 664 753 758 ]
OtherBlues 13 [ -275 -272 ]
BlueScale 7 0.04815
BlueShift 1 7
BlueFuzz 1 1
StdHW 8 [ 1000 ]
StdVW 8 [ 1000 ]
ForceBold 5 false
EndPrivate
BeginChars: 340 232

StartChar: Eth
Encoding: 256 208 1
Width: 773
Flags: MW
HStem: -2 29 294 58<93 151 78 174 288 405> 617 29<337 344 344 374>
VStem: 675 96<259.5 445 257 458>
LayerCount: 2
Fore
SplineSet
771 358 m 0
 771 156 608 -4 388 -3 c 2
 45 -2 l 2
 37 -2 30 0 31 6 c 2
 34 19 l 2
 36 24 39 26 44 26 c 2
 47 26 l 2
 109 26 123 36 140 125 c 2
 169 274 l 2
 169 284 168 294 151 294 c 2
 78 294 l 2
 68 291 59 298 61 310 c 0
 63 316 68 335 67 342 c 0
 71 354 84 352 93 352 c 2
 174 352 l 2
 180 354 182 354 187 364 c 2
 221 533 l 2
 225 555 227 568 227 577 c 0
 227 606 205 623 165 623 c 2
 145 623 l 2
 141 623 136 625 136 629 c 2
 139 640 l 2
 141 644 143 646 149 646 c 0
 245 650 332 647 445 646 c 0
 646 644 771 532 771 358 c 0
675 363 m 0
 675 553 538 617 374 617 c 2
 344 617 l 2
 330 617 321 605 318 595 c 2
 274 374 l 2
 272 363 273 352 288 352 c 0
 326 353 403 354 417 352 c 0
 425 353 430 349 427 335 c 2
 422 309 l 2
 417 296 412 294 405 294 c 2
 281 294 l 2
 269 294 256 286 254 274 c 2
 222 111 l 2
 220 103 219 95 219 85 c 0
 219 41 243 27 328 27 c 0
 522 27 675 156 675 363 c 0
EndSplineSet
EndChar

StartChar: eth
Encoding: 257 240 2
Width: 424
Flags: MW
HStem: -13 41<165 217.5 165 255> 384 42<207 293>
VStem: 46 70<116 195.5> 116 197<200 213.5>
LayerCount: 2
Fore
SplineSet
423 580 m 1xf0
 355 557 l 2
 348 555 346 549 350 542 c 0
 446 373 368 -13 142 -13 c 0
 89 -13 46 60 46 149 c 0
 46 242 95 324 184 384 c 0
 225 412 262 426 289 426 c 0
 297 426 303 425 312 420 c 0
 317 418 320 430 320 433 c 0
 316 475 311 497 298 528 c 0
 296 531 287 537 282 535 c 2
 189 505 l 2
 180 503 178 510 178 510 c 1
 176 517 l 2
 176 522 179 524 182 526 c 2
 269 552 l 2
 275 555 280 560 275 570 c 0
 258 599 250 606 211 635 c 0
 207 637 203 641 205 649 c 2
 209 656 l 2
 214 663 219 663 227 660 c 0
 265 644 296 619 324 583 c 0
 326 580 329 573 344 576 c 2
 408 597 l 2
 416 600 419 596 420 592 c 2
 423 580 l 1xf0
313 263 m 0
 313 330 278 384 238 384 c 0
 176 384 116 274 116 153 c 0
 116 79 146 28 184 28 c 0
 251 28 313 137 313 263 c 0
EndSplineSet
EndChar

StartChar: Lslash
Encoding: 232 321 3
Width: 593
Flags: W
HStem: -2 38<272 390 390 418 272 558> 623 24<372.5 415> 628 20G<162.5 165>
LayerCount: 2
Fore
SplineSet
623 129 m 0xc0
 611 75 595 38 584 11 c 0
 581 3 567 -2 558 -2 c 0
 430 1 211 1 48 -2 c 0
 40 -2 34 3 37 10 c 2
 41 20 l 2
 45 31 42 29 57 29 c 0
 112 29 128 47 144 127 c 2
 167 243 l 2
 169 252 163 257 154 250 c 0
 133 231 111 212 87 191 c 0
 79 184 72 188 74 197 c 2
 90 260 l 2
 93 272 101 281 107 287 c 2
 190 356 l 2
 191 362 231 516 231 577 c 0
 231 606 208 623 168 623 c 2
 159 623 l 2xc0
 151 623 146 629 150 638 c 0
 156 646 160 648 165 648 c 0xa0
 212 646 303 644 411 647 c 0
 419 647 418 644 420 640 c 0
 417 627 416 623 402 623 c 0
 343 623 323 605 309 532 c 2
 295 460 l 2
 292 446 295 443 308 454 c 0
 333 476 358 497 386 520 c 0
 398 531 399 521 397 513 c 2
 381 452 l 2
 379 443 371 431 359 420 c 2
 273 347 l 1
 227 119 l 2
 224 105 223 91 223 79 c 0
 223 50 238 36 272 36 c 2
 390 36 l 2
 446 36 486 45 522 66 c 0
 551 82 570 99 598 136 c 0
 605 145 611 144 614 144 c 0
 622 144 626 142 623 129 c 0xc0
EndSplineSet
EndChar

StartChar: lslash
Encoding: 248 322 4
Width: 233
Flags: MW
HStem: -15 21G<77.5 112>
LayerCount: 2
Fore
SplineSet
302 484 m 2
 291 437 l 2
 285 411 283 414 263 398 c 2
 188 338 l 1
 131 58 l 2
 130 52 126 37 137 37 c 0
 147 37 165 47 200 85 c 0
 205 91 209 94 214 89 c 0
 226 78 223 74 212 62 c 0
 167 11 125 -15 99 -15 c 0
 56 -15 63 43 68 71 c 2
 100 235 l 2
 105 262 99 263 91 256 c 0
 65 233 67 238 38 213 c 0
 10 189 18 216 18 216 c 1
 30 261 l 2
 35 281 40 283 52 291 c 2
 122 342 l 1
 174 608 l 2
 184 657 137 621 122 613 c 0
 111 607 108 614 108 614 c 1
 105 620 l 1
 105 620 101 626 111 632 c 2
 200 683 l 2
 226 698 264 718 253 666 c 2
 209 449 l 2
 202 413 216 428 220 431 c 0
 242 450 264 469 287 489 c 0
 299 499 306 496 302 484 c 2
EndSplineSet
EndChar

StartChar: Scaron
Encoding: 258 352 5
Width: 540
Flags: MW
HStem: -18 30<200.5 289 183.5 308> 623 30<287 350.5 269.5 374> 653 37<300 350.5> 833 20G<262 275 275 275 516 534 534 534>
VStem: 68 60 128 72<474.5 531> 200 195 395 76<113.5 191.5 113.5 201.5>
LayerCount: 2
Fore
SplineSet
510 646 m 0xff
 506 625 493 535 487 476 c 0
 487 471 480 470 475 470 c 0
 470 470 463 471 463 476 c 0
 463 571 420 623 328 623 c 0
 246 623 200 582 200 523 c 0
 200 426 348 361 413 296 c 0
 446 263 471 215 471 168 c 0
 471 59 380 -18 236 -18 c 0
 165 -18 89 5 19 45 c 0
 14 48 14 64 15 69 c 2
 47 196 l 2
 50 209 71 207 69 194 c 0
 69 183 68 179 68 172 c 0
 68 72 127 12 240 12 c 0
 338 12 395 60 395 131 c 0
 395 272 128 310 128 484 c 0
 128 578 211 653 328 653 c 0
 373 653 412 633 453 633 c 0
 465 633 476 637 485 647 c 0
 487 651 494 653 500 652 c 0
 506 651 511 649 510 646 c 0xff
534 853 m 1
 376 690 l 1
 300 690 l 1
 262 853 l 1
 275 853 l 1
 359 751 l 1
 516 853 l 1
 534 853 l 1
EndSplineSet
EndChar

StartChar: scaron
Encoding: 259 353 6
Width: 320
Flags: MW
HStem: -12 37<69 173> 394 35<190 255> 429 49<221.5 255> 621 20G<170 183 183 183 424 442 442 442>
LayerCount: 2
Fore
SplineSet
313 359 m 0xf0
 313 340 300 324 283 324 c 0
 272 324 262 332 255 345 c 0
 245 362 226 394 204 394 c 0
 176 394 143 354 143 326 c 0
 143 291 191 244 213 218 c 0
 243 183 257 153 257 120 c 0
 257 40 193 -12 94 -12 c 0
 44 -12 10 6 14 37 c 0
 19 82 58 73 82 58 c 0
 105 44 129 25 158 25 c 0
 188 25 212 48 212 77 c 0
 212 123 160 174 132 207 c 0
 80 270 80 319 138 379 c 0
 169 410 205 429 238 429 c 0
 272 429 313 391 313 359 c 0xf0
442 641 m 1
 284 478 l 1
 208 478 l 1
 170 641 l 1
 183 641 l 1
 267 539 l 1
 424 641 l 1
 442 641 l 1
EndSplineSet
EndChar

StartChar: Yacute
Encoding: 260 221 7
Width: 639
Flags: MW
HStem: -2 30<441 445 441 464> 622 24<107.5 328 114 330.5>
LayerCount: 2
Fore
SplineSet
563 863 m 0
 534 822 471 753 441 718 c 0
 435 712 423 713 426 722 c 0
 437 757 464 842 468 867 c 0
 471 875 477 877 487 877 c 0
 505 878 535 879 552 877 c 0
 560 878 571 874 563 863 c 0
762 638 m 0
 760 629 757 626 756 625 c 0
 714 609 701 602 660 554 c 2
 406 262 l 1
 375 112 l 2
 362 50 369 26 441 28 c 0
 449 28 462 29 469 27 c 0
 479 25 469 -2 464 -2 c 0
 388 0 248 0 162 -2 c 0
 153 0 160 26 170 27 c 0
 193 28 230 28 250 41 c 0
 266 52 276 72 285 113 c 2
 317 263 l 1
 191 550 l 2
 166 608 149 620 112 622 c 0
 103 622 101 625 103 635 c 0
 104 641 108 646 114 646 c 0
 176 643 276 644 328 646 c 0
 334 644 338 642 335 634 c 0
 334 629 332 622 329 622 c 0
 270 617 259 615 288 548 c 2
 390 315 l 2
 393 307 393 299 406 315 c 2
 590 529 l 2
 620 564 629 575 629 590 c 0
 629 610 610 620 567 622 c 0
 558 624 565 648 575 646 c 0
 638 643 688 642 752 646 c 0
 757 646 763 643 762 638 c 0
EndSplineSet
EndChar

StartChar: yacute
Encoding: 261 253 8
Width: 437
Flags: W
HStem: -276 21G<191 194.5> -275 24<-15.5 -15> 371 57<152 154> 409 20G<387 411> 638 20G<314 379>
VStem: 181 52 356 85<381.5 391 361 397>
LayerCount: 2
Fore
SplineSet
390 644 m 0x5e
 361 604 298 534 268 499 c 0
 262 493 250 494 253 503 c 0
 264 538 291 623 295 648 c 0
 298 656 304 658 314 658 c 0
 332 659 362 660 379 658 c 0
 387 659 398 655 390 644 c 0x5e
441 375 m 0
 441 347 432 323 406 275 c 0
 384 235 350 188 319 143 c 0
 287 97 259 54 245 23 c 0
 212 -50 184 -126 151 -200 c 0
 132 -242 130 -251 188 -251 c 0x6e
 196 -251 208 -251 205 -263 c 0
 203 -270 198 -276 191 -276 c 0xae
 133 -273 37 -273 -15 -275 c 0
 -24 -275 -23 -251 -8 -251 c 0
 50 -249 54 -249 71 -216 c 0
 100 -158 134 -84 149 -42 c 0
 162 -6 178 30 181 68 c 0
 190 188 173 371 135 371 c 0
 118 371 95 339 85 325 c 0
 79 317 73 308 67 300 c 0
 60 291 44 307 52 320 c 0
 100 391 140 428 164 428 c 0x6e
 232 428 239 148 233 70 c 0
 231 48 236 54 245 68 c 0
 280 127 377 290 370 348 c 0
 369 355 365 361 362 367 c 0
 359 373 356 378 356 385 c 0
 356 409 376 429 398 429 c 0
 424 429 441 407 441 375 c 0
EndSplineSet
EndChar

StartChar: Thorn
Encoding: 262 222 9
Width: 573
Flags: MW
HStem: -4 30<253.5 282> 124 25<324 351 303 399> 490 30<340 346.5> 624 25
VStem: 510 90<333 370 264 385.5>
LayerCount: 2
Fore
SplineSet
600 341 m 0
 600 187 465 124 333 124 c 0
 315 124 275 119 280 141 c 0
 284 160 292 149 314 149 c 0
 388 149 439 175 474 230 c 0
 497 265 510 311 510 355 c 0
 510 416 483 464 441 479 c 0
 405 492 365 490 328 490 c 0
 309 490 302 485 297 475 c 2
 224 112 l 2
 213 55 218 26 289 26 c 0
 306 26 305 23 303 13 c 0
 300 1 302 -5 282 -4 c 0
 219 -2 115 -1 55 -4 c 0
 43 -4 45 4 47 13 c 0
 51 31 49 23 72 27 c 0
 113 34 128 57 142 125 c 2
 223 533 l 2
 227 555 229 568 229 577 c 0
 229 606 207 623 167 623 c 0
 155 623 154 630 155 638 c 0
 157 648 166 650 175 649 c 0
 220 649 293 646 395 649 c 0
 407 652 409 642 406 634 c 0
 405 628 403 626 397 624 c 0
 345 620 323 597 310 544 c 0
 304 517 323 520 357 520 c 0
 450 520 491 511 534 479 c 0
 577 446 600 399 600 341 c 0
EndSplineSet
EndChar

StartChar: thorn
Encoding: 263 254 10
Width: 446
Flags: MW
HStem: -245 26<-58 170.5> -14 29<192.5 243 192.5 247.5> 367 57<309 385> 680 20G<229 257>
VStem: 362 68<203 290 200 298>
LayerCount: 2
Fore
SplineSet
430 273 m 0
 430 127 310 -14 185 -14 c 0
 172 -14 160 -13 146 -10 c 0
 140 -8 130 -10 127 -25 c 2
 109 -119 l 2
 96 -187 77 -215 167 -219 c 0
 174 -219 179 -224 177 -231 c 0
 175 -243 171 -246 157 -245 c 0
 101 -243 5 -242 -58 -245 c 0
 -64 -246 -71 -242 -68 -230 c 0
 -63 -220 -60 -219 -46 -218 c 0
 4 -215 27 -197 38 -139 c 0
 43 -115 16 -250 182 585 c 0
 186 606 187 615 180 615 c 0
 161 615 122 568 120 566 c 0
 113 558 107 556 101 562 c 0
 91 572 100 581 105 587 c 0
 158 653 217 700 241 700 c 0
 273 700 256 624 253 607 c 2
 192 302 l 2
 190 291 195 282 202 291 c 0
 227 323 314 424 360 424 c 0
 410 424 430 307 430 273 c 0
362 269 m 0
 362 327 343 367 320 367 c 0
 298 367 236 302 175 213 c 1
 146 66 l 2
 143 50 144 36 153 30 c 0
 169 19 183 15 202 15 c 0
 284 15 362 137 362 269 c 0
EndSplineSet
EndChar

StartChar: Zcaron
Encoding: 264 381 11
Width: 700
Flags: MW
HStem: -2 34<148 411 411 444.5 148 584> 613 33<335 386 386 580> 833 20G<382 395 395 395 636 654 654 654>
LayerCount: 2
Fore
SplineSet
727 622 m 1
 578 479 299 201 142 44 c 0
 133 35 135 34 148 32 c 2
 411 32 l 2
 478 32 514 44 549 75 c 0
 578 101 600 131 630 181 c 0
 634 184 642 187 646 186 c 0
 652 184 653 181 651 174 c 0
 640 141 617 58 607 16 c 0
 603 4 593 -2 584 -2 c 0
 433 0 163 0 3 -2 c 0
 -3 0 0 19 2 21 c 0
 150 165 416 431 586 600 c 0
 600 613 590 613 580 613 c 2
 386 613 l 2
 284 613 229 574 190 471 c 0
 189 468 182 467 177 466 c 0
 172 466 165 467 165 472 c 0
 175 510 202 597 206 634 c 0
 208 643 220 646 226 646 c 0
 352 644 582 645 710 646 c 0
 730 648 731 638 727 622 c 1
654 853 m 1
 496 690 l 1
 420 690 l 1
 382 853 l 1
 395 853 l 1
 479 751 l 1
 636 853 l 1
 654 853 l 1
EndSplineSet
EndChar

StartChar: zcaron
Encoding: 265 382 12
Width: 488
Flags: W
HStem: -12 21G<29 41.5> -11 54<292 356.5> 66 39<88 189.5> 377 50<152 231> 427 51<188.5 341> 621 20G<227 240 240 240 481 499 499 499>
LayerCount: 2
Fore
SplineSet
489 406 m 0xbc
 489 336 362 244 310 217 c 0
 276 199 233 180 192 158 c 0
 154 138 118 116 92 92 c 0
 89 89 80 78 96 86 c 0
 124 100 141 105 170 105 c 0
 209 105 239 89 265 74 c 0
 289 60 315 43 343 43 c 0
 370 43 396 57 420 95 c 0
 430 106 441 90 436 83 c 0
 397 25 347 -11 308 -11 c 0x7c
 276 -11 244 12 217 28 c 0
 186 47 152 66 111 66 c 0
 65 66 61 47 61 28 c 0
 61 20 62 9 59 1 c 0
 56 -7 49 -12 34 -12 c 0
 24 -12 17 -4 17 7 c 0
 17 21 32 53 50 77 c 0
 110 156 219 216 304 261 c 0
 344 282 369 296 389 309 c 0
 408 321 421 330 432 341 c 0
 446 355 438 355 427 348 c 0
 356 314 314 320 277 335 c 0
 240 349 207 377 166 377 c 0
 138 377 125 363 96 324 c 0
 91 317 70 325 79 337 c 0
 125 398 164 427 213 427 c 0
 249 427 280 411 309 394 c 0
 336 379 361 362 393 362 c 0
 426 362 445 377 451 403 c 0
 452 408 452 412 454 417 c 0
 457 422 462 425 472 425 c 0
 483 425 489 418 489 406 c 0xbc
499 641 m 1
 341 478 l 1
 265 478 l 1
 227 641 l 1
 240 641 l 1
 324 539 l 1
 481 641 l 1
 499 641 l 1
EndSplineSet
EndChar

StartChar: onehalf
Encoding: 266 189 13
Width: 837
Flags: MW
HStem: -2 46<645 731 731 738 645 750> 312 33<700.5 749> 642 20G<302 319 319 322.5>
LayerCount: 2
Fore
SplineSet
834 266 m 0
 834 229 804 191 732 136 c 0
 703 114 676 90 647 67 c 0
 630 54 627 44 645 44 c 2
 731 44 l 2
 745 44 763 46 767 65 c 0
 768 73 773 76 781 76 c 0
 792 76 796 76 793 60 c 2
 783 9 l 2
 782 2 771 -3 750 -2 c 0
 712 0 621 -1 568 -2 c 0
 549 -3 548 3 547 5 c 2
 547 14 l 1
 602 61 722 157 756 219 c 0
 779 260 780 312 718 312 c 0
 683 312 657 295 638 259 c 0
 632 248 630 247 617 247 c 0
 609 247 606 250 610 261 c 0
 627 314 671 345 729 345 c 0
 791 345 834 313 834 266 c 0
802 656 m 2
 185 -34 l 1
 173 -38 166 -33 162 -30 c 0
 148 -26 155 -12 157 -9 c 2
 761 667 l 2
 773 684 779 687 793 680 c 0
 809 676 807 667 802 656 c 2
327 644 m 2
 262 363 l 2
 256 339 270 335 292 334 c 0
 300 334 305 331 304 323 c 0
 303 320 299 311 290 311 c 0
 257 312 193 313 161 312 c 0
 146 311 141 310 144 323 c 0
 148 335 150 334 172 334 c 0
 195 334 200 349 203 362 c 2
 251 572 l 2
 253 588 244 586 239 583 c 0
 211 566 194 558 167 549 c 0
 157 546 155 548 157 555 c 2
 161 572 l 1
 211 590 253 617 286 652 c 0
 289 655 293 663 302 662 c 2
 319 662 l 2
 326 662 330 657 327 644 c 2
EndSplineSet
EndChar

StartChar: onequarter
Encoding: 267 188 14
Width: 837
Flags: W
HStem: -10 21G<715 721.5> -9 21G<157 157 676 680> 99 38<618 682 770 804 804 806> 312 22 642 20G<302 319 319 322.5>
LayerCount: 2
Fore
SplineSet
812 125 m 2x78
 806 99 l 1
 761 99 l 2
 758 97 749 92 746 80 c 2
 730 8 l 2
 728 -3 728 -10 715 -10 c 2xb8
 680 -9 l 2
 672 -9 667 -5 670 7 c 2
 688 82 l 2
 691 94 687 97 682 99 c 2
 572 99 l 2
 557 99 554 97 551 109 c 0
 548 115 552 125 562 134 c 2
 767 335 l 2
 778 345 781 344 788 345 c 2
 798 345 l 2
 809 345 807 336 804 322 c 2
 764 154 l 2
 762 144 766 139 770 137 c 2
 804 137 l 2
 811 137 812 134 812 125 c 2x78
802 656 m 2
 185 -34 l 1
 173 -38 166 -33 162 -30 c 0
 148 -26 155 -12 157 -9 c 2x78
 761 667 l 2
 773 684 779 687 793 680 c 0
 809 676 807 667 802 656 c 2
327 644 m 2
 262 363 l 2
 256 339 270 335 292 334 c 0
 300 334 305 331 304 323 c 0
 303 320 299 311 290 311 c 0
 257 312 193 313 161 312 c 0
 146 311 141 310 144 323 c 0
 148 335 150 334 172 334 c 0
 195 334 200 349 203 362 c 2
 251 572 l 2
 253 588 244 586 239 583 c 0
 211 566 194 558 167 549 c 0
 157 546 155 548 157 555 c 2
 161 572 l 1
 211 590 253 617 286 652 c 0
 289 655 293 663 302 662 c 2
 319 662 l 2
 326 662 330 657 327 644 c 2
724 238 m 2
 726 249 723 254 713 245 c 2
 616 149 l 2
 613 144 608 138 618 137 c 2
 691 137 l 2
 699 137 703 142 705 152 c 2
 724 238 l 2
EndSplineSet
EndChar

StartChar: onesuperior
Encoding: 268 185 15
Width: 318
Flags: W
HStem: 311 21G<290 294.5> 312 22 642 20G<302 319 319 322.5>
LayerCount: 2
Fore
SplineSet
327 644 m 2x60
 262 363 l 2
 256 339 270 335 292 334 c 0x60
 300 334 305 331 304 323 c 0
 303 320 299 311 290 311 c 0xa0
 257 312 193 313 161 312 c 0
 146 311 141 310 144 323 c 0
 148 335 150 334 172 334 c 0
 195 334 200 349 203 362 c 2
 251 572 l 2
 253 588 244 586 239 583 c 0
 211 566 194 558 167 549 c 0
 157 546 155 548 157 555 c 2
 161 572 l 1
 211 590 253 617 286 652 c 0
 289 655 293 663 302 662 c 2
 319 662 l 2
 326 662 330 657 327 644 c 2x60
EndSplineSet
EndChar

StartChar: threequarters
Encoding: 269 190 16
Width: 837
Flags: W
HStem: -10 21G<715 721.5> -9 21G<157 157 676 680> 99 38<618 682 770 804 804 806> 632 30<257.5 268.5>
VStem: 277 64<441 467.5> 294 62<592.5 609>
LayerCount: 2
Fore
SplineSet
812 125 m 2x78
 806 99 l 1
 761 99 l 2
 758 97 749 92 746 80 c 2
 730 8 l 2
 728 -3 728 -10 715 -10 c 2xb8
 680 -9 l 2
 672 -9 667 -5 670 7 c 2
 688 82 l 2
 691 94 687 97 682 99 c 2
 572 99 l 2
 557 99 554 97 551 109 c 0
 548 115 552 125 562 134 c 2
 767 335 l 2
 778 345 781 344 788 345 c 2
 798 345 l 2
 809 345 807 336 804 322 c 2
 764 154 l 2
 762 144 766 139 770 137 c 2
 804 137 l 2
 811 137 812 134 812 125 c 2x78
802 656 m 2
 185 -34 l 1
 173 -38 166 -33 162 -30 c 0
 148 -26 155 -12 157 -9 c 2x74
 761 667 l 2
 773 684 779 687 793 680 c 0
 809 676 807 667 802 656 c 2
356 605 m 0
 356 580 343 561 299 541 c 0
 291 537 293 530 299 528 c 0
 331 517 341 497 341 468 c 0
 341 404 279 340 195 315 c 0
 173 309 91 296 91 334 c 0
 91 347 104 357 119 357 c 0
 136 357 155 338 182 338 c 0
 206 338 230 352 249 378 c 0
 267 401 277 429 277 453 c 0x78
 277 482 260 501 234 501 c 0
 223 501 224 501 195 487 c 0
 186 483 181 484 177 493 c 1
 179 504 184 508 191 513 c 0
 275 555 294 576 294 600 c 0
 294 618 279 632 258 632 c 0
 239 632 225 625 204 604 c 0
 195 596 193 592 183 599 c 0
 174 606 177 611 183 618 c 0
 208 648 240 662 275 662 c 0
 321 662 356 639 356 605 c 0
724 238 m 2
 726 249 723 254 713 245 c 2
 616 149 l 2
 613 144 608 138 618 137 c 2
 691 137 l 2
 699 137 703 142 705 152 c 2
 724 238 l 2
EndSplineSet
EndChar

StartChar: threesuperior
Encoding: 270 179 17
Width: 318
Flags: W
HStem: 632 30<257.5 268.5>
VStem: 277 64<441 467.5> 294 62<592.5 609>
LayerCount: 2
Fore
SplineSet
356 605 m 0xa0
 356 580 343 561 299 541 c 0
 291 537 293 530 299 528 c 0
 331 517 341 497 341 468 c 0
 341 404 279 340 195 315 c 0
 173 309 91 296 91 334 c 0
 91 347 104 357 119 357 c 0
 136 357 155 338 182 338 c 0
 206 338 230 352 249 378 c 0
 267 401 277 429 277 453 c 0xc0
 277 482 260 501 234 501 c 0
 223 501 224 501 195 487 c 0
 186 483 181 484 177 493 c 1
 179 504 184 508 191 513 c 0
 275 555 294 576 294 600 c 0
 294 618 279 632 258 632 c 0
 239 632 225 625 204 604 c 0
 195 596 193 592 183 599 c 0
 174 606 177 611 183 618 c 0
 208 648 240 662 275 662 c 0
 321 662 356 639 356 605 c 0xa0
EndSplineSet
EndChar

StartChar: twosuperior
Encoding: 271 178 18
Width: 318
Flags: MW
HStem: 314 45<181 267 267 274 181 286> 628 33<236.5 285>
LayerCount: 2
Fore
SplineSet
370 581 m 0
 370 545 339 501 267 447 c 0
 238 425 214 405 185 382 c 0
 168 368 163 359 181 359 c 2
 267 359 l 2
 281 359 298 361 303 381 c 0
 304 388 308 391 317 391 c 0
 328 391 332 391 329 376 c 2
 318 324 l 2
 317 317 306 312 286 314 c 0
 248 314 156 316 103 314 c 0
 84 313 83 319 83 321 c 0
 83 331 88 333 94 338 c 0
 152 388 260 476 292 534 c 0
 315 575 316 628 254 628 c 0
 219 628 192 611 173 574 c 0
 168 564 166 562 152 562 c 0
 145 562 141 566 145 577 c 0
 162 630 207 661 265 661 c 0
 326 661 370 628 370 581 c 0
EndSplineSet
EndChar

StartChar: brokenbar
Encoding: 272 166 19
Width: 519
Flags: MW
HStem: -19 21G<230 288 230 230> 825 20G<230 288 288 288>
VStem: 230 58<-19 350 476 845>
LayerCount: 2
Fore
SplineSet
288 476 m 1
 230 476 l 1
 230 845 l 1
 288 845 l 1
 288 476 l 1
288 -19 m 1
 230 -19 l 1
 230 350 l 1
 288 350 l 1
 288 -19 l 1
EndSplineSet
EndChar

StartChar: minus
Encoding: 273 8722 20
Width: 679
Flags: MW
HStem: 306 57<69 609 69 609>
LayerCount: 2
Fore
SplineSet
609 306 m 1
 69 306 l 1
 69 363 l 1
 609 363 l 1
 609 306 l 1
EndSplineSet
EndChar

StartChar: multiply
Encoding: 274 215 21
Width: 680
Flags: MW
HStem: 83 21G<134 134 545 545> 566 20G<133 133 547 547>
LayerCount: 2
Fore
SplineSet
587 544 m 1
 380 333 l 1
 585 124 l 1
 545 83 l 1
 341 292 l 1
 134 83 l 1
 93 124 l 1
 299 333 l 1
 93 544 l 1
 133 586 l 1
 340 374 l 1
 547 586 l 1
 587 544 l 1
EndSplineSet
EndChar

StartChar: exclam
Encoding: 33 33 22
Width: 297
Flags: MW
HStem: -14 111<124.5 143> 642 20G<244 265 265 277.5>
LayerCount: 2
Fore
SplineSet
298 643 m 0
 298 637 297 632 295 625 c 2
 171 177 l 2
 164 164 148 169 148 177 c 2
 208 624 l 2
 213 660 214 662 244 662 c 2
 265 662 l 2
 290 662 298 659 298 643 c 0
179 48 m 0
 179 13 157 -14 129 -14 c 0
 103 -14 87 6 87 35 c 0
 87 37 87 40 88 43 c 0
 92 74 111 97 138 97 c 0
 162 97 179 77 179 48 c 0
EndSplineSet
EndChar

StartChar: quotedbl
Encoding: 34 34 23
Width: 424
Flags: MW
HStem: 364 21G<168 194 168 168 350 378 350 350> 642 20G<238.5 276.5 426 459>
LayerCount: 2
Fore
SplineSet
486 625 m 0
 486 607 467 557 447 513 c 2
 378 364 l 1
 350 364 l 1
 365 513 l 1
 370 564 l 2
 376 624 405 662 447 662 c 0
 471 662 486 648 486 625 c 0
304 624 m 0
 304 614 303 607 297 592 c 0
 292 577 281 555 262 514 c 2
 194 364 l 1
 168 364 l 1
 184 515 l 2
 196 628 212 662 265 662 c 0
 288 662 304 647 304 624 c 0
EndSplineSet
EndChar

StartChar: numbersign
Encoding: 35 35 24
Width: 680
Flags: MW
HStem: -25 21G<104 160 104 104 373 430 373 373> 182 57<44 146 44 157 44 417 44 201 482 634> 431 57<44 197 44 209 44 252 264 467 533 634> 676 20G<252 307 307 307 521 576 576 576>
LayerCount: 2
Fore
SplineSet
634 182 m 1
 471 182 l 1
 430 -25 l 1
 373 -25 l 1
 417 182 l 1
 201 182 l 1
 160 -25 l 1
 104 -25 l 1
 146 182 l 1
 44 182 l 1
 44 239 l 1
 157 239 l 1
 197 431 l 1
 44 431 l 1
 44 488 l 1
 209 488 l 1
 252 696 l 1
 307 696 l 1
 264 488 l 1
 478 488 l 1
 521 696 l 1
 576 696 l 1
 533 488 l 1
 634 488 l 1
 634 431 l 1
 522 431 l 1
 482 239 l 1
 634 239 l 1
 634 182 l 1
467 431 m 1
 252 431 l 1
 212 240 l 1
 428 240 l 1
 467 431 l 1
EndSplineSet
EndChar

StartChar: dollar
Encoding: 36 36 25
Width: 472
Flags: MW
HStem: -95 21G<224.5 231.5> -16 21G<215 221> 652 20G<310.5 317 381.5 387>
VStem: 69 72<63.5 120> 156 54<463.5 489.5> 346 66<100 134.5> 415 59<476 534.5>
LayerCount: 2
Fore
SplineSet
474 492 m 0
 474 460 463 438 440 438 c 0
 420 438 408 454 408 477 c 0
 408 490 411 502 414 515 c 0
 414 518 415 522 415 526 c 0
 415 543 406 558 388 569 c 0
 380 574 377 573 374 559 c 2
 322 303 l 1
 383 245 412 195 412 141 c 0
 412 59 357 0 267 -13 c 0
 261 -14 256 -16 253 -30 c 2
 242 -88 l 2
 241 -92 235 -95 228 -95 c 0
 221 -95 218 -92 219 -88 c 2
 230 -29 l 2
 230 -23 230 -17 221 -16 c 0
 209 -16 209 -16 195 -14 c 0
 189 -15 186 -20 183 -25 c 2
 168 -89 l 2
 166 -93 160 -95 154 -94 c 0
 149 -93 144 -91 146 -87 c 2
 162 -6 l 1
 107 15 69 57 69 106 c 0
 69 134 87 153 110 153 c 0
 130 153 145 137 145 115 c 0
 145 102 141 88 141 74 c 0
 141 53 149 38 168 23 c 1
 221 279 l 2
 224 292 224 300 217 308 c 0
 174 353 156 395 156 448 c 0
 156 531 205 591 288 606 c 1
 299 664 l 2
 300 668 307 672 314 672 c 0
 320 672 325 669 323 663 c 2
 314 617 l 2
 313 611 318 609 323 609 c 0
 332 609 341 609 349 608 c 0
 356 608 362 611 363 617 c 2
 372 664 l 2
 372 669 379 672 384 672 c 0
 390 672 397 669 395 663 c 2
 386 615 l 2
 385 608 386 602 395 599 c 0
 444 582 474 544 474 492 c 0
352 564 m 2
 355 578 353 582 345 583 c 0
 335 584 325 584 315 583 c 0
 310 583 306 580 304 572 c 2
 261 363 l 1
 273 350 283 342 294 330 c 0
 298 327 304 328 305 333 c 2
 352 564 l 2
278 558 m 2
 281 571 280 577 267 570 c 0
 230 549 210 515 210 475 c 0
 210 452 216 431 230 407 c 0
 233 402 242 386 245 400 c 2
 278 558 l 2
346 119 m 0
 346 150 336 173 311 206 c 0
 308 209 303 211 301 203 c 2
 266 31 l 2
 266 23 265 13 271 15 c 0
 316 31 346 71 346 119 c 0
282 220 m 2
 284 230 284 237 278 244 c 0
 270 252 262 261 254 268 c 0
 248 271 245 270 240 256 c 2
 193 29 l 1
 195 16 191 14 201 12 c 0
 213 10 219 9 232 9 c 0
 238 9 237 16 242 25 c 2
 282 220 l 2
EndSplineSet
EndChar

StartChar: percent
Encoding: 37 37 26
Width: 731
Flags: MW
HStem: -22 21G<203 217 203 203> 17 29<565.5 607.5 565.5 621.5> 285 28<195.5 238 195.5 251.5> 346 28<625 667> 613 28<255 297>
LayerCount: 2
Fore
SplineSet
752 194 m 0
 733 96 660 17 583 17 c 0
 503 17 461 99 480 197 c 0
 499 295 573 374 650 374 c 0
 728 374 771 293 752 194 c 0
655 623 m 2
 237 -10 l 2
 231 -18 229 -22 217 -22 c 2
 203 -22 l 2
 192 -21 185 -12 193 0 c 0
 396 309 484 442 530 511 c 0
 575 580 577 582 610 631 c 0
 616 639 618 644 629 643 c 0
 640 645 654 641 654 641 c 2
 665 637 659 626 655 623 c 2
382 462 m 0
 363 363 290 285 213 285 c 0
 133 285 91 366 110 464 c 0
 129 562 203 641 280 641 c 0
 359 641 401 560 382 462 c 0
682 197 m 0
 703 305 687 346 647 346 c 0
 603 346 570 301 549 194 c 0
 528 87 545 46 586 46 c 0
 629 46 662 91 682 197 c 0
312 464 m 0
 333 572 317 613 277 613 c 0
 233 613 200 568 179 462 c 0
 158 354 175 313 216 313 c 0
 260 313 292 358 312 464 c 0
EndSplineSet
EndChar

StartChar: ampersand
Encoding: 38 38 27
Width: 720
Flags: W
HStem: -19 42<327.5 416.5> 292 49 292 134 353 34<310.5 323.5> 528 135<345 561.5> 633 30<371.5 436.5 345 443.5>
VStem: 92 93<151 229> 176 86<467.5 526.5 452 541> 622 31<146 218.5 129.5 229> 622 150<146 402>
LayerCount: 2
Fore
SplineSet
772 393 m 0xaa40
 772 336 716 297 626 291 c 0
 622 291 603 291 613 283 c 0
 641 259 653 235 653 202 c 0
 653 57 476 -19 357 -19 c 0
 238 -19 92 41 92 187 c 0xda80
 92 271 158 343 254 368 c 0
 266 371 274 379 266 382 c 0
 208 404 176 443 176 492 c 0
 176 590 280 663 410 663 c 0
 463 663 587 640 587 562 c 0
 587 544 571 528 552 528 c 0xd980
 528 528 519 546 512 565 c 0
 510 572 509 579 507 585 c 0
 499 617 470 633 417 633 c 0
 326 633 262 574 262 479 c 0xd580
 262 425 291 387 330 387 c 0
 345 387 388 397 388 371 c 0
 388 337 334 353 313 353 c 0
 239 353 185 291 185 207 c 0
 185 95 265 23 390 23 c 0
 485 23 622 90 622 202 c 0
 622 256 586 292 523 292 c 0
 480 292 446 277 446 265 c 0
 446 260 449 256 453 252 c 0
 461 244 468 236 469 223 c 0
 471 182 411 179 405 232 c 0
 403 254 419 281 438 301 c 0
 469 332 504 343 576 343 c 0
 608 343 641 341 673 341 c 0xda80
 710 341 733 352 733 365 c 0
 733 377 716 384 715 401 c 0
 715 415 723 426 743 426 c 0
 762 426 772 411 772 393 c 0xaa40
EndSplineSet
EndChar

StartChar: quotesingle
Encoding: 169 39 28
Width: 223
Flags: MW
HStem: 363 21G<163.5 174.5> 642 20G<215 286>
LayerCount: 2
Fore
SplineSet
251 662 m 0
 321 662 284 564 245 489 c 2
 188 379 l 2
 182 368 181 363 168 363 c 0
 159 363 157 377 157 386 c 2
 168 509 l 2
 172 558 179 662 251 662 c 0
EndSplineSet
EndChar

StartChar: parenleft
Encoding: 40 40 29
Width: 306
Flags: W
LayerCount: 2
Fore
SplineSet
400 691 m 0
 404 684 403 680 396 672 c 0
 293 548 223 411 183 255 c 0
 142 97 151 -64 205 -217 c 0
 208 -226 211 -235 201 -239 c 0
 195 -242 188 -236 184 -227 c 0
 136 -122 100 5 100 121 c 0
 100 341 233 540 384 690 c 0
 393 698 398 695 400 691 c 0
EndSplineSet
EndChar

StartChar: parenright
Encoding: 41 41 30
Width: 286
Flags: W
LayerCount: 2
Fore
SplineSet
260 335 m 0
 260 202 218 79 128 -53 c 0
 84 -117 33 -178 -20 -230 c 0
 -27 -237 -37 -240 -40 -235 c 0
 -46 -225 -35 -213 -32 -209 c 0
 22 -146 57 -93 87 -36 c 0
 118 25 159 133 177 202 c 0
 219 367 206 516 154 676 c 0
 151 686 153 692 158 695 c 0
 165 699 169 696 176 682 c 0
 226 572 260 467 260 335 c 0
EndSplineSet
EndChar

StartChar: asterisk
Encoding: 42 42 31
Width: 557
Flags: W
HStem: 247 21G<279 303> 675 20G<278.5 303.5>
VStem: 254 75<643 664> 281 20<504 504>
LayerCount: 2
Fore
SplineSet
486 376 m 0xd0
 486 360 472 341 451 341 c 0
 431 341 419 349 407 363 c 0
 402 368 398 373 394 379 c 0
 378 399 357 424 315 450 c 0
 306 455 302 455 302 445 c 0
 303 388 310 362 316 345 c 0
 320 335 323 328 326 320 c 0
 328 312 330 303 330 291 c 0
 330 267 315 247 291 247 c 0
 267 247 252 267 252 291 c 0
 252 303 254 312 257 320 c 0
 258 328 263 335 266 345 c 0
 273 362 279 387 280 442 c 0
 280 451 278 456 268 450 c 0
 226 425 205 399 189 379 c 0
 181 369 173 359 163 352 c 0
 155 345 145 341 132 341 c 0
 110 341 96 360 96 376 c 0
 96 410 114 417 146 424 c 0
 161 427 180 431 202 438 c 0
 219 443 238 451 260 464 c 0
 267 467 275 472 262 479 c 0
 239 491 219 499 201 504 c 0
 180 511 161 515 145 519 c 0
 114 527 96 536 96 567 c 0
 96 576 103 603 136 603 c 0
 152 603 163 593 174 581 c 0
 178 577 182 571 187 566 c 0
 204 546 227 521 268 495 c 0
 279 488 281 491 281 504 c 0xd0
 279 546 274 572 267 593 c 0
 261 613 254 632 254 654 c 0
 254 674 266 695 291 695 c 0
 316 695 329 674 329 654 c 0xe0
 329 632 321 613 315 593 c 0
 309 572 302 546 301 504 c 0
 300 486 307 491 317 497 c 0
 357 522 379 546 396 566 c 0
 400 571 405 577 409 581 c 0
 419 593 430 603 446 603 c 0
 480 603 486 576 486 567 c 0
 486 536 469 527 437 519 c 0
 422 515 403 511 381 504 c 0
 364 499 344 491 322 480 c 0
 309 473 310 471 322 464 c 0
 344 451 363 443 381 438 c 0
 402 431 421 427 437 424 c 0
 468 417 486 410 486 376 c 0xd0
EndSplineSet
EndChar

StartChar: plus
Encoding: 43 43 32
Width: 679
Flags: MW
HStem: 60 21G<309 367 309 309> 304 58<69 309 69 309 367 609> 588 20G<309 367 367 367>
VStem: 309 58<60 304 60 304 362 608>
LayerCount: 2
Fore
SplineSet
609 304 m 1
 367 304 l 1
 367 60 l 1
 309 60 l 1
 309 304 l 1
 69 304 l 1
 69 362 l 1
 309 362 l 1
 309 608 l 1
 367 608 l 1
 367 362 l 1
 609 362 l 1
 609 304 l 1
EndSplineSet
EndChar

StartChar: comma
Encoding: 44 44 33
Width: 257
Flags: W
HStem: 69 20G<146.5 172.5>
VStem: 113 95<31.5 37 -20.5 52.5>
LayerCount: 2
Fore
SplineSet
208 17 m 0
 208 -58 164 -117 69 -173 c 0
 52 -179 50 -161 59 -154 c 0
 94 -126 145 -95 145 -46 c 0xc0
 145 -30 137 -15 129 -2 c 0
 122 11 113 24 113 39 c 0
 113 66 135 89 158 89 c 0
 187 89 208 57 208 17 c 0
EndSplineSet
EndChar

StartChar: hyphen
Encoding: 45 45 34
Width: 332
Flags: MW
HStem: 184 55<67.5 294 85 286>
LayerCount: 2
Fore
SplineSet
305 226 m 0
 303 210 301 201 299 193 c 0
 297 187 295 182 286 184 c 2
 78 184 l 2
 57 184 57 183 60 206 c 0
 61 218 63 222 64 226 c 0
 68 237 66 239 85 239 c 2
 294 239 l 2
 303 239 307 238 305 226 c 0
EndSplineSet
EndChar

StartChar: period
Encoding: 46 46 35
Width: 244
Flags: MW
HStem: -14 110<114.5 132.5>
LayerCount: 2
Fore
SplineSet
168 48 m 0
 168 13 147 -14 118 -14 c 0
 85 -14 73 14 77 42 c 0
 80 73 102 96 127 96 c 0
 152 96 168 76 168 48 c 0
EndSplineSet
EndChar

StartChar: slash
Encoding: 47 47 36
Width: 349
Flags: W
LayerCount: 2
Fore
SplineSet
368 587 m 0
 267 382 137 115 63 -44 c 0
 54 -55 45 -65 35 -64 c 2
 8 -62 l 2
 -1 -61 -14 -57 -7 -38 c 0
 78 120 234 436 305 596 c 0
 310 604 315 619 334 617 c 2
 359 614 l 2
 364 613 377 605 368 587 c 0
EndSplineSet
EndChar

StartChar: zero
Encoding: 48 48 37
Width: 432
Flags: MW
HStem: -16 47<134 238.5> 404 50<227.5 336>
VStem: 60 76<121.5 207> 337 75<255 311.5>
LayerCount: 2
Fore
SplineSet
412 288 m 0
 412 222 392 160 355 111 c 0
 324 69 269 23 217 0 c 0
 194 -10 173 -16 158 -16 c 0
 110 -16 60 70 60 161 c 0
 60 253 113 344 203 407 c 0
 242 434 286 454 312 454 c 0
 360 454 412 374 412 288 c 0
337 274 m 0
 337 349 301 404 259 404 c 0
 196 404 136 289 136 158 c 0
 136 85 169 31 205 31 c 0
 272 31 337 145 337 274 c 0
EndSplineSet
EndChar

StartChar: one
Encoding: 49 49 38
Width: 380
Flags: MW
HStem: -1 23<77 318> 440 20G<301 308.5>
LayerCount: 2
Fore
SplineSet
319 446 m 2
 248 86 l 2
 242 58 242 52 242 50 c 0
 242 31 255 26 314 22 c 0
 322 22 319 -1 309 -1 c 0
 234 0 136 1 77 -1 c 0
 73 -1 71 5 72 9 c 0
 73 16 78 21 81 22 c 0
 103 23 131 26 151 34 c 0
 168 41 169 57 172 73 c 2
 232 378 l 2
 235 395 225 386 222 386 c 2
 153 355 l 2
 149 353 148 360 148 365 c 0
 148 372 150 379 156 381 c 2
 284 454 l 2
 293 461 297 460 305 460 c 0
 312 460 320 451 319 446 c 2
EndSplineSet
EndChar

StartChar: two
Encoding: 50 50 39
Width: 414
Flags: MW
HStem: -1 64<127 274 274 286.5 127 309> 409 46<258.5 282.5>
VStem: 331 78<338 371.5>
LayerCount: 2
Fore
SplineSet
409 348 m 0
 409 275 343 234 279 196 c 0
 187 140 140 98 111 70 c 0
 106 65 114 63 127 63 c 2
 274 63 l 2
 299 63 321 67 334 90 c 0
 339 99 344 109 353 124 c 0
 358 137 382 133 378 123 c 0
 363 90 342 41 330 9 c 0
 325 2 319 -1 309 -1 c 0
 231 0 123 0 38 -1 c 0
 31 -1 34 15 37 21 c 0
 58 45 80 70 104 96 c 0
 166 161 245 213 301 277 c 0
 323 303 331 324 331 352 c 0
 331 391 299 409 266 409 c 0
 211 409 172 366 139 329 c 0
 130 320 116 336 121 346 c 0
 156 389 217 455 300 455 c 0
 366 455 409 401 409 348 c 0
EndSplineSet
EndChar

StartChar: three
Encoding: 51 51 40
Width: 427
Flags: W
HStem: -184 42<125 129.5> -184 78<16.5 129.5> 408 44<290.5 299>
VStem: 305 80<30.5 111> 340 45 340 81<335.5 368>
LayerCount: 2
Fore
SplineSet
421 368 m 0xa8
 421 303 341 252 293 230 c 0
 287 227 288 221 293 221 c 0
 314 216 337 203 352 189 c 0
 369 172 385 148 385 115 c 0
 385 -54 192 -184 67 -184 c 0
 16 -184 -1 -165 -1 -143 c 0
 -1 -127 7 -106 26 -106 c 0x70
 45 -106 62 -118 78 -126 c 0
 95 -135 116 -142 134 -142 c 0
 208 -142 305 -46 305 83 c 0xb0
 305 139 278 181 233 181 c 0
 212 181 198 177 177 168 c 0
 169 165 161 167 160 174 c 0
 160 181 163 189 170 192 c 0
 230 219 340 271 340 351 c 0
 340 385 315 408 283 408 c 0
 247 408 198 385 137 323 c 0
 131 317 111 327 120 339 c 0
 199 426 262 452 319 452 c 0
 419 452 421 379 421 368 c 0xa8
EndSplineSet
EndChar

StartChar: four
Encoding: 52 52 41
Width: 448
Flags: MW
HStem: 35 59<73 254 131 247>
LayerCount: 2
Fore
SplineSet
430 62 m 0
 428 49 424 36 415 35 c 2
 354 35 l 2
 338 35 333 27 331 23 c 2
 291 -170 l 2
 289 -182 278 -186 271 -184 c 2
 236 -184 l 2
 226 -184 215 -182 218 -169 c 2
 257 26 l 2
 260 33 249 35 247 35 c 2
 75 35 l 2
 71 35 64 38 64 44 c 0
 64 58 61 71 70 82 c 0
 190 230 283 343 386 444 c 1
 401 445 l 2
 410 446 416 441 414 431 c 0
 391 316 375 236 347 101 c 0
 346 94 347 91 351 90 c 2
 419 90 l 2
 425 90 434 81 430 62 c 0
331 342 m 1
 261 274 165 156 125 103 c 0
 121 98 128 95 131 94 c 2
 254 94 l 2
 259 94 268 94 269 101 c 0
 292 191 308 252 330 342 c 1
 331 342 l 1
EndSplineSet
EndChar

StartChar: five
Encoding: 53 53 42
Width: 432
Flags: MW
HStem: -172 56<77.5 187.5>
VStem: 299 64<91 127 91 131>
LayerCount: 2
Fore
SplineSet
387 466 m 0
 378 435 370 408 362 378 c 0
 359 369 356 366 346 366 c 0
 297 367 248 370 200 370 c 0
 197 370 192 370 190 363 c 0
 184 339 180 324 174 291 c 0
 173 288 176 285 186 283 c 0
 243 274 291 248 316 225 c 0
 354 192 363 145 363 109 c 0
 363 73 356 12 288 -63 c 0
 247 -108 168 -172 86 -172 c 0
 69 -172 11 -167 11 -135 c 0
 11 -119 29 -86 50 -86 c 0
 61 -86 66 -88 100 -103 c 0
 114 -109 131 -116 146 -116 c 0
 229 -116 299 -27 299 73 c 0
 299 189 161 219 147 220 c 0
 125 221 130 229 133 241 c 0
 148 297 159 349 174 410 c 0
 182 445 188 441 221 441 c 0
 222 441 348 437 357 445 c 0
 362 449 365 461 367 467 c 0
 369 472 387 474 387 466 c 0
EndSplineSet
EndChar

StartChar: six
Encoding: 54 54 43
Width: 463
Flags: MW
HStem: -9 47<231 263> 389 60<293 365> 650 20G<486 487.5>
VStem: 86 80<160 212.5 143.5 276> 362 74<226.5 294>
LayerCount: 2
Fore
SplineSet
497 663 m 0
 499 657 494 648 487 647 c 0
 361 612 243 511 187 332 c 0
 183 320 198 331 205 339 c 0
 223 362 230 370 253 392 c 0
 291 429 334 449 348 449 c 0
 382 449 436 388 436 302 c 0
 436 151 309 -9 217 -9 c 0
 133 -9 86 109 86 211 c 0
 86 341 154 458 247 548 c 0
 351 649 438 662 486 670 c 0
 489 670 496 668 497 663 c 0
362 257 m 0
 362 331 333 389 305 389 c 0
 281 389 243 351 219 323 c 0
 168 262 166 235 166 190 c 0
 166 97 208 38 254 38 c 0
 311 38 362 141 362 257 c 0
EndSplineSet
EndChar

StartChar: seven
Encoding: 55 55 44
Width: 409
Flags: MW
HStem: -169 21G<50 62 62 84> 373 70
LayerCount: 2
Fore
SplineSet
420 428 m 1
 414 411 405 395 396 379 c 2
 121 -126 l 2
 99 -166 95 -169 84 -169 c 2
 62 -169 l 2
 38 -169 54 -138 59 -130 c 2
 352 363 l 2
 359 374 339 373 333 373 c 0
 271 371 219 379 158 373 c 0
 132 370 130 360 122 336 c 2
 102 277 l 2
 101 273 94 272 89 273 c 0
 80 276 82 277 83 284 c 2
 117 421 l 2
 122 441 123 442 145 443 c 0
 241 448 280 441 340 441 c 0
 359 441 370 442 394 444 c 0
 405 445 420 444 420 437 c 2
 420 428 l 1
EndSplineSet
EndChar

StartChar: eight
Encoding: 56 56 45
Width: 463
Flags: W
HStem: -12 34<199 214> 576 38<290.5 375>
VStem: 57 65<144.5 186.5> 155 62<463 464.5> 334 56<137.5 200> 386 64<492.5 509.5>
LayerCount: 2
Fore
SplineSet
450 508 m 0xf4
 450 477 427 425 315 357 c 0
 309 353 312 350 315 347 c 0
 348 316 390 271 390 199 c 0xf8
 390 76 247 -12 181 -12 c 0
 165 -12 136 -11 94 47 c 0
 73 76 57 114 57 145 c 0
 57 228 160 297 211 328 c 0
 214 330 219 336 214 341 c 0
 190 367 155 410 155 452 c 0
 155 477 161 513 232 565 c 0
 243 573 309 614 344 614 c 0
 406 614 450 544 450 508 c 0xf4
386 486 m 0
 386 533 324 576 300 576 c 0
 281 576 217 546 217 486 c 0
 217 440 259 398 291 368 c 1
 332 396 386 434 386 486 c 0
334 161 m 0xf8
 334 239 272 290 237 317 c 1
 192 288 122 239 122 172 c 0
 122 117 180 22 218 22 c 0
 238 22 334 67 334 161 c 0xf8
EndSplineSet
EndChar

StartChar: nine
Encoding: 57 57 46
Width: 494
Flags: MW
HStem: 2 55<201 212> 406 49<268 291.5>
VStem: 87 73<154.5 233> 358 82<186.5 284.5 180 303>
LayerCount: 2
Fore
SplineSet
440 230 m 0
 440 130 390 7 299 -82 c 0
 252 -128 203 -157 160 -176 c 0
 116 -196 78 -205 52 -212 c 0
 43 -214 38 -206 37 -200 c 0
 37 -195 41 -191 44 -189 c 0
 202 -133 278 -49 331 87 c 0
 332 91 341 116 330 102 c 0
 315 83 247 2 177 2 c 0
 127 2 87 55 87 141 c 0
 87 325 233 455 303 455 c 0
 387 455 440 339 440 230 c 0
358 256 m 0
 358 350 312 406 271 406 c 0
 216 406 160 323 160 188 c 0
 160 121 183 57 219 57 c 0
 249 57 358 117 358 256 c 0
EndSplineSet
EndChar

StartChar: colon
Encoding: 58 58 47
Width: 297
Flags: MW
HStem: -14 111<151.5 170.5> 314 111<213.5 234>
LayerCount: 2
Fore
SplineSet
270 375 m 0
 270 340 248 314 220 314 c 0
 191 314 176 342 177 371 c 0
 182 402 198 425 229 425 c 0
 253 425 270 404 270 375 c 0
206 48 m 0
 206 13 185 -14 156 -14 c 0
 124 -14 111 16 113 43 c 0
 116 75 138 97 165 97 c 0
 190 97 206 77 206 48 c 0
EndSplineSet
EndChar

StartChar: semicolon
Encoding: 59 59 48
Width: 297
Flags: W
HStem: 314 111<207.5 228.5>
VStem: 111 96<40 44 -16 61> 172 94<355.5 380>
LayerCount: 2
Fore
SplineSet
266 373 m 0xa0
 266 338 243 314 214 314 c 0
 190 314 172 337 172 366 c 0
 172 394 191 425 224 425 c 0
 248 425 266 402 266 373 c 0xa0
207 23 m 0xc0
 207 -55 163 -120 66 -178 c 0
 60 -181 55 -180 52 -176 c 0
 46 -164 56 -157 62 -152 c 0
 121 -114 142 -81 142 -46 c 0xc0
 142 -31 139 -24 127 -2 c 0
 115 19 111 33 111 47 c 0
 111 75 130 97 156 97 c 0
 186 97 207 65 207 23 c 0xc0
EndSplineSet
EndChar

StartChar: less
Encoding: 60 60 49
Width: 679
Flags: MW
HStem: 76 21G<609 609> 572 20G<609 609>
LayerCount: 2
Fore
SplineSet
609 76 m 1
 70 309 l 1
 70 360 l 1
 609 592 l 1
 609 528 l 1
 149 334 l 1
 609 140 l 1
 609 76 l 1
EndSplineSet
EndChar

StartChar: equal
Encoding: 61 61 50
Width: 679
Flags: MW
HStem: 188 59<70 609 70 609> 424 59<70 609 70 609>
LayerCount: 2
Fore
SplineSet
609 424 m 1
 70 424 l 1
 70 483 l 1
 609 483 l 1
 609 424 l 1
609 188 m 1
 70 188 l 1
 70 247 l 1
 609 247 l 1
 609 188 l 1
EndSplineSet
EndChar

StartChar: greater
Encoding: 62 62 51
Width: 679
Flags: MW
HStem: 76 21G<70 70> 572 20G<70 70>
LayerCount: 2
Fore
SplineSet
609 308 m 1
 70 76 l 1
 70 140 l 1
 531 333 l 1
 70 527 l 1
 70 592 l 1
 609 359 l 1
 609 308 l 1
EndSplineSet
EndChar

StartChar: question
Encoding: 63 63 52
Width: 403
Flags: W
HStem: -14 111<130.5 149> 567 95<178 294.5> 583 79<255 294.5 226 295.5>
VStem: 358 38<480.5 525.5>
LayerCount: 2
Fore
SplineSet
396 501 m 0xd0
 396 439 376 383 343 351 c 0
 321 330 294 318 268 304 c 0
 243 291 220 276 204 245 c 0
 190 219 185 208 176 169 c 0
 174 160 152 155 153 169 c 0
 158 249 178 313 203 346 c 0
 225 376 266 394 297 413 c 0
 331 434 358 458 358 503 c 0
 358 548 321 583 270 583 c 0xb0
 240 583 213 567 186 567 c 0
 170 567 158 585 158 607 c 0
 158 640 200 662 252 662 c 0
 337 662 396 597 396 501 c 0xd0
185 48 m 0
 185 13 164 -14 134 -14 c 0
 101 -14 94 15 94 42 c 0
 97 74 118 97 143 97 c 0
 168 97 185 77 185 48 c 0
EndSplineSet
EndChar

StartChar: at
Encoding: 64 64 53
Width: 933
Flags: W
HStem: -213 35<424 627 424 635> 14 40<643.5 705 643.5 729> 14 65<363.5 455.5> 462 28<566 591.5 551.5 596.5> 681 31<457 669>
VStem: 100 51<95.5 346 94 364.5> 298 83<129.5 177> 894 34<335.5 472.5>
LayerCount: 2
Fore
SplineSet
968 84 m 1xdf
 905 -109 735 -213 535 -213 c 0
 285 -213 100 -34 100 225 c 0
 100 504 307 712 572 712 c 0
 784 712 928 581 928 373 c 0
 928 176 805 14 653 14 c 0
 601 14 575 38 575 86 c 0
 575 101 576 112 579 134 c 0
 580 140 580 152 567 136 c 0
 541 103 530 91 506 69 c 0
 467 34 425 14 390 14 c 0
 337 14 298 66 298 134 c 0
 298 220 349 330 424 408 c 0
 475 460 529 490 574 490 c 0
 609 490 635 476 651 443 c 0
 659 427 661 442 666 447 c 0
 672 464 684 473 693 476 c 2
 734 484 l 2
 745 483 750 477 747 456 c 0
 741 434 600 54 687 54 c 0
 723 54 774 85 808 127 c 0
 862 193 894 289 894 382 c 0
 894 563 762 681 576 681 c 0
 338 681 151 480 151 212 c 0
 151 -24 311 -178 537 -178 c 0
 717 -178 859 -91 935 89 c 0
 939 93 945 97 951 97 c 0
 959 96 963 89 968 84 c 1xdf
639 390 m 0
 639 433 614 462 579 462 c 0
 553 462 523 445 498 415 c 0
 435 341 381 218 381 149 c 0
 381 110 406 79 436 79 c 0xbf
 475 79 517 110 566 176 c 0
 592 211 602 231 617 277 c 0
 632 325 639 362 639 390 c 0
EndSplineSet
EndChar

StartChar: A
Encoding: 65 65 54
Width: 693
Flags: MW
HStem: -2 25<-37 -35 -35 -28 -37 205 376 380 380 427> 279 45<280.5 335 327.5 335 327.5 480>
VStem: 494 90
LayerCount: 2
Fore
SplineSet
676 9 m 0
 675 0 673 -3 662 -2 c 0
 586 1 448 0 380 -2 c 0
 370 -2 369 23 383 23 c 0
 471 23 495 41 495 105 c 2
 494 268 l 2
 494 271 486 279 480 279 c 2
 283 279 l 2
 278 279 274 277 269 272 c 2
 144 106 l 2
 132 90 125 75 125 64 c 0
 125 30 158 26 182 25 c 0
 192 24 200 25 208 25 c 0
 221 25 218 -2 205 -2 c 0
 149 0 29 0 -35 -2 c 0
 -46 -2 -46 23 -28 23 c 0
 24 33 46 47 99 116 c 2
 515 657 l 2
 516 660 521 663 526 664 c 0
 539 668 555 667 566 665 c 0
 577 662 578 657 578 648 c 2
 584 80 l 2
 584 37 608 29 631 26 c 0
 641 25 650 26 659 26 c 0
 661 26 664 26 666 26 c 0
 673 25 678 18 676 9 c 0
496 339 m 0
 496 393 496 498 496 546 c 0
 496 565 485 562 479 554 c 2
 321 339 l 2
 316 333 320 324 335 324 c 2
 477 325 l 2
 490 325 496 333 496 339 c 0
EndSplineSet
EndChar

StartChar: B
Encoding: 66 66 55
Width: 646
Flags: W
HStem: -3 32<280.5 342> 351 31<283 344 297 338> 621 25<143.5 431 149 169>
VStem: 520 97<173.5 228.5 131.5 249> 542 93<490.5 537>
LayerCount: 2
Fore
SplineSet
635 507 m 0xe8
 635 436 580 381 490 363 c 0
 484 362 486 355 490 354 c 0
 569 326 617 265 617 192 c 0xf0
 617 71 513 -4 342 -3 c 0
 240 -2 116 -2 29 -3 c 0
 11 -3 15 26 31 26 c 0
 41 26 52 26 62 27 c 0
 105 33 120 56 135 125 c 2
 219 520 l 2
 229 568 243 622 169 621 c 0
 160 622 153 620 146 621 c 0
 141 621 137 625 138 634 c 0
 139 641 144 646 149 646 c 2
 431 646 l 2
 559 646 635 596 635 507 c 0xe8
542 515 m 0
 542 559 523 591 490 605 c 0
 468 614 438 618 391 618 c 2
 344 618 l 2
 336 618 329 613 326 607 c 2
 283 396 l 2
 281 388 289 382 297 382 c 2
 344 382 l 2
 414 382 446 389 478 407 c 0
 520 431 542 466 542 515 c 0
520 204 m 0xf0
 520 294 452 351 338 351 c 2
 285 351 l 2
 281 351 271 347 271 342 c 2
 228 139 l 2
 225 123 223 110 223 101 c 0
 223 49 238 29 323 29 c 0
 384 29 415 36 449 59 c 0
 493 90 520 143 520 204 c 0xf0
EndSplineSet
EndChar

StartChar: C
Encoding: 67 67 56
Width: 712
Flags: MW
HStem: -18 33<281 367.5> 630 33<393 539 369 553>
VStem: 29 97<193 372 193 385.5>
LayerCount: 2
Fore
SplineSet
727 590 m 0
 718 555 701 503 688 460 c 0
 683 444 663 454 665 464 c 0
 667 477 667 478 667 489 c 0
 667 582 612 630 494 630 c 0
 292 630 126 473 126 271 c 0
 126 115 209 15 353 15 c 0
 462 15 550 68 619 167 c 0
 624 176 647 171 642 159 c 0
 625 116 600 39 590 2 c 0
 589 -3 578 -3 571 2 c 0
 558 6 555 7 541 7 c 0
 529 7 525 7 480 -2 c 0
 426 -13 387 -18 348 -18 c 0
 174 -18 29 92 29 277 c 0
 29 494 237 663 501 663 c 0
 577 663 650 649 719 619 c 0
 726 615 731 607 727 590 c 0
EndSplineSet
EndChar

StartChar: D
Encoding: 68 68 57
Width: 793
Flags: MW
HStem: -3 34<261 328.5 261 362> 615 31
VStem: 679 101<291.5 445 256.5 458.5>
LayerCount: 2
Fore
SplineSet
780 358 m 0
 780 155 597 -4 362 -3 c 0
 263 -3 126 -2 13 -3 c 0
 -5 -3 -2 26 17 29 c 0
 28 30 38 31 50 32 c 0
 98 34 108 47 125 125 c 2
 211 531 l 2
 230 619 198 616 120 617 c 0
 104 617 111 646 127 646 c 2
 424 646 l 2
 638 646 780 532 780 358 c 0
679 363 m 0
 679 554 523 622 349 615 c 0
 336 614 321 616 315 600 c 2
 212 113 l 2
 196 38 221 31 301 31 c 0
 356 31 414 38 451 50 c 0
 584 92 679 220 679 363 c 0
EndSplineSet
EndChar

StartChar: E
Encoding: 69 69 58
Width: 662
Flags: MW
HStem: -2 33<309 379 379 413> 311 34<271 450 286 414> 615 31<336 342 342 510>
LayerCount: 2
Fore
SplineSet
670 623 m 0
 663 585 650 527 644 503 c 0
 645 499 641 497 634 497 c 0
 617 498 624 509 624 521 c 0
 624 588 592 615 510 615 c 2
 342 615 l 2
 330 615 320 614 317 601 c 2
 266 358 l 2
 264 348 273 345 286 345 c 2
 450 345 l 2
 510 345 535 360 560 413 c 0
 562 420 586 420 581 409 c 0
 570 365 552 274 544 228 c 0
 543 222 521 209 521 244 c 0
 521 296 498 311 414 311 c 2
 277 311 l 2
 265 311 256 308 254 297 c 2
 211 97 l 2
 196 29 257 31 309 31 c 2
 379 31 l 2
 447 31 488 44 527 72 c 0
 559 95 571 104 599 141 c 0
 606 151 621 148 620 140 c 0
 606 106 582 16 575 7 c 0
 567 -1 563 -2 535 -2 c 0
 398 0 170 1 13 -2 c 0
 6 -2 1 6 2 13 c 0
 4 22 10 29 17 29 c 0
 28 30 42 28 50 29 c 0
 98 33 112 50 125 113 c 2
 213 532 l 2
 218 555 219 567 219 575 c 0
 219 605 195 619 153 619 c 2
 127 619 l 2
 119 620 117 626 118 633 c 0
 120 642 129 646 137 646 c 2
 648 646 l 2
 665 646 673 643 670 623 c 0
EndSplineSet
EndChar

StartChar: F
Encoding: 70 70 59
Width: 549
Flags: MW
HStem: -2 29<237.5 274 237.5 289> 311 34<262 414 276 400> 616 30<340.5 342 342 464>
LayerCount: 2
Fore
SplineSet
610 626 m 2
 584 503 l 2
 584 500 578 498 572 497 c 0
 558 496 563 514 563 521 c 0
 563 593 539 616 464 616 c 2
 342 616 l 2
 339 616 324 616 319 602 c 1
 314 604 262 363 262 363 c 2
 260 353 264 345 276 345 c 0
 296 344 379 345 414 345 c 0
 465 346 487 363 514 414 c 0
 516 419 544 431 537 405 c 0
 522 352 504 266 499 227 c 0
 497 215 476 217 476 225 c 0
 476 293 458 311 400 311 c 2
 264 311 l 2
 260 311 251 307 249 297 c 2
 210 112 l 2
 198 53 201 27 274 27 c 0
 286 30 304 29 303 12 c 0
 302 6 299 -1 289 -2 c 0
 220 -1 93 -1 17 -2 c 0
 2 -2 8 27 21 25 c 2
 32 25 l 2
 85 25 105 41 120 113 c 2
 209 532 l 2
 214 555 215 564 215 573 c 0
 215 601 191 617 150 617 c 2
 133 617 l 2
 120 617 124 648 143 646 c 0
 256 645 444 645 582 646 c 0
 594 646 614 645 610 626 c 2
EndSplineSet
EndChar

StartChar: G
Encoding: 71 71 60
Width: 747
Flags: MW
HStem: -18 30<322 442.5 322 453.5> 632 30<386.5 526.5 362.5 547>
VStem: 61 98<189.5 372 189.5 389>
LayerCount: 2
Fore
SplineSet
763 242 m 0
 772 241 768 216 760 215 c 0
 756 215 751 215 747 215 c 0
 672 206 679 168 665 108 c 0
 656 73 649 43 696 41 c 0
 701 39 704 22 692 19 c 0
 607 -3 498 -18 409 -18 c 0
 230 -18 61 87 61 284 c 0
 61 494 236 662 489 662 c 0
 564 662 642 645 722 616 c 0
 726 615 731 608 733 595 c 2
 737 474 l 2
 740 461 716 461 714 468 c 0
 688 572 609 632 485 632 c 0
 288 632 159 473 159 271 c 0
 159 108 232 12 412 12 c 0
 473 12 534 28 557 51 c 0
 577 70 591 142 591 171 c 0
 591 206 576 210 531 215 c 2
 522 216 l 2
 507 218 517 242 526 242 c 0
 601 240 704 240 763 242 c 0
EndSplineSet
EndChar

StartChar: H
Encoding: 72 72 61
Width: 773
Flags: MW
HStem: -2 27<-5 -2 -2 15 15 44.5 266 272> 308 38<253 584 265 572> 621 25<573 615 805 831>
LayerCount: 2
Fore
SplineSet
842 632 m 0
 840 627 834 622 831 621 c 0
 823 621 813 622 805 621 c 0
 758 617 741 596 725 519 c 2
 639 112 l 2
 628 62 630 29 693 24 c 0
 705 23 728 30 728 12 c 0
 728 1 720 0 712 -2 c 0
 644 1 506 1 438 -2 c 0
 427 -2 424 3 425 10 c 0
 426 18 432 23 440 24 c 0
 453 26 464 24 474 25 c 0
 520 30 536 52 549 113 c 2
 585 285 l 2
 589 302 580 308 572 308 c 2
 258 308 l 2
 248 308 242 305 240 295 c 2
 201 112 l 2
 189 55 192 24 266 25 c 0
 278 25 299 29 297 11 c 0
 295 0 289 -3 282 -2 c 0
 211 -1 72 1 -2 -2 c 0
 -13 -2 -16 5 -15 11 c 0
 -14 19 -9 25 -5 25 c 2
 15 25 l 2
 74 25 97 45 114 125 c 2
 200 533 l 2
 205 555 207 568 207 577 c 0
 207 606 187 620 145 620 c 2
 112 620 l 2
 109 621 104 626 105 631 c 0
 105 638 110 646 117 646 c 0
 186 643 326 643 400 646 c 0
 412 646 415 640 414 634 c 0
 411 616 404 620 387 620 c 0
 324 620 304 605 289 532 c 2
 254 363 l 2
 250 354 257 346 265 346 c 2
 584 346 l 2
 592 346 601 354 602 361 c 2
 638 533 l 2
 649 584 651 621 579 621 c 0
 567 621 557 619 558 634 c 0
 558 641 563 646 570 646 c 0
 640 643 774 642 834 646 c 0
 840 646 844 641 842 632 c 0
EndSplineSet
EndChar

StartChar: I
Encoding: 73 73 62
Width: 356
Flags: MW
HStem: -2 27<26.5 39 36.5 39 36.5 301> 619 27
LayerCount: 2
Fore
SplineSet
426 631 m 0
 423 622 417 617 408 620 c 0
 344 616 329 605 314 532 c 2
 225 112 l 2
 210 43 228 22 303 23 c 0
 311 23 314 16 313 9 c 0
 311 4 305 -1 301 -2 c 0
 231 0 95 2 30 -2 c 0
 23 -2 21 6 23 13 c 0
 25 19 34 25 39 25 c 0
 108 24 122 50 135 113 c 2
 224 533 l 2
 236 589 238 614 166 619 c 0
 155 618 138 618 144 635 c 0
 146 642 151 646 160 646 c 0
 224 643 352 643 421 646 c 0
 429 646 429 638 426 631 c 0
EndSplineSet
EndChar

StartChar: J
Encoding: 74 74 63
Width: 338
Flags: MW
HStem: -287 56<-131 0> 620 26
LayerCount: 2
Fore
SplineSet
414 631 m 0
 408 613 387 619 373 618 c 0
 328 613 313 594 301 532 c 2
 197 -15 l 2
 179 -112 155 -159 95 -208 c 0
 35 -258 -27 -287 -106 -287 c 0
 -156 -287 -177 -278 -177 -259 c 0
 -177 -251 -171 -232 -162 -220 c 0
 -154 -209 -139 -205 -127 -205 c 0
 -111 -205 -96 -215 -81 -220 c 0
 -62 -226 -45 -231 -25 -231 c 0
 25 -231 55 -206 73 -166 c 0
 80 -149 85 -134 92 -98 c 2
 211 533 l 2
 219 577 230 616 166 620 c 0
 155 621 144 620 132 621 c 0
 125 621 122 624 123 632 c 0
 124 640 127 646 136 646 c 0
 206 642 341 643 406 646 c 0
 413 646 417 642 414 631 c 0
EndSplineSet
EndChar

StartChar: K
Encoding: 75 75 64
Width: 710
Flags: MW
HStem: -3 25<242.5 285 242.5 291> 620 25<154 417 154 417 401 401.5 401 412 567 582 794 794>
LayerCount: 2
Fore
SplineSet
810 640 m 0
 811 633 806 623 802 622 c 0
 797 621 799 622 794 620 c 2
 753 612 l 2
 711 604 651 578 570 517 c 2
 570 517 450 428 372 368 c 0
 361 360 366 353 369 349 c 2
 578 88 l 2
 619 36 656 24 704 24 c 2
 711 24 l 2
 721 24 715 -3 705 -3 c 0
 666 -1 601 -1 556 -3 c 0
 546 -3 540 1 535 8 c 2
 291 313 l 1
 262 295 l 2
 257 291 254 289 252 279 c 2
 217 111 l 2
 205 54 200 22 285 22 c 0
 293 23 305 21 303 10 c 0
 301 2 300 0 291 -3 c 0
 219 -1 86 -1 20 -3 c 0
 10 -1 7 4 9 10 c 0
 15 29 32 22 46 23 c 0
 96 28 112 48 126 112 c 2
 216 532 l 2
 221 554 222 567 222 576 c 0
 222 605 204 620 161 620 c 2
 154 620 l 2
 145 619 146 645 162 645 c 0
 219 643 347 642 417 645 c 0
 431 645 424 620 412 620 c 2
 412 620 402 620 401 620 c 0
 339 619 320 604 305 531 c 2
 268 354 l 2
 266 346 269 338 283 348 c 0
 385 420 476 491 579 560 c 0
 589 567 608 580 608 596 c 0
 608 613 598 620 566 620 c 0
 558 620 553 620 556 632 c 0
 557 639 562 645 567 645 c 0
 645 641 723 643 801 645 c 0
 804 645 809 645 810 640 c 0
EndSplineSet
EndChar

StartChar: L
Encoding: 76 76 65
Width: 603
Flags: MW
HStem: -2 40 620 26<152.5 196 375 411>
LayerCount: 2
Fore
SplineSet
623 138 m 0
 609 106 594 53 580 18 c 0
 578 12 571 -2 554 -2 c 0
 417 -2 163 2 32 -1 c 0
 27 -2 17 -2 16 2 c 0
 12 17 24 25 30 26 c 0
 39 27 41 26 49 27 c 0
 98 30 118 53 133 127 c 2
 218 533 l 2
 230 588 233 620 159 620 c 0
 146 620 130 614 136 635 c 0
 138 640 141 646 145 646 c 0
 214 642 353 642 422 646 c 0
 429 646 431 636 430 631 c 0
 427 618 416 620 406 620 c 0
 344 620 324 605 309 532 c 2
 222 122 l 2
 213 79 211 39 270 38 c 0
 295 38 344 38 373 38 c 0
 433 39 475 47 513 68 c 0
 546 86 568 105 601 146 c 0
 607 154 627 152 623 138 c 0
EndSplineSet
EndChar

StartChar: M
Encoding: 77 77 66
Width: 883
Flags: MW
HStem: -2 25<773 814> 620 26
LayerCount: 2
Fore
SplineSet
956 641 m 0
 957 636 955 620 946 621 c 2
 939 621 l 2
 877 621 856 605 841 532 c 2
 752 112 l 2
 741 62 737 23 809 23 c 0
 820 23 832 25 827 9 c 0
 826 3 819 -3 814 -2 c 0
 716 3 607 -1 553 -2 c 0
 540 -3 546 24 556 24 c 0
 570 24 583 24 596 26 c 0
 636 33 651 56 663 113 c 2
 755 537 l 2
 759 554 752 554 744 541 c 2
 402 1 l 1
 386 -9 360 -5 357 2 c 2
 283 536 l 2
 281 554 274 545 272 537 c 2
 153 129 l 2
 149 116 147 101 147 87 c 0
 147 45 169 26 220 22 c 0
 225 22 225 16 223 10 c 0
 222 2 218 -2 215 -2 c 0
 161 0 54 1 0 -2 c 0
 -5 -2 -7 5 -6 11 c 0
 -4 18 2 22 5 22 c 0
 42 27 67 41 84 62 c 0
 98 79 114 120 132 181 c 2
 232 524 l 2
 248 578 248 619 176 620 c 0
 161 620 155 620 146 622 c 0
 139 626 143 648 156 645 c 0
 202 644 287 644 333 646 c 0
 343 647 352 644 352 637 c 2
 422 139 l 2
 424 131 430 119 436 130 c 2
 770 638 l 2
 774 645 781 646 789 646 c 0
 825 645 902 644 943 646 c 0
 951 646 955 645 956 641 c 0
EndSplineSet
EndChar

StartChar: N
Encoding: 78 78 67
Width: 789
Flags: MW
HStem: -2 21G<20 247> 623 23
LayerCount: 2
Fore
SplineSet
856 646 m 0
 870 647 859 624 851 624 c 0
 788 615 760 586 745 515 c 2
 634 -11 l 2
 633 -16 609 -18 603 -11 c 2
 260 526 l 2
 251 537 247 532 245 522 c 2
 171 141 l 2
 159 77 165 35 242 25 c 0
 254 25 258 24 256 11 c 0
 255 4 252 -2 247 -2 c 0
 190 0 77 1 20 -2 c 0
 7 -3 11 23 23 22 c 0
 89 31 112 55 128 136 c 2
 219 587 l 1
 196 618 164 616 130 621 c 0
 122 623 122 628 123 635 c 0
 124 643 131 646 134 646 c 0
 171 644 220 645 251 646 c 0
 272 646 280 643 283 638 c 2
 611 133 l 2
 620 119 627 124 630 133 c 2
 711 515 l 2
 726 587 711 617 628 623 c 0
 625 623 623 629 623 635 c 0
 624 642 629 646 633 646 c 0
 680 645 787 644 856 646 c 0
EndSplineSet
EndChar

StartChar: O
Encoding: 79 79 68
Width: 819
Flags: MW
HStem: -18 31<387 387> 631 31<443.5 481>
VStem: 88 94<200.5 315.5 185.5 389> 688 94<282.5 443.5 254 460.5>
LayerCount: 2
Fore
SplineSet
782 358 m 0
 782 150 606 -18 387 -18 c 0
 211 -18 88 114 88 287 c 0
 88 491 267 662 480 662 c 0
 656 662 782 529 782 358 c 0
688 389 m 0
 688 532 609 632 481 631 c 0
 406 631 342 605 295 555 c 0
 226 482 182 369 182 262 c 0
 182 109 256 14 387 13 c 0
 556 12 688 176 688 389 c 0
EndSplineSet
EndChar

StartChar: P
Encoding: 80 80 69
Width: 564
Flags: W
HStem: -2 26<207 250 207 252> 619 27 627 20G<107 111>
VStem: 495 94<458.5 495.5 419 511.5>
LayerCount: 2
Fore
SplineSet
589 467 m 0xd0
 589 371 515 286 413 262 c 0
 373 253 304 245 262 254 c 0
 249 260 256 277 266 276 c 0
 340 267 415 294 456 355 c 0
 481 392 495 436 495 481 c 0
 495 542 466 589 421 604 c 0
 381 617 339 614 297 614 c 0
 288 614 280 611 277 598 c 2
 175 112 l 2
 163 53 171 24 243 24 c 0
 257 24 269 26 262 8 c 0
 260 3 256 -2 252 -2 c 0
 184 1 53 2 -12 -2 c 0
 -17 -2 -20 4 -19 10 c 0
 -17 18 -13 23 -10 23 c 0
 51 26 71 45 88 125 c 2
 173 527 l 2
 183 575 193 619 104 619 c 0xd0
 94 621 94 627 95 633 c 0
 97 645 103 647 111 647 c 0xb0
 171 645 278 646 332 646 c 0
 429 646 474 637 520 604 c 0
 565 572 589 524 589 467 c 0xd0
EndSplineSet
EndChar

StartChar: Q
Encoding: 81 81 70
Width: 798
Flags: MW
HStem: -202 21G<608 691> 633 29<427.5 533>
VStem: 62 99<217 315 185 387.5> 679 99<282 444.5 270 460>
LayerCount: 2
Fore
SplineSet
784 -156 m 0
 751 -184 719 -202 663 -202 c 0
 553 -202 426 -89 337 -31 c 0
 332 -27 311 -12 305 -11 c 0
 165 19 62 147 62 287 c 0
 62 488 239 662 458 662 c 0
 648 662 778 531 778 358 c 0
 778 182 661 25 474 -11 c 0
 469 -12 461 -15 468 -21 c 0
 473 -24 481 -29 494 -38 c 0
 527 -61 629 -134 670 -145 c 0
 714 -156 739 -153 768 -139 c 0
 778 -131 790 -151 784 -156 c 0
679 388 m 0
 679 532 599 633 467 633 c 0
 388 633 329 606 278 555 c 0
 206 482 161 369 161 261 c 0
 161 109 248 11 387 11 c 0
 565 11 679 176 679 388 c 0
EndSplineSet
EndChar

StartChar: R
Encoding: 82 82 71
Width: 624
Flags: W
HStem: -12 36 -2 21G<6 285> 278 30<268 272.5> 619 27 627 20G<144 147>
LayerCount: 2
Fore
SplineSet
657 -4 m 0xb0
 649 -7 635 -12 622 -12 c 0xb0
 527 -12 467 2 413 86 c 0
 392 120 381 159 366 195 c 0
 344 247 341 253 327 281 c 1
 302 279 284 278 261 278 c 0
 253 278 247 271 245 263 c 2
 214 112 l 2
 202 53 207 23 282 23 c 0
 299 23 305 22 300 5 c 0
 299 1 293 -2 285 -2 c 0
 207 1 59 1 6 -2 c 0x70
 -7 -3 2 25 12 24 c 2
 20 24 l 2
 88 24 107 40 123 113 c 2
 213 533 l 2
 224 584 221 619 153 619 c 0xb0
 142 619 127 619 130 633 c 0
 132 645 141 647 147 647 c 0xa8
 215 644 344 646 411 646 c 0
 528 645 607 583 607 486 c 0
 607 392 535 322 422 298 c 0
 417 297 413 294 417 288 c 0
 426 275 433 262 440 248 c 0
 455 214 470 181 487 147 c 0
 513 96 537 71 569 46 c 0
 594 26 625 15 656 15 c 0
 666 15 662 -2 657 -4 c 0xb0
474 585 m 0
 437 615 385 615 341 615 c 0
 326 615 317 603 316 597 c 2
 257 318 l 2
 256 314 264 308 272 308 c 0
 323 308 340 309 364 316 c 0
 387 322 408 334 428 346 c 0
 503 390 550 524 474 585 c 0
EndSplineSet
EndChar

StartChar: S
Encoding: 83 83 72
Width: 517
Flags: MW
HStem: -18 30<200.5 289 183.5 308> 623 30<287 350.5 269.5 374>
VStem: 68 60 128 72<474.5 531> 200 195 395 76<113.5 191.5 113.5 201.5>
LayerCount: 2
Fore
SplineSet
510 646 m 0xfc
 506 625 493 535 487 476 c 0
 487 471 480 470 475 470 c 0
 470 470 463 471 463 476 c 0
 463 571 420 623 328 623 c 0
 246 623 200 582 200 523 c 0
 200 426 348 361 413 296 c 0
 446 263 471 215 471 168 c 0
 471 59 380 -18 236 -18 c 0
 165 -18 89 5 19 45 c 0
 14 48 14 64 15 69 c 2
 47 196 l 2
 50 209 71 207 69 195 c 0
 69 183 68 179 68 172 c 0
 68 72 127 12 240 12 c 0
 338 12 395 60 395 131 c 0
 395 272 128 310 128 484 c 0
 128 578 211 653 328 653 c 0
 373 653 412 633 453 633 c 0
 465 633 476 638 485 647 c 0
 487 651 494 653 500 652 c 0
 506 651 511 649 510 646 c 0xfc
EndSplineSet
EndChar

StartChar: T
Encoding: 84 84 73
Width: 630
Flags: W
HStem: -2 29 612 34<229 254 254 349 468 597 468 468> 659 20G<117 121.5> 660 20G<722 726.5>
LayerCount: 2
Fore
SplineSet
734 674 m 0xd0
 723 638 706 551 699 504 c 0
 696 495 676 494 675 504 c 0
 675 520 675 535 674 548 c 0
 672 561 670 573 665 583 c 0
 656 602 637 612 597 612 c 2
 468 612 l 2
 460 611 453 604 451 596 c 2
 349 112 l 2
 336 49 346 31 398 27 c 0
 409 26 424 26 439 26 c 0
 444 26 447 19 446 13 c 0
 445 5 439 -2 434 -2 c 0
 361 0 214 0 138 -2 c 0
 125 -2 133 26 146 26 c 0
 160 26 168 26 178 27 c 0
 231 30 244 48 258 113 c 2
 362 591 l 2
 366 611 353 612 349 612 c 2
 254 612 l 2
 204 612 174 608 150 589 c 0
 125 569 114 547 94 502 c 0
 93 499 86 494 80 495 c 0
 74 497 70 503 72 507 c 0
 83 549 103 634 108 674 c 0
 109 677 114 679 120 679 c 0xe0
 123 679 129 679 130 674 c 0
 148 651 160 646 200 646 c 2
 599 646 l 2
 672 646 686 650 712 675 c 0
 714 678 720 680 724 680 c 0
 729 680 735 677 734 674 c 0xd0
EndSplineSet
EndChar

StartChar: U
Encoding: 85 85 74
Width: 740
Flags: MW
HStem: -18 30<295 392.5> 621 26<65.5 339 73 85>
LayerCount: 2
Fore
SplineSet
804 633 m 0
 802 625 796 620 790 621 c 0
 732 614 708 602 691 510 c 2
 640 236 l 2
 629 175 618 147 595 109 c 0
 539 17 447 -18 338 -18 c 0
 220 -18 152 15 107 83 c 0
 66 146 74 202 88 270 c 2
 143 528 l 2
 154 580 157 621 85 621 c 2
 68 621 l 2
 63 621 58 630 59 636 c 0
 61 643 68 648 73 647 c 0
 136 644 268 644 339 647 c 0
 347 647 352 640 351 634 c 0
 351 621 344 619 333 620 c 0
 265 623 251 609 235 532 c 2
 178 266 l 2
 170 228 166 194 166 167 c 0
 166 74 235 12 355 12 c 0
 518 12 579 110 605 246 c 2
 656 517 l 2
 670 593 651 621 568 621 c 0
 562 621 562 628 563 635 c 0
 565 643 569 648 573 647 c 0
 621 646 721 642 795 648 c 0
 803 649 804 639 804 633 c 0
EndSplineSet
EndChar

StartChar: V
Encoding: 86 86 75
Width: 639
Flags: MW
HStem: -22 21G<118.5 129> 620 27<64 65 60 323 315 322>
VStem: 119 89
LayerCount: 2
Fore
SplineSet
738 647 m 0
 747 647 745 623 733 622 c 0
 689 608 660 579 617 529 c 2
 148 -16 l 2
 146 -19 135 -22 123 -22 c 0
 114 -22 106 -14 106 -5 c 2
 133 533 l 2
 136 587 128 620 65 620 c 2
 60 620 l 2
 50 618 53 647 64 647 c 0
 180 644 257 644 323 647 c 0
 332 647 329 620 315 620 c 0
 305 619 287 622 272 619 c 0
 236 613 224 582 221 533 c 2
 196 113 l 2
 195 98 197 90 211 107 c 2
 559 517 l 2
 591 554 599 570 599 587 c 0
 599 618 575 618 553 619 c 0
 545 620 542 620 535 622 c 0
 529 622 526 628 526 635 c 0
 527 643 532 647 537 647 c 0
 617 645 662 645 738 647 c 0
EndSplineSet
EndChar

StartChar: W
Encoding: 87 87 76
Width: 892
Flags: W
HStem: -15 21G<112 115.5 494 503> 620 27<295 297 670 673.5 815 819>
VStem: 481 92 498 74 498 90<538 538 538 563 538 586.5>
LayerCount: 2
Fore
SplineSet
1015 635 m 0xe0
 1014 628 1010 622 1006 622 c 0
 973 614 947 593 906 536 c 2
 518 -3 l 2
 515 -7 509 -15 497 -15 c 0
 491 -15 481 -16 477 -14 c 0
 472 -12 465 -10 465 -5 c 2
 497 449 l 2
 497 454 497 467 487 457 c 2
 127 -5 l 2
 125 -7 119 -15 112 -15 c 0
 108 -16 94 -17 90 -16 c 0
 84 -14 78 -12 79 -6 c 2
 125 542 l 2
 126 549 126 555 126 561 c 0
 126 611 109 617 89 618 c 0
 80 618 64 619 55 621 c 0
 48 621 44 627 46 636 c 0
 47 641 52 647 58 647 c 0
 114 645 232 645 297 647 c 0
 304 648 307 640 306 633 c 0
 305 627 299 620 295 620 c 0
 227 612 219 600 211 525 c 2
 170 130 l 2
 168 115 169 104 183 122 c 2
 498 526 l 1
 498 563 l 2
 498 610 486 618 423 620 c 0
 412 619 417 647 425 647 c 0
 485 645 610 645 675 647 c 0
 686 647 677 620 670 620 c 0
 595 612 593 607 588 538 c 2xc8
 559 130 l 2
 558 116 561 108 572 124 c 2xd0
 851 520 l 2
 868 544 902 601 855 616 c 0
 841 620 826 620 812 620 c 0
 806 620 802 628 803 634 c 0
 805 643 811 647 815 647 c 0
 856 646 944 643 1011 647 c 0
 1017 647 1017 640 1015 635 c 0xe0
EndSplineSet
EndChar

StartChar: X
Encoding: 88 88 77
Width: 704
Flags: W
HStem: -2 21G<450 702> -1 22 622 24<125 409 410 412>
LayerCount: 2
Fore
SplineSet
788 637 m 0x60
 787 630 782 624 778 624 c 0
 717 616 673 597 619 541 c 2
 457 374 l 2
 453 371 452 362 454 358 c 2
 591 105 l 2
 628 37 643 28 706 19 c 0
 715 18 707 -2 702 -2 c 0
 635 0 511 0 450 -2 c 0xa0
 436 -3 436 7 437 12 c 0
 438 16 442 22 446 21 c 0
 502 23 535 27 507 80 c 2
 398 285 l 2
 392 294 385 302 377 293 c 2
 199 114 l 2
 132 47 160 26 237 21 c 0x60
 243 19 239 -3 232 -2 c 0xa0
 174 -1 64 2 -2 -1 c 0
 -13 -2 -13 3 -12 9 c 0
 -11 16 -8 22 -4 22 c 0
 78 33 75 34 130 89 c 2
 363 322 l 2
 367 328 369 333 367 342 c 2
 244 568 l 2
 221 610 196 620 127 622 c 0
 123 622 122 630 122 636 c 0
 124 643 131 646 133 646 c 0
 228 644 354 645 409 646 c 0
 415 646 419 640 418 634 c 0
 417 628 414 622 410 622 c 0
 352 621 337 615 337 593 c 0
 337 580 345 568 351 557 c 2
 428 404 l 2
 433 395 436 399 444 405 c 2
 582 548 l 2
 600 566 608 578 608 591 c 0
 608 612 592 620 535 622 c 0
 523 621 529 646 538 646 c 0
 605 644 703 643 778 646 c 0
 789 646 788 643 788 637 c 0x60
EndSplineSet
EndChar

StartChar: Y
Encoding: 89 89 78
Width: 639
Flags: MW
HStem: -2 30<441 445 441 464> 622 24<108 328 114 330.5>
LayerCount: 2
Fore
SplineSet
762 638 m 0
 760 629 757 626 756 625 c 0
 714 609 701 602 660 554 c 2
 406 262 l 1
 375 112 l 2
 362 50 369 26 441 28 c 0
 449 28 462 29 469 27 c 0
 479 25 469 -2 464 -2 c 0
 388 0 248 0 162 -2 c 0
 153 0 160 26 170 27 c 0
 193 28 230 28 250 41 c 0
 266 52 276 72 285 113 c 2
 317 263 l 1
 191 550 l 2
 166 608 149 620 113 622 c 0
 103 622 101 625 103 635 c 0
 104 641 108 646 114 646 c 0
 176 643 276 644 328 646 c 0
 334 645 338 642 335 634 c 0
 334 629 332 622 329 622 c 0
 270 617 259 615 288 548 c 2
 390 315 l 2
 393 307 393 299 406 315 c 2
 590 529 l 2
 620 564 629 575 629 590 c 0
 629 610 610 620 567 622 c 0
 558 624 565 648 575 646 c 0
 638 643 689 642 752 646 c 0
 757 646 763 643 762 638 c 0
EndSplineSet
EndChar

StartChar: Z
Encoding: 90 90 79
Width: 687
Flags: MW
HStem: -2 34<148 411 411 444.5 148 584> 613 33<335 386 386 580>
LayerCount: 2
Fore
SplineSet
727 622 m 1
 578 479 299 201 142 44 c 0
 133 35 135 34 148 32 c 2
 411 32 l 2
 478 32 514 44 549 75 c 0
 578 101 600 131 630 181 c 0
 634 184 642 187 646 186 c 0
 652 184 653 181 651 174 c 0
 640 141 618 58 607 17 c 0
 604 4 593 -2 584 -2 c 0
 433 0 163 0 3 -2 c 0
 -3 0 0 19 2 21 c 0
 150 165 416 431 586 600 c 0
 600 613 590 613 580 613 c 2
 386 613 l 2
 284 613 229 574 190 471 c 0
 189 468 182 467 177 466 c 0
 172 466 165 467 165 472 c 0
 175 510 202 597 206 634 c 0
 208 643 220 646 226 646 c 0
 352 644 582 645 710 646 c 0
 730 648 731 638 727 622 c 1
EndSplineSet
EndChar

StartChar: bracketleft
Encoding: 91 91 80
Width: 307
Flags: MW
HStem: -228 21<185 253> 659 22<322.5 336 336 429>
LayerCount: 2
Fore
SplineSet
434 681 m 1
 429 659 l 1
 336 659 l 2
 309 659 301 651 295 622 c 2
 138 -168 l 2
 136 -176 135 -183 135 -187 c 0
 135 -200 146 -207 185 -207 c 2
 257 -207 l 1
 253 -228 l 1
 59 -228 l 1
 240 681 l 1
 434 681 l 1
EndSplineSet
EndChar

StartChar: backslash
Encoding: 92 92 81
Width: 223
Flags: MW
HStem: -16 21G<163 231 163 163> 642 20G<74 142 142 142>
LayerCount: 2
Fore
SplineSet
231 -16 m 1
 163 -16 l 1
 74 662 l 1
 142 662 l 1
 231 -16 l 1
EndSplineSet
EndChar

StartChar: bracketright
Encoding: 93 93 82
Width: 307
Flags: MW
HStem: -228 22<-37 57 57 70.5 -37 153 -41 57> 660 21<140 207 136 335>
LayerCount: 2
Fore
SplineSet
335 681 m 1
 153 -228 l 1
 -41 -228 l 1
 -37 -206 l 1
 57 -206 l 2
 84 -206 93 -198 99 -168 c 2
 256 621 l 2
 257 628 258 637 258 641 c 0
 258 654 247 660 207 660 c 2
 136 660 l 1
 140 681 l 1
 335 681 l 1
EndSplineSet
EndChar

StartChar: asciicircum
Encoding: 94 94 83
Width: 434
Flags: MW
HStem: 334 21G<54 105 54 54 450 501 450 450> 680 20G<271 287 287 287>
LayerCount: 2
Fore
SplineSet
501 334 m 1
 450 334 l 1
 278 627 l 1
 105 334 l 1
 54 334 l 1
 271 700 l 1
 287 700 l 1
 501 334 l 1
EndSplineSet
EndChar

StartChar: underscore
Encoding: 95 95 84
Width: 509
Flags: W
HStem: -222 41<5.5 75.5 5.5 502 5 75.5> -200 20G
LayerCount: 2
Fore
SplineSet
517 -189 m 0x40
 521 -204 517 -194 516 -211 c 0
 514 -215 509 -223 502 -222 c 2
 5 -222 l 2
 -2 -223 -10 -219 -9 -209 c 0
 -9 -198 -7 -209 -6 -199 c 0
 -6 -193 -3 -181 14 -181 c 0x80
 137 -181 486 -183 503 -180 c 0
 510 -182 515 -183 517 -189 c 0x40
EndSplineSet
EndChar

StartChar: grave
Encoding: 193 96 85
Width: 339
Flags: MW
HStem: 494 21G<305 309.5> 637 20G<178 252 252 254.5>
LayerCount: 2
Fore
SplineSet
313 499 m 2
 314 496 312 494 307 494 c 0
 303 494 298 495 295 498 c 2
 172 644 l 2
 165 653 172 657 178 657 c 2
 252 657 l 2
 257 657 261 658 264 654 c 0
 264 653 265 652 265 651 c 2
 313 499 l 2
EndSplineSet
EndChar

StartChar: a
Encoding: 97 97 86
Width: 416
Flags: MW
HStem: -12 21G<82 117 272 292> 408 20G<386 387.5>
VStem: 37 67<96.5 148.5>
LayerCount: 2
Fore
SplineSet
396 83 m 0
 386 72 366 49 345 28 c 0
 323 7 300 -12 284 -12 c 0
 260 -12 253 13 254 43 c 0
 255 66 259 88 264 110 c 0
 267 125 259 120 253 113 c 0
 230 89 135 -12 99 -12 c 0
 65 -12 37 41 37 97 c 0
 37 200 116 322 224 385 c 0
 277 416 327 427 386 428 c 0
 389 428 391 427 392 419 c 2
 333 120 l 2
 332 114 314 51 332 55 c 0
 343 57 365 80 373 89 c 0
 379 96 384 101 386 103 c 0
 395 112 404 96 396 83 c 0
313 357 m 2
 315 363 318 372 307 371 c 0
 261 366 228 352 199 332 c 0
 141 293 104 207 104 118 c 0
 104 75 119 46 135 46 c 0
 149 46 256 147 274 164 c 1
 313 357 l 2
EndSplineSet
EndChar

StartChar: b
Encoding: 98 98 87
Width: 415
Flags: MW
HStem: -12 26<143.5 219.5 143.5 238> 369 61<276.5 334.5>
LayerCount: 2
Fore
SplineSet
357 405 m 0
 444 255 315 -12 161 -12 c 0
 62 -12 53 68 68 143 c 0
 105 326 133 501 176 683 c 0
 177 687 177 694 171 694 c 0
 166 694 149 686 133 677 c 0
 113 668 115 690 124 695 c 2
 211 746 l 2
 247 767 258 762 251 727 c 2
 165 300 l 2
 162 286 168 286 174 292 c 0
 201 322 292 430 330 430 c 0
 339 430 349 419 357 405 c 0
317 264 m 0
 317 328 302 369 284 369 c 0
 269 369 241 344 216 317 c 0
 195 294 174 269 162 255 c 0
 153 245 157 251 154 236 c 2
 135 142 l 2
 127 101 112 14 175 14 c 0
 264 14 317 195 317 264 c 0
EndSplineSet
EndChar

StartChar: c
Encoding: 99 99 88
Width: 300
Flags: MW
HStem: -12 49<106 146.5> 354 75<277 278 194.5 295.5>
LayerCount: 2
Fore
SplineSet
316 389 m 0
 316 369 304 354 287 354 c 0
 267 354 255 362 238 372 c 0
 226 378 219 380 211 380 c 0
 189 380 168 358 148 309 c 0
 128 258 53 37 159 37 c 0
 189 37 226 60 259 99 c 0
 260 103 270 101 273 97 c 0
 280 92 282 86 280 81 c 0
 230 22 169 -12 124 -12 c 0
 71 -12 35 32 35 98 c 0
 35 212 127 429 262 429 c 0
 294 429 316 414 316 389 c 0
EndSplineSet
EndChar

StartChar: d
Encoding: 100 100 89
Width: 450
Flags: MW
HStem: -12 54<91 160>
VStem: 49 68<95.5 153.5 95.5 167.5> 117 144<11 153.5>
LayerCount: 2
Fore
SplineSet
458 724 m 2xe0
 335 76 l 2
 334 71 330 53 338 53 c 0
 346 53 367 73 396 114 c 0
 398 117 402 117 406 114 c 0
 410 110 415 105 410 97 c 0
 371 37 313 -12 284 -12 c 0
 269 -12 261 1 261 21 c 0
 261 60 275 92 279 127 c 0
 281 148 272 130 269 125 c 0
 203 41 140 -12 109 -12 c 0
 73 -12 49 42 49 114 c 0
 49 221 110 334 203 402 c 0
 240 430 289 444 323 408 c 0
 329 401 335 415 337 426 c 2
 386 678 l 2
 390 700 384 696 370 689 c 0
 353 680 336 669 319 660 c 0
 313 656 309 659 307 667 c 0
 306 675 308 683 314 685 c 2
 421 744 l 2
 439 754 466 764 458 724 c 2xe0
319 337 m 1
 305 375 282 397 256 397 c 0
 230 397 204 373 176 325 c 0
 138 259 117 187 117 120 c 0
 117 71 130 42 149 42 c 0
 171 42 228 100 290 187 c 1
 319 337 l 1
EndSplineSet
EndChar

StartChar: e
Encoding: 101 101 90
Width: 364
Flags: MW
HStem: -12 44 399 32
VStem: 38 70<97.5 136.5 97.5 207.5> 296 53
LayerCount: 2
Fore
SplineSet
349 358 m 0
 349 301 310 265 261 240 c 0
 237 227 210 218 184 210 c 0
 159 202 144 199 124 193 c 0
 115 189 113 184 113 181 c 0
 109 162 108 145 108 128 c 0
 108 67 141 31 187 32 c 0
 217 33 252 50 301 88 c 0
 307 93 312 91 314 85 c 0
 317 79 317 70 313 64 c 0
 252 12 185 -12 141 -12 c 0
 83 -12 38 51 38 132 c 0
 38 283 148 431 265 431 c 0
 317 431 349 404 349 358 c 0
296 346 m 0
 298 376 282 400 250 399 c 0
 215 398 187 380 170 349 c 0
 161 332 153 320 146 303 c 0
 139 287 133 269 126 237 c 0
 124 229 131 228 142 231 c 0
 177 239 204 247 236 263 c 0
 275 283 294 317 296 346 c 0
EndSplineSet
EndChar

StartChar: f
Encoding: 102 102 91
Width: 283
Flags: MW
HStem: -274 37<-123.5 -46> 378 39<210 262 201 273> 717 41<312.5 389>
LayerCount: 2
Fore
SplineSet
444 703 m 0
 443 679 421 673 401 675 c 0
 369 679 362 717 322 717 c 0
 303 717 280 702 266 680 c 0
 249 654 235 604 220 521 c 2
 203 425 l 2
 203 421 205 418 210 417 c 2
 273 417 l 2
 279 417 278 408 276 398 c 0
 272 387 266 378 262 378 c 2
 201 378 l 2
 196 377 196 376 193 371 c 2
 148 111 l 2
 128 -7 102 -162 -3 -238 c 0
 -33 -260 -66 -274 -102 -274 c 0
 -145 -274 -183 -245 -178 -219 c 0
 -173 -189 -155 -189 -137 -191 c 0
 -126 -192 -118 -200 -111 -206 c 0
 -97 -221 -84 -237 -61 -237 c 0
 -31 -237 1 -212 18 -179 c 0
 27 -162 34 -135 41 -102 c 0
 49 -68 57 -28 65 16 c 0
 88 133 106 252 125 365 c 0
 126 370 126 378 120 378 c 2
 67 378 l 2
 62 377 62 383 63 388 c 0
 64 396 68 402 72 402 c 0
 87 404 97 405 107 408 c 0
 115 410 123 413 134 416 c 1
 141 454 154 516 168 557 c 0
 188 617 206 653 233 685 c 0
 270 731 322 758 369 758 c 0
 409 758 445 732 444 703 c 0
EndSplineSet
EndChar

StartChar: g
Encoding: 103 103 92
Width: 398
Flags: MW
HStem: -275 21<72 159 72 173> 397 33
VStem: -83 63<-199 -175> 52 70<165.5 215 158 226.5> 291 72<261.5 292 249.5 323>
LayerCount: 2
Fore
SplineSet
405 391 m 0
 405 377 403 363 394 366 c 2
 352 371 l 2
 346 372 344 368 345 365 c 0
 358 330 363 306 363 278 c 0
 363 221 336 163 295 127 c 0
 267 103 212 69 175 52 c 0
 146 39 138 29 138 19 c 0
 138 4 154 -12 208 -48 c 0
 300 -110 331 -142 331 -173 c 0
 331 -233 236 -275 110 -275 c 0
 -1 -275 -83 -240 -83 -187 c 0
 -83 -163 -62 -138 -23 -112 c 0
 15 -86 56 -63 99 -40 c 1
 74 0 96 25 127 47 c 0
 129 48 132 52 127 55 c 0
 80 83 52 136 52 195 c 0
 52 258 101 334 165 387 c 0
 199 415 233 432 278 430 c 0
 316 428 376 421 393 421 c 0
 401 421 404 405 405 391 c 0
291 291 m 0
 291 355 267 397 232 397 c 0
 163 397 122 244 122 186 c 0
 122 130 151 85 184 85 c 0
 204 85 227 102 246 130 c 0
 275 172 291 232 291 291 c 0
270 -196 m 0
 270 -186 261 -173 237 -156 c 0
 196 -126 153 -92 117 -60 c 0
 114 -58 108 -59 106 -60 c 0
 20 -109 -20 -141 -20 -177 c 0
 -20 -221 33 -254 111 -254 c 0
 207 -254 270 -228 270 -196 c 0
EndSplineSet
EndChar

StartChar: h
Encoding: 104 104 93
Width: 457
Flags: W
HStem: -12 21G<280.5 318> -7 21G<52 96> 379 49<316 402> 735 20G<246.5 259>
LayerCount: 2
Fore
SplineSet
440 101 m 0x70
 392 37 333 -12 303 -12 c 0xb0
 258 -12 278 74 283 93 c 2
 336 301 l 2
 340 315 357 379 331 379 c 0
 301 379 177 208 150 169 c 1
 132 81 126 49 122 33 c 0
 118 14 120 -7 96 -7 c 0
 85 -7 75 -8 58 -7 c 0
 48 -8 50 8 52 14 c 2
 182 672 l 2
 183 676 188 690 179 690 c 0
 175 690 156 681 127 665 c 0
 122 661 119 663 117 670 c 0
 115 677 117 685 119 686 c 2
 220 744 l 2
 233 751 243 755 250 755 c 0
 268 755 263 743 263 732 c 2
 166 246 l 2
 162 227 168 233 173 241 c 0
 265 370 329 428 373 428 c 0
 431 428 411 331 404 302 c 2
 345 72 l 2
 343 66 336 47 348 47 c 0
 359 47 384 71 427 119 c 0
 435 126 444 107 440 101 c 0x70
EndSplineSet
EndChar

StartChar: i
Encoding: 105 105 94
Width: 255
Flags: MW
HStem: -11 21G<94 113.5> 429 97<176 196.5> 624 20G<205.5 216>
LayerCount: 2
Fore
SplineSet
239 588 m 0
 234 553 215 526 192 526 c 0
 160 526 165 568 170 589 c 0
 177 620 195 644 216 644 c 0
 245 643 242 609 239 588 c 0
222 88 m 0
 200 59 133 -11 94 -11 c 0
 53 -10 65 47 69 67 c 2
 122 321 l 2
 123 327 132 355 123 357 c 0
 118 358 105 348 93 335 c 0
 82 323 71 310 67 307 c 0
 61 299 48 319 56 329 c 0
 109 392 157 429 181 429 c 0
 212 429 202 386 198 368 c 2
 139 78 l 2
 136 62 131 50 146 51 c 0
 156 51 196 96 207 109 c 0
 211 115 216 114 220 107 c 0
 224 99 225 91 222 88 c 0
EndSplineSet
EndChar

StartChar: j
Encoding: 106 106 95
Width: 245
Flags: MW
HStem: -272 21G<-104.5 -55.5> 528 119
LayerCount: 2
Fore
SplineSet
259 585 m 0
 253 552 240 528 213 528 c 0
 182 529 183 568 187 590 c 0
 193 624 208 646 233 647 c 0
 272 648 263 606 259 585 c 0
207 341 m 2
 126 3 l 2
 108 -74 87 -132 45 -189 c 0
 13 -234 -27 -272 -84 -272 c 0
 -125 -272 -147 -242 -145 -220 c 0
 -143 -200 -131 -188 -111 -191 c 0
 -98 -193 -89 -201 -82 -210 c 0
 -76 -217 -70 -227 -63 -232 c 0
 -16 -265 11 -204 29 -136 c 0
 38 -104 40 -85 46 -60 c 2
 138 330 l 2
 140 337 142 347 134 350 c 0
 130 352 118 343 106 332 c 0
 96 322 86 311 82 307 c 0
 72 299 61 317 68 322 c 0
 119 387 166 421 191 421 c 0
 227 421 212 361 207 341 c 2
EndSplineSet
EndChar

StartChar: k
Encoding: 107 107 96
Width: 459
Flags: W
HStem: -10 21G -9 21G<55 61> 379 50<365 367>
VStem: 396 56
LayerCount: 2
Fore
SplineSet
452 343 m 0xb0
 459 255 395 201 235 206 c 1
 260 180 275 164 287 146 c 2
 310 112 l 2
 335 75 368 46 390 50 c 1
 405 64 421 82 432 94 c 0
 441 105 454 82 450 77 c 0
 426 46 391 9 367 -10 c 1
 351 -10 339 -7 327 2 c 0
 284 31 262 62 234 107 c 0
 205 152 186 178 168 197 c 0
 162 203 159 204 156 186 c 2
 122 10 l 2
 118 -11 114 -10 102 -10 c 0xb0
 88 -10 74 -10 61 -9 c 0x70
 49 -9 54 4 55 11 c 2
 189 679 l 2
 193 698 190 695 173 686 c 0
 162 680 151 673 140 667 c 0
 136 663 131 669 129 674 c 0
 125 681 126 688 132 690 c 2
 233 749 l 2
 253 761 275 769 267 732 c 2
 176 291 l 2
 173 277 170 270 186 286 c 0
 228 325 340 429 390 429 c 0
 423 429 449 387 452 343 c 0xb0
396 334 m 0
 396 356 379 379 355 379 c 0
 328 379 243 315 164 233 c 0
 162 230 168 227 169 225 c 0
 193 224 215 226 241 225 c 0
 267 224 293 227 316 233 c 0
 363 244 397 270 396 334 c 0
EndSplineSet
EndChar

StartChar: l
Encoding: 108 108 97
Width: 256
Flags: MW
HStem: -13 21G<77.5 114>
LayerCount: 2
Fore
SplineSet
264 724 m 2
 132 61 l 2
 128 43 128 35 137 35 c 0
 147 35 170 52 209 96 c 0
 210 99 218 100 222 96 c 0
 227 92 225 85 223 80 c 0
 173 21 129 -13 99 -13 c 0
 56 -13 60 34 68 74 c 2
 187 672 l 2
 191 691 186 691 181 691 c 0
 177 691 158 681 126 663 c 0
 119 661 111 661 109 669 c 0
 107 676 110 683 115 684 c 2
 212 741 l 2
 238 756 274 776 264 724 c 2
EndSplineSet
EndChar

StartChar: m
Encoding: 109 109 98
Width: 674
Flags: W
HStem: -12 21G -11 21G<286 341> -10 21G<103 115> 375 51 408 20G<173.5 196.5 344 390>
LayerCount: 2
Fore
SplineSet
642 119 m 0x50
 645 113 643 103 641 100 c 0
 593 33 537 -12 511 -12 c 0x90
 476 -12 484 28 488 48 c 0
 510 157 527 244 547 349 c 0
 552 372 550 376 538 376 c 0
 508 376 410 223 391 190 c 0
 375 163 367 138 362 115 c 2
 341 10 l 2
 338 -3 333 -11 325 -11 c 0
 308 -11 298 -11 286 -11 c 0x50
 269 -11 272 -2 274 9 c 2x90
 341 348 l 2
 343 356 345 375 336 375 c 0
 294 375 192 219 172 186 c 0
 157 160 150 126 141 84 c 0
 136 59 133 32 127 7 c 0
 124 -5 122 -10 108 -10 c 0x30
 98 -10 85 -11 75 -11 c 0x50
 61 -11 56 -6 59 9 c 2
 123 332 l 2
 124 336 128 352 121 352 c 0
 113 352 82 317 75 307 c 0
 71 302 69 300 64 293 c 0
 59 288 42 286 47 303 c 1
 91 371 162 428 185 428 c 0
 208 428 204 399 202 388 c 2
 172 238 l 2
 170 227 173 227 176 233 c 0
 203 272 307 428 381 428 c 0x88
 399 428 411 410 411 382 c 0
 411 333 400 297 391 250 c 0
 388 234 388 226 394 235 c 0
 419 272 505 426 589 426 c 0
 631 426 618 362 614 340 c 2
 558 66 l 2
 551 31 593 77 596 81 c 0
 609 96 622 112 626 117 c 0
 631 123 638 124 642 119 c 0x50
EndSplineSet
EndChar

StartChar: n
Encoding: 110 110 99
Width: 469
Flags: W
HStem: -12 21G -11 21G<61.5 67 67 95> 374 55<344.5 349.5>
LayerCount: 2
Fore
SplineSet
449 123 m 0xa0
 459 111 452 105 444 94 c 0
 395 27 341 -12 310 -12 c 0xa0
 273 -12 275 33 283 66 c 2
 348 326 l 2
 351 338 361 374 338 374 c 0
 296 374 176 199 148 160 c 1
 117 8 l 2
 114 -9 111 -11 95 -11 c 2
 67 -11 l 2x60
 56 -11 46 -6 51 9 c 2
 115 330 l 2
 115 333 118 348 108 342 c 0
 100 337 66 292 60 283 c 0
 57 280 50 281 49 284 c 0
 46 290 45 299 49 304 c 0
 69 331 146 431 177 429 c 0
 195 428 197 405 192 378 c 0
 182 326 172 275 161 224 c 0
 158 211 158 211 166 221 c 0
 206 272 310 429 379 429 c 0
 406 429 421 405 421 367 c 0
 421 349 418 326 413 306 c 2
 353 75 l 2
 351 68 340 37 351 34 c 0
 357 32 378 52 397 73 c 0
 412 90 428 109 435 118 c 0
 441 125 446 126 449 123 c 0xa0
EndSplineSet
EndChar

StartChar: o
Encoding: 111 111 100
Width: 398
Flags: MW
HStem: -12 42<108.5 209> 385 44<197 301.5>
VStem: 38 71<117 198> 305 69<243 296.5>
LayerCount: 2
Fore
SplineSet
374 274 m 0
 374 212 355 154 319 107 c 0
 289 68 236 25 187 4 c 0
 165 -6 145 -12 131 -12 c 0
 86 -12 38 68 38 155 c 0
 38 241 89 326 175 385 c 0
 213 411 254 429 279 429 c 0
 324 429 374 356 374 274 c 0
305 261 m 0
 305 332 270 385 228 385 c 0
 166 385 109 275 109 151 c 0
 109 83 140 30 176 30 c 0
 242 30 305 139 305 261 c 0
EndSplineSet
EndChar

StartChar: p
Encoding: 112 112 101
Width: 445
Flags: W
HStem: -274 23<-62 175> 373 55<314.5 318.5> 409 20G<173.5 194>
VStem: 206 140<206 408> 346 68<209 301.5>
LayerCount: 2
Fore
SplineSet
414 276 m 0xd8
 414 142 284 -50 135 -5 c 0
 131 -3 129 -11 129 -14 c 0
 117 -67 104 -123 93 -177 c 0
 80 -245 98 -248 171 -251 c 0
 179 -251 177 -275 162 -274 c 0
 94 -271 -14 -272 -62 -274 c 0
 -69 -274 -66 -260 -63 -255 c 0
 -59 -249 -48 -250 -40 -249 c 0
 15 -242 19 -216 27 -175 c 0
 59 -13 93 146 127 309 c 0
 128 314 137 352 129 352 c 0
 119 352 102 336 88 320 c 0
 73 303 59 285 53 278 c 0
 48 271 30 283 40 298 c 0
 92 375 160 429 187 429 c 0xb8
 201 429 206 418 206 398 c 0
 206 366 199 333 193 302 c 0
 187 269 193 281 200 292 c 0
 230 334 285 428 344 428 c 0
 394 428 414 335 414 276 c 0xd8
346 272 m 0
 346 331 330 373 307 373 c 0xd8
 293 373 271 347 246 314 c 0
 222 282 196 244 176 213 c 1
 143 50 l 2
 143 41 143 35 149 31 c 0
 158 25 173 17 185 17 c 0
 267 17 346 140 346 272 c 0
EndSplineSet
EndChar

StartChar: q
Encoding: 113 113 102
Width: 426
Flags: MW
HStem: -12 57<97 165> 370 59<323 395.5>
VStem: 52 69<96 137.5>
LayerCount: 2
Fore
SplineSet
407 405 m 2
 293 -150 l 2
 289 -171 282 -193 282 -215 c 0
 282 -256 322 -250 352 -250 c 0
 358 -249 362 -254 360 -262 c 0
 359 -270 353 -276 346 -274 c 0
 255 -272 202 -272 123 -274 c 0
 111 -272 120 -247 131 -250 c 1
 199 -243 209 -236 218 -190 c 0
 222 -170 231 -125 277 93 c 0
 279 100 284 127 276 117 c 0
 248 83 155 -12 114 -12 c 0
 80 -12 52 45 52 106 c 0
 52 169 81 236 135 299 c 0
 200 377 286 429 388 429 c 0
 403 429 411 423 407 405 c 2
330 356 m 2
 332 368 327 370 323 370 c 0
 269 367 237 354 209 331 c 0
 156 288 121 203 121 122 c 0
 121 70 133 45 155 45 c 0
 175 45 213 82 294 170 c 1
 330 356 l 2
EndSplineSet
EndChar

StartChar: r
Encoding: 114 114 103
Width: 323
Flags: MW
HStem: -12 21G<63 75.5 70 97> 408 20G<149 167.5 271.5 312>
LayerCount: 2
Fore
SplineSet
341 395 m 0
 344 355 330 331 300 341 c 0
 294 343 288 345 282 347 c 0
 249 342 225 307 204 266 c 0
 182 221 165 170 155 144 c 0
 136 95 131 56 119 6 c 0
 117 -4 111 -12 97 -12 c 0
 87 -12 81 -12 70 -12 c 0
 56 -12 56 0 58 11 c 2
 111 325 l 2
 113 338 111 352 104 352 c 0
 95 352 59 306 55 300 c 0
 49 294 42 292 39 296 c 0
 36 300 34 308 40 314 c 0
 103 392 138 428 160 428 c 0
 175 428 180 416 181 399 c 0
 182 384 179 369 177 354 c 0
 172 319 166 288 161 264 c 0
 158 248 155 233 151 218 c 0
 143 185 143 174 155 208 c 0
 178 271 239 428 304 428 c 0
 320 428 339 420 341 395 c 0
EndSplineSet
EndChar

StartChar: s
Encoding: 115 115 104
Width: 320
Flags: MW
HStem: -12 37<69 173> 394 35<190 255>
LayerCount: 2
Fore
SplineSet
313 359 m 0
 313 340 300 324 283 324 c 0
 272 324 262 332 255 345 c 0
 245 362 226 394 204 394 c 0
 176 394 143 354 143 326 c 0
 143 291 191 244 213 218 c 0
 243 183 257 153 257 120 c 0
 257 40 193 -12 94 -12 c 0
 44 -12 10 6 14 37 c 0
 19 82 58 73 82 58 c 0
 105 44 129 25 158 25 c 0
 188 25 212 48 212 77 c 0
 212 123 160 174 132 207 c 0
 80 270 80 319 138 379 c 0
 169 410 205 429 238 429 c 0
 272 429 313 391 313 359 c 0
EndSplineSet
EndChar

StartChar: t
Encoding: 116 116 105
Width: 282
Flags: MW
HStem: -12 47<85 147.5> 378 41<221 276 210 285>
LayerCount: 2
Fore
SplineSet
289 398 m 0
 287 388 283 377 276 378 c 2
 210 378 l 2
 200 375 202 378 199 369 c 2
 130 66 l 2
 128 58 122 35 136 35 c 0
 159 35 214 93 231 111 c 0
 240 121 253 98 245 91 c 0
 187 28 133 -12 96 -12 c 0
 74 -12 59 3 59 30 c 0
 59 47 65 90 80 152 c 0
 112 284 108 266 130 355 c 0
 132 364 138 378 124 378 c 2
 86 378 l 2
 74 378 72 391 81 395 c 0
 159 434 198 489 238 553 c 0
 243 561 257 566 258 552 c 1
 222 464 212 436 210 426 c 0
 209 421 215 418 221 419 c 2
 285 419 l 2
 291 419 291 408 289 398 c 0
EndSplineSet
EndChar

StartChar: u
Encoding: 117 117 106
Width: 487
Flags: W
HStem: -12 21G<87 133 311.5 328.5> 407 20G<171.5 204.5> 410 20G<389 420 420 429>
LayerCount: 2
Fore
SplineSet
453 109 m 0xa0
 402 44 339 -12 318 -12 c 0
 305 -12 297 1 297 19 c 0
 297 69 316 156 329 205 c 0
 334 223 324 214 318 204 c 0
 240 83 155 -12 111 -12 c 0
 63 -12 85 90 89 111 c 2
 134 337 l 2
 135 341 139 355 134 355 c 0
 118 355 89 310 79 298 c 0
 69 284 58 301 64 309 c 0
 77 328 154 427 189 427 c 0xc0
 220 427 210 374 206 356 c 2
 157 110 l 2
 150 76 145 34 192 76 c 0
 237 117 326 243 345 306 c 0
 356 341 361 378 367 414 c 0
 369 425 375 430 389 430 c 0
 404 429 400 429 420 430 c 0
 438 430 437 416 435 405 c 2
 372 83 l 2
 364 44 391 72 401 83 c 0
 413 96 427 111 438 125 c 0
 444 135 456 119 453 109 c 0xa0
EndSplineSet
EndChar

StartChar: v
Encoding: 118 118 107
Width: 406
Flags: W
HStem: -12 51<142.5 150.5> 408 20G<152.5 176> 409 20G<361 384.5>
VStem: 344 73<311 348>
LayerCount: 2
Fore
SplineSet
417 365 m 0xb0
 417 257 193 -12 108 -12 c 0
 65 -12 84 107 88 132 c 2
 118 317 l 2
 119 324 126 360 118 360 c 0
 106 360 80 326 55 293 c 0
 47 283 33 298 40 308 c 0
 88 375 137 428 168 428 c 0xd0
 184 428 191 414 191 392 c 0
 191 383 188 354 184 330 c 2
 145 89 l 2
 144 80 135 39 150 39 c 0
 219 39 344 272 344 342 c 0
 344 354 342 356 332 362 c 0
 323 367 319 373 319 381 c 0
 319 403 351 429 371 429 c 0
 398 429 417 402 417 365 c 0xb0
EndSplineSet
EndChar

StartChar: w
Encoding: 119 119 108
Width: 610
Flags: W
HStem: -11 51 407 20G<367 376> 408 20G<395 418> 409 20G
VStem: 560 70<318.5 345>
LayerCount: 2
Fore
SplineSet
630 369 m 0xa8
 630 268 484 87 407 25 c 0
 382 5 300 -50 300 31 c 0
 300 56 303 84 308 111 c 0
 312 137 315 149 317 168 c 0
 321 186 317 181 305 161 c 0
 269 102 171 -11 111 -11 c 0
 79 -11 76 28 78 57 c 0
 79 76 81 95 84 113 c 0
 94 179 108 272 117 343 c 0
 119 358 117 360 106 350 c 0
 84 332 68 308 51 286 c 0
 44 277 23 293 35 304 c 0
 54 331 127 429 166 429 c 0
 199 429 185 357 182 339 c 2
 146 95 l 2
 145 86 137 41 153 41 c 0
 189 41 302 197 330 246 c 1
 355 409 l 2x98
 356 417 358 427 376 427 c 0xc8
 387 428 390 428 400 428 c 0
 415 428 420 418 418 408 c 2
 369 90 l 2
 368 81 359 40 374 40 c 0
 427 40 560 243 560 338 c 0
 560 352 554 358 549 363 c 0
 542 368 537 372 537 382 c 0
 537 410 560 428 586 428 c 0
 611 428 630 402 630 369 c 0xa8
EndSplineSet
EndChar

StartChar: x
Encoding: 120 120 109
Width: 504
Flags: MW
HStem: -12 21G<26 80.5 338.5 369> 373 56<146 197>
LayerCount: 2
Fore
SplineSet
505 374 m 0
 505 358 503 351 496 326 c 0
 490 303 482 313 479 326 c 0
 474 352 459 367 437 367 c 0
 411 367 386 347 355 304 c 2
 305 234 l 2
 299 227 301 220 302 218 c 2
 340 116 l 2
 359 65 369 52 382 52 c 0
 404 53 421 81 440 121 c 0
 444 130 450 131 454 127 c 0
 458 124 460 116 460 107 c 0
 414 3 385 -12 353 -12 c 0
 324 -12 318 0 293 63 c 2
 256 156 l 2
 252 165 248 160 244 155 c 2
 208 111 l 2
 180 77 105 -12 56 -12 c 0
 -4 -12 37 89 45 111 c 0
 51 126 64 149 68 119 c 0
 70 106 71 92 76 80 c 0
 101 22 180 117 195 135 c 2
 238 189 l 2
 240 194 242 195 239 203 c 2
 190 326 l 2
 176 362 168 373 155 373 c 0
 137 373 124 357 87 295 c 0
 81 284 75 286 71 289 c 0
 66 293 65 302 68 307 c 0
 122 399 148 429 182 429 c 0
 212 429 227 409 250 349 c 2
 283 262 l 2
 286 253 294 262 299 269 c 0
 334 317 361 358 402 400 c 0
 440 438 505 443 505 374 c 0
EndSplineSet
EndChar

StartChar: y
Encoding: 121 121 110
Width: 437
Flags: W
HStem: -276 21G<191 194.5> -275 24<-15.5 -15> 371 57<152 154> 409 20G<387 411>
VStem: 181 52 356 85<381.5 391 361 397>
LayerCount: 2
Fore
SplineSet
441 375 m 0x5c
 441 347 432 323 406 275 c 0
 384 235 350 188 319 143 c 0
 287 97 259 54 245 23 c 0
 212 -50 184 -126 151 -200 c 0
 132 -242 130 -251 188 -251 c 0x6c
 196 -251 208 -251 205 -263 c 0
 203 -270 198 -276 191 -276 c 0xac
 133 -273 37 -273 -15 -275 c 0
 -24 -275 -23 -251 -8 -251 c 0
 50 -249 54 -249 71 -216 c 0
 100 -158 134 -84 149 -42 c 0
 162 -6 178 30 181 68 c 0
 190 188 173 371 135 371 c 0
 118 371 95 339 85 325 c 0
 79 317 73 308 67 300 c 0
 60 291 44 307 52 320 c 0
 100 391 140 428 164 428 c 0x6c
 232 428 239 148 233 70 c 0
 231 48 236 54 245 68 c 0
 280 127 377 290 370 348 c 0
 369 355 365 361 362 367 c 0
 359 373 356 378 356 385 c 0
 356 409 376 429 398 429 c 0
 424 429 441 407 441 375 c 0x5c
EndSplineSet
EndChar

StartChar: z
Encoding: 122 122 111
Width: 488
Flags: W
HStem: -12 21G<29 41.5> -11 54<292 357> 66 39<88 189.5> 377 50<152 231>
LayerCount: 2
Fore
SplineSet
489 406 m 0xb0
 489 336 362 244 310 217 c 0
 276 199 233 180 192 158 c 0
 154 138 118 116 92 92 c 0
 89 89 80 78 96 86 c 0
 124 100 141 105 170 105 c 0
 209 105 239 89 265 74 c 0
 289 60 315 43 343 43 c 0
 371 43 396 57 421 95 c 0
 430 106 441 90 436 83 c 0
 397 25 347 -11 308 -11 c 0x70
 276 -11 244 12 218 28 c 0
 186 47 152 66 111 66 c 0
 65 66 61 47 61 28 c 0
 61 20 62 9 59 1 c 0
 56 -7 49 -12 34 -12 c 0
 24 -12 17 -4 17 7 c 0
 17 21 32 53 50 77 c 0
 110 156 219 216 304 261 c 0
 344 282 369 296 389 309 c 0
 408 321 421 330 432 341 c 0
 446 355 438 355 427 348 c 0
 356 314 314 320 277 335 c 0
 240 349 207 377 166 377 c 0
 138 377 125 363 96 325 c 0
 91 317 70 325 79 337 c 0
 125 398 164 427 213 427 c 0
 249 427 280 411 309 394 c 0
 336 379 361 362 393 362 c 0
 426 362 445 377 451 403 c 0
 452 408 452 412 454 417 c 0
 457 422 462 425 472 425 c 0
 483 425 489 418 489 406 c 0xb0
EndSplineSet
EndChar

StartChar: braceleft
Encoding: 123 123 112
Width: 403
Flags: W
HStem: -244 21G<340 344.5>
VStem: 149 77<529 550> 173 53 173 73<83 93 32 133.5>
LayerCount: 2
Fore
SplineSet
131 221 m 0x90
 205 184 246 127 246 59 c 0x90
 246 5 226 -46 226 -100 c 0
 226 -160 264 -201 339 -220 c 0
 355 -224 349 -244 340 -244 c 0
 228 -229 150 -145 150 -44 c 0
 150 8 173 57 173 109 c 0
 173 158 138 196 74 212 c 0
 66 214 63 217 63 223 c 2
 63 234 l 2
 63 238 65 240 70 241 c 0
 133 256 173 296 173 343 c 0xa0
 173 396 149 446 149 499 c 0
 149 601 228 685 340 699 c 0
 356 701 351 676 340 674 c 0
 267 660 226 617 226 556 c 0xc0
 226 502 246 450 246 397 c 0
 246 352 228 313 193 278 c 0
 171 256 157 246 129 234 c 0
 115 228 128 222 131 221 c 0x90
EndSplineSet
EndChar

StartChar: bar
Encoding: 124 124 113
Width: 519
Flags: MW
HStem: -19 21G<230 288 230 230> 825 20G<230 288 288 288>
VStem: 230 58<-19 845>
LayerCount: 2
Fore
SplineSet
288 -19 m 1
 230 -19 l 1
 230 845 l 1
 288 845 l 1
 288 -19 l 1
EndSplineSet
EndChar

StartChar: braceright
Encoding: 125 125 114
Width: 403
Flags: W
HStem: 680 20G<59 63>
VStem: 156 74<363.5 372> 177 53 177 76<540.5 550.5 474 583.5>
LayerCount: 2
Fore
SplineSet
231 112 m 1xa0
 230 112 l 1
 230 59 254 10 254 -43 c 0
 254 -146 175 -230 63 -244 c 0
 46 -246 44 -220 63 -219 c 0
 136 -205 177 -162 177 -102 c 0xa0
 177 -47 157 5 157 59 c 0
 157 103 175 142 210 177 c 0
 229 196 242 206 263 217 c 0
 281 224 285 228 269 236 c 0
 197 274 156 330 156 397 c 0xc0
 156 423 162 449 166 474 c 0
 171 500 177 527 177 554 c 0
 177 613 138 656 64 676 c 0
 46 684 55 700 63 700 c 0
 175 684 253 601 253 500 c 0x90
 253 448 230 398 230 346 c 0
 230 294 269 254 341 240 c 0
 347 237 356 218 342 215 c 0
 272 203 231 161 231 112 c 1xa0
EndSplineSet
EndChar

StartChar: asciitilde
Encoding: 126 126 115
Width: 551
Flags: MW
HStem: 243 71<451 481> 334 68<188 211.5>
LayerCount: 2
Fore
SplineSet
574 399 m 0
 571 309 516 243 446 243 c 0
 406 243 370 257 300 295 c 0
 248 324 223 334 200 334 c 0
 155 334 121 298 117 245 c 1
 112 236 93 238 92 245 c 0
 93 333 152 402 224 402 c 0
 262 402 291 392 360 353 c 0
 409 325 439 314 463 314 c 0
 509 314 541 343 547 399 c 0
 551 411 573 409 574 399 c 0
EndSplineSet
EndChar

StartChar: Adieresis
Encoding: 275 196 116
Width: 693
Flags: W
HStem: -2 25<-37 -35 -35 -28 -37 205 376 380 380 427> 279 45<280.5 335 327.5 335 327.5 480> 702 107<641 669.5> 788 20G<473.5 501.5>
VStem: 436 103<741 770> 494 90 539 64<741.5 770> 603 104<741.5 771>
LayerCount: 2
Fore
SplineSet
707 756 m 0xeb
 707 727 684 702 655 702 c 0
 627 702 603 727 603 756 c 0
 603 786 627 809 655 809 c 0
 684 809 707 786 707 756 c 0xeb
539 755 m 0
 539 727 515 702 488 702 c 0xeb
 459 702 436 727 436 755 c 0
 436 785 459 808 488 808 c 0xdb
 515 808 539 785 539 755 c 0
676 9 m 0
 675 0 672 -2 662 -2 c 0
 586 2 448 0 380 -2 c 0
 370 -2 369 23 383 23 c 0
 471 23 495 41 495 105 c 2
 494 268 l 2
 494 271 486 279 480 279 c 2
 283 279 l 2
 278 279 274 277 269 272 c 2
 144 106 l 2
 132 90 125 75 125 64 c 0
 125 30 158 26 182 25 c 0
 192 24 200 25 208 25 c 0
 221 25 218 -2 205 -2 c 0
 149 0 29 0 -35 -2 c 0
 -46 -2 -46 23 -28 23 c 0
 24 33 46 47 99 116 c 2
 515 657 l 2
 516 660 521 663 526 664 c 0
 539 668 555 667 566 664 c 0
 577 662 578 657 578 648 c 2
 584 80 l 2xe5
 584 37 608 29 631 26 c 0
 640 25 650 26 659 26 c 0
 661 26 664 26 666 26 c 0
 673 25 678 18 676 9 c 0
496 339 m 0
 496 393 496 498 496 546 c 0
 496 565 484 561 479 554 c 2
 321 339 l 2
 316 333 320 324 335 324 c 2
 477 325 l 2
 490 325 496 333 496 339 c 0
EndSplineSet
EndChar

StartChar: Aring
Encoding: 276 197 117
Width: 693
Flags: W
HStem: -2 25<-37 -35 -35 -28 -37 205 376 380 380 427> 279 45<280.5 335 327.5 335 327.5 480> 694 37<549.5 582.5 549.5 592.5> 852 37<549.5 582.5>
VStem: 470 37<774.5 808 774.5 818> 494 90 507 119<774.5 808> 626 35<774.5 808>
LayerCount: 2
Fore
SplineSet
676 9 m 0xf5
 675 0 672 -2 662 -2 c 0
 586 2 448 0 380 -2 c 0
 370 -2 369 23 383 23 c 0
 471 23 495 41 495 105 c 2
 494 268 l 2
 494 271 486 279 480 279 c 2
 283 279 l 2
 278 279 274 277 269 272 c 2
 144 106 l 2
 132 90 125 75 125 64 c 0
 125 30 158 26 182 25 c 0
 192 24 200 25 208 25 c 0
 221 25 218 -2 205 -2 c 0
 149 0 29 0 -35 -2 c 0
 -46 -2 -46 23 -28 23 c 0
 24 33 46 47 99 116 c 2
 515 657 l 2
 516 660 521 663 526 664 c 0
 539 668 555 667 566 664 c 0
 577 662 578 657 578 648 c 2
 584 80 l 2
 584 37 608 29 631 26 c 0
 640 25 650 26 659 26 c 0
 661 26 664 26 666 26 c 0
 673 25 678 18 676 9 c 0xf5
496 339 m 0
 496 393 496 498 496 546 c 0
 496 565 484 561 479 554 c 2
 321 339 l 2
 316 333 320 324 335 324 c 2
 477 325 l 2
 490 325 496 333 496 339 c 0
661 791 m 0
 661 737 619 694 566 694 c 0
 514 694 470 737 470 791 c 0xfb
 470 845 514 889 566 889 c 0
 619 889 661 845 661 791 c 0
626 791 m 0
 626 825 599 852 566 852 c 0
 533 852 507 825 507 791 c 0
 507 758 533 731 566 731 c 0
 599 731 626 758 626 791 c 0
EndSplineSet
EndChar

StartChar: Ccedilla
Encoding: 277 199 118
Width: 712
Flags: W
HStem: -207 21<257 286.5 255 302.5> -18 21G<350 369> -17 32<329 329> 630 33<393 539 369 553>
VStem: 29 97<193 372 193 385.5> 347 51<-137 -115.5>
LayerCount: 2
Fore
SplineSet
398 -105 m 0xdc
 398 -169 345 -207 260 -207 c 0
 254 -207 252 -207 238 -206 c 0
 234 -204 227 -200 230 -194 c 0
 230 -189 234 -186 237 -185 c 0
 249 -186 252 -186 258 -186 c 0
 315 -186 347 -164 347 -126 c 0
 347 -105 335 -92 305 -89 c 0
 298 -88 297 -84 299 -78 c 2
 329 -17 l 1
 164 -10 29 98 29 277 c 0
 29 494 237 663 501 663 c 0
 577 663 650 649 719 618 c 0
 726 615 731 607 727 590 c 0
 718 555 701 503 688 460 c 0
 683 444 663 454 665 464 c 0
 667 477 667 478 667 489 c 0
 667 582 612 630 494 630 c 0
 292 630 126 473 126 271 c 0
 126 115 209 15 353 15 c 0xbc
 462 15 550 68 619 167 c 0
 624 176 647 171 642 159 c 0
 625 116 600 39 590 2 c 0
 589 -3 578 -3 571 2 c 0
 558 6 555 7 541 7 c 0
 529 7 525 7 480 -2 c 0
 427 -13 388 -18 350 -18 c 1
 342 -35 l 1
 377 -40 398 -69 398 -105 c 0xdc
EndSplineSet
EndChar

StartChar: Eacute
Encoding: 278 201 119
Width: 662
Flags: MW
HStem: -2 33<309 379 379 412.5> 311 34<271 450 286 414> 615 31<336 342 342 510>
LayerCount: 2
Fore
SplineSet
563 863 m 0
 534 822 471 753 441 718 c 0
 435 712 423 713 426 722 c 0
 437 757 464 842 468 867 c 0
 471 875 477 877 487 877 c 0
 505 878 535 879 552 877 c 0
 560 878 571 874 563 863 c 0
670 623 m 0
 663 585 650 527 644 503 c 0
 645 499 641 497 634 497 c 0
 617 498 624 509 624 521 c 0
 624 588 592 615 510 615 c 2
 342 615 l 2
 330 615 320 614 317 601 c 2
 266 358 l 2
 264 348 273 345 286 345 c 2
 450 345 l 2
 510 345 535 360 560 413 c 0
 562 420 586 420 581 409 c 0
 570 365 552 274 543 228 c 0
 543 222 521 209 521 244 c 0
 521 296 498 311 414 311 c 2
 277 311 l 2
 265 311 255 308 253 297 c 2
 211 97 l 2
 197 29 257 31 309 31 c 2
 379 31 l 2
 446 31 488 44 527 72 c 0
 559 95 571 104 599 141 c 0
 606 151 621 148 620 140 c 0
 606 106 582 16 575 7 c 0
 567 -1 563 -2 535 -2 c 0
 398 0 170 1 12 -2 c 0
 6 -2 1 6 2 13 c 0
 4 22 10 29 17 29 c 0
 28 30 42 28 50 29 c 0
 98 33 112 50 125 113 c 2
 213 532 l 2
 218 555 219 567 219 575 c 0
 219 605 195 619 153 619 c 2
 127 619 l 2
 119 620 117 626 118 633 c 0
 120 642 129 646 137 646 c 2
 648 646 l 2
 665 646 673 643 670 623 c 0
EndSplineSet
EndChar

StartChar: Ntilde
Encoding: 279 209 120
Width: 789
Flags: W
HStem: -2 21G<20 247> 623 23 688 66<591.5 608.5> 758 66<424 441.5> 803 20G<662 670.5>
LayerCount: 2
Fore
SplineSet
856 646 m 0xe8
 870 647 859 624 851 624 c 0
 788 615 760 586 745 515 c 2
 634 -11 l 2
 633 -16 609 -18 603 -11 c 2
 260 526 l 2
 251 537 247 532 245 522 c 2
 171 141 l 2
 159 77 164 35 242 25 c 0
 254 25 258 24 256 11 c 0
 255 4 252 -2 247 -2 c 0
 190 0 77 1 20 -2 c 0
 7 -3 11 23 23 22 c 0
 89 31 112 55 128 136 c 2
 219 587 l 1
 196 618 164 616 130 621 c 0
 122 623 122 628 123 634 c 0
 124 643 131 646 134 646 c 0
 171 644 220 645 251 646 c 0
 272 646 280 643 283 638 c 2
 611 133 l 2
 620 119 627 124 630 133 c 2
 711 515 l 2
 726 587 711 617 628 623 c 0
 625 623 623 629 623 634 c 0
 624 642 629 646 633 646 c 0
 680 644 787 644 856 646 c 0xe8
675 810 m 0
 675 741 635 688 582 688 c 0
 515 688 461 758 422 758 c 0
 397 758 386 745 377 697 c 0
 376 691 373 689 365 689 c 0
 358 689 356 693 357 703 c 0
 364 782 397 824 451 824 c 0xf0
 513 824 572 754 611 754 c 0
 634 754 648 770 655 813 c 0
 656 821 658 823 666 823 c 0
 675 823 675 817 675 810 c 0
EndSplineSet
EndChar

StartChar: Odieresis
Encoding: 280 214 121
Width: 819
Flags: W
HStem: -18 31<387 387> 631 31<443.5 481> 702 107<587.5 616.5> 788 20G<419.5 448>
VStem: 88 94<200.5 315.5 185.5 389> 383 102<741 770> 550 103<741.5 771> 688 94<282.5 443.5 254 460.5>
LayerCount: 2
Fore
SplineSet
653 756 m 0xef
 653 727 631 702 602 702 c 0
 573 702 550 727 550 756 c 0
 550 786 573 809 602 809 c 0
 631 809 653 786 653 756 c 0xef
485 755 m 0
 485 727 462 702 434 702 c 0xef
 405 702 383 727 383 755 c 0
 383 785 405 808 434 808 c 0xdf
 462 808 485 785 485 755 c 0
782 358 m 0
 782 150 606 -18 387 -18 c 0
 211 -18 88 114 88 287 c 0
 88 491 267 662 480 662 c 0
 656 662 782 529 782 358 c 0
688 389 m 0
 688 532 609 632 481 631 c 0
 406 631 342 605 295 555 c 0
 226 482 182 369 182 262 c 0
 182 109 256 14 387 13 c 0
 556 12 688 176 688 389 c 0
EndSplineSet
EndChar

StartChar: Udieresis
Encoding: 281 220 122
Width: 740
Flags: W
HStem: -18 30<295 392.5> 621 26<65.5 339 73 85> 702 107<545 573.5> 788 20G<377.5 405.5>
VStem: 340 103<741 770> 507 104<741.5 771>
LayerCount: 2
Fore
SplineSet
611 756 m 0xec
 611 727 588 702 559 702 c 0
 531 702 507 727 507 756 c 0
 507 786 531 809 559 809 c 0
 588 809 611 786 611 756 c 0xec
443 755 m 0
 443 727 419 702 392 702 c 0xec
 363 702 340 727 340 755 c 0
 340 785 363 808 392 808 c 0xdc
 419 808 443 785 443 755 c 0
803 633 m 0
 802 625 796 620 790 621 c 0
 732 614 708 602 691 510 c 2
 640 236 l 2
 629 175 618 147 595 109 c 0
 539 17 447 -18 338 -18 c 0
 220 -18 152 15 107 83 c 0
 66 146 74 202 88 270 c 2
 143 528 l 2
 154 580 157 621 85 621 c 2
 68 621 l 2
 63 621 58 630 59 636 c 0
 61 643 68 647 73 647 c 0
 136 644 268 644 339 647 c 0
 346 647 352 640 351 634 c 0
 351 621 344 619 333 620 c 0
 265 623 251 609 235 532 c 2
 178 266 l 2
 170 228 166 194 166 167 c 0
 166 74 235 12 355 12 c 0
 518 12 579 110 605 246 c 2
 656 517 l 2
 670 593 651 621 568 621 c 0
 562 621 562 628 563 635 c 0
 565 643 569 648 573 647 c 0
 621 646 721 642 795 648 c 0
 803 649 804 639 803 633 c 0
EndSplineSet
EndChar

StartChar: aacute
Encoding: 282 225 123
Width: 416
Flags: MW
HStem: -12 21G<82 117 272 292> 408 20G<386 387.5> 638 20G<298 363>
VStem: 37 67<96.5 148.5>
LayerCount: 2
Fore
SplineSet
374 644 m 0
 345 604 282 534 252 499 c 0
 246 493 234 494 237 503 c 0
 248 538 275 623 279 648 c 0
 282 656 288 658 298 658 c 0
 315 659 346 660 363 658 c 0
 371 659 382 655 374 644 c 0
396 83 m 0
 386 72 366 49 345 28 c 0
 323 7 300 -12 284 -12 c 0
 260 -12 253 13 254 43 c 0
 255 66 259 88 264 110 c 0
 267 125 259 120 253 113 c 0
 230 89 135 -12 99 -12 c 0
 65 -12 37 41 37 97 c 0
 37 200 116 322 224 385 c 0
 277 416 327 427 386 428 c 0
 389 428 391 427 392 419 c 2
 333 120 l 2
 332 114 314 51 332 55 c 0
 343 57 365 80 373 89 c 0
 379 96 384 101 386 103 c 0
 395 112 404 96 396 83 c 0
313 357 m 2
 315 363 318 372 307 371 c 0
 261 366 228 352 199 332 c 0
 141 293 104 207 104 118 c 0
 104 75 119 46 135 46 c 0
 149 46 256 147 274 164 c 1
 313 357 l 2
EndSplineSet
EndChar

StartChar: agrave
Encoding: 283 224 124
Width: 416
Flags: MW
HStem: -12 21G<82 117 272 292> 408 20G<386 387.5> 637 20G<216 290 290 292>
VStem: 37 67<96.5 148.5>
LayerCount: 2
Fore
SplineSet
351 499 m 2
 352 496 349 494 344 494 c 0
 340 494 335 495 333 498 c 2
 210 644 l 2
 201 652 210 657 216 657 c 2
 290 657 l 2
 294 657 299 658 301 654 c 0
 302 653 302 652 303 651 c 2
 351 499 l 2
396 83 m 0
 386 72 366 49 345 28 c 0
 323 7 300 -12 284 -12 c 0
 260 -12 253 13 254 43 c 0
 255 66 259 88 264 110 c 0
 267 125 259 120 253 113 c 0
 230 89 135 -12 99 -12 c 0
 65 -12 37 41 37 97 c 0
 37 200 116 322 224 385 c 0
 277 416 327 427 386 428 c 0
 389 428 391 427 392 419 c 2
 333 120 l 2
 332 114 314 51 332 55 c 0
 343 57 365 80 373 89 c 0
 379 96 384 101 386 103 c 0
 395 112 404 96 396 83 c 0
313 357 m 2
 315 363 318 372 307 371 c 0
 261 366 228 352 199 332 c 0
 141 293 104 207 104 118 c 0
 104 75 119 46 135 46 c 0
 149 46 256 147 274 164 c 1
 313 357 l 2
EndSplineSet
EndChar

StartChar: acircumflex
Encoding: 284 226 125
Width: 416
Flags: MW
HStem: -12 21G<82 117 272 292> 408 20G<386 387.5> 621 20G<346 350>
VStem: 37 67<96.5 148.5>
LayerCount: 2
Fore
SplineSet
396 83 m 0
 386 72 366 49 345 28 c 0
 323 7 300 -12 284 -12 c 0
 260 -12 253 13 254 43 c 0
 255 66 259 88 264 110 c 0
 267 125 259 120 253 113 c 0
 230 89 135 -12 99 -12 c 0
 65 -12 37 41 37 97 c 0
 37 200 116 322 224 385 c 0
 277 416 327 427 386 428 c 0
 389 428 391 427 392 419 c 2
 333 120 l 2
 332 114 314 51 332 55 c 0
 343 57 365 80 373 89 c 0
 379 96 384 101 386 103 c 0
 395 112 404 96 396 83 c 0
313 357 m 2
 315 363 318 372 307 371 c 0
 261 366 228 352 199 332 c 0
 141 293 104 207 104 118 c 0
 104 75 119 46 135 46 c 0
 149 46 256 147 274 164 c 1
 313 357 l 2
446 488 m 2
 447 482 447 478 441 478 c 2
 435 478 l 1
 356 573 l 2
 353 577 348 577 343 574 c 2
 194 478 l 1
 182 478 l 2
 178 479 179 482 182 485 c 2
 328 632 l 2
 334 639 342 641 350 641 c 0
 361 642 383 640 394 640 c 0
 404 639 409 637 412 625 c 2
 446 488 l 2
EndSplineSet
EndChar

StartChar: adieresis
Encoding: 285 228 126
Width: 416
Flags: W
HStem: -12 65<271 335.5> 483 107<352.5 381.5> 569 20G<185.5 214>
VStem: 37 65<96.5 148> 148 104<521.5 551> 314 105<522 552>
LayerCount: 2
Fore
SplineSet
419 537 m 0xdc
 419 507 396 483 367 483 c 0
 338 483 314 507 314 537 c 0
 314 567 338 590 367 590 c 0
 396 590 419 567 419 537 c 0xdc
252 536 m 0
 252 507 228 483 200 483 c 0xdc
 171 483 148 507 148 536 c 0
 148 566 171 589 200 589 c 0xbc
 228 589 252 566 252 536 c 0
394 83 m 0
 373 60 313 -12 283 -12 c 0
 259 -12 251 12 252 43 c 0
 252 59 256 75 258 88 c 0
 261 102 263 114 265 121 c 1
 264 121 262 122 262 122 c 2
 265 121 265 123 264 124 c 0
 262 125 261 124 260 124 c 2
 261 123 l 2
 260 123 260 124 260 123 c 2
 260 123 260 123 259 122 c 0
 237 98 134 -12 98 -12 c 0
 64 -12 37 41 37 97 c 0
 37 199 115 321 223 384 c 0
 276 415 325 425 384 426 c 0
 387 426 389 426 390 417 c 2
 331 119 l 2
 325 90 322 73 322 66 c 0
 322 57 325 53 330 53 c 0
 341 53 364 78 371 86 c 0
 377 92 381 97 383 100 c 0
 386 106 390 106 394 99 c 0
 399 92 399 85 394 83 c 0
315 368 m 0
 314 370 312 371 310 371 c 0
 261 366 228 352 198 332 c 0
 139 292 102 206 102 118 c 0
 102 75 117 43 134 43 c 0
 142 43 173 70 203 97 c 0
 233 124 264 154 273 163 c 1
 275 172 313 358 315 368 c 0
EndSplineSet
EndChar

StartChar: atilde
Encoding: 286 227 127
Width: 416
Flags: W
HStem: -12 21G<82 117 272 292> 408 20G<386 387.5> 490 66<375.5 392.5> 560 66<208 225.5> 605 20G<446 454.5>
VStem: 37 67<96.5 148.5>
LayerCount: 2
Fore
SplineSet
396 83 m 0xec
 386 72 366 49 345 28 c 0
 323 7 300 -12 284 -12 c 0
 260 -12 253 13 254 43 c 0
 255 66 259 88 264 110 c 0
 267 125 259 120 253 113 c 0
 230 89 135 -12 99 -12 c 0
 65 -12 37 41 37 97 c 0
 37 200 116 322 224 385 c 0
 277 416 327 427 386 428 c 0
 389 428 391 427 392 419 c 2
 333 120 l 2
 332 114 314 51 332 55 c 0
 343 57 365 80 373 89 c 0
 379 96 384 101 386 103 c 0
 395 112 404 96 396 83 c 0xec
313 357 m 2
 315 363 318 372 307 371 c 0
 261 366 228 352 199 332 c 0
 141 293 104 207 104 118 c 0
 104 75 119 46 135 46 c 0
 149 46 256 147 274 164 c 1
 313 357 l 2
459 612 m 0
 459 543 419 490 366 490 c 0
 299 490 245 560 206 560 c 0
 181 560 170 547 161 499 c 0
 160 493 157 491 149 491 c 0
 142 491 140 495 141 505 c 0
 148 584 181 626 235 626 c 0xf4
 297 626 356 556 395 556 c 0
 418 556 432 572 439 615 c 0
 440 623 442 625 450 625 c 0
 459 625 459 619 459 612 c 0
EndSplineSet
EndChar

StartChar: aring
Encoding: 287 229 128
Width: 416
Flags: MW
HStem: -12 21G<82 117 272 292> 408 20G<386 387.5> 462 37<284.5 317.5 284.5 327.5> 620 37<284.5 317.5>
VStem: 37 67<96.5 148.5> 205 37<542.5 576 542.5 586> 361 35<542.5 576>
LayerCount: 2
Fore
SplineSet
396 83 m 0
 386 72 366 49 345 28 c 0
 323 7 300 -12 284 -12 c 0
 260 -12 253 13 254 43 c 0
 255 66 259 88 264 110 c 0
 267 125 259 120 253 113 c 0
 230 89 135 -12 99 -12 c 0
 65 -12 37 41 37 97 c 0
 37 200 116 322 224 385 c 0
 277 416 327 427 386 428 c 0
 389 428 391 427 392 419 c 2
 333 120 l 2
 332 114 314 51 332 55 c 0
 343 57 365 80 373 89 c 0
 379 96 384 101 386 103 c 0
 395 112 404 96 396 83 c 0
313 357 m 2
 315 363 318 372 307 371 c 0
 261 366 228 352 199 332 c 0
 141 293 104 207 104 118 c 0
 104 75 119 46 135 46 c 0
 149 46 256 147 274 164 c 1
 313 357 l 2
396 559 m 0
 396 505 354 462 301 462 c 0
 249 462 205 505 205 559 c 0
 205 613 249 657 301 657 c 0
 354 657 396 613 396 559 c 0
361 559 m 0
 361 593 334 620 301 620 c 0
 268 620 242 593 242 559 c 0
 242 526 268 499 301 499 c 0
 334 499 361 526 361 559 c 0
EndSplineSet
EndChar

StartChar: ccedilla
Encoding: 288 231 129
Width: 300
Flags: W
HStem: -10 21G<127 135 127 128> 352 77<277.5 278.5 195 296>
VStem: 36 137 131 42<-116 -100.5>
LayerCount: 2
Fore
SplineSet
317 389 m 0xe0
 317 368 305 352 287 352 c 0
 268 352 255 361 239 370 c 0
 226 377 220 380 212 380 c 0
 191 380 170 357 151 309 c 0
 129 253 61 39 160 39 c 0
 190 39 226 62 258 101 c 0
 265 114 286 93 281 82 c 0
 235 28 178 -6 135 -10 c 0
 132 -10 129 -10 127 -10 c 0
 125 -11 124 -12 121 -16 c 2
 118 -21 l 2
 114 -28 122 -33 127 -33 c 0
 147 -37 173 -60 173 -94 c 0
 173 -138 133 -193 26 -190 c 0
 17 -189 19 -188 21 -181 c 0
 21 -179 23 -177 27 -177 c 0
 96 -180 131 -153 131 -113 c 0xd0
 131 -88 116 -79 88 -76 c 0
 87 -75 83 -70 86 -65 c 2
 106 -24 l 2
 110 -17 108 -9 103 -8 c 0
 62 3 36 43 36 100 c 0
 36 213 127 429 263 429 c 0
 294 429 317 414 317 389 c 0xe0
EndSplineSet
EndChar

StartChar: eacute
Encoding: 289 233 130
Width: 364
Flags: MW
HStem: -12 44 399 32 638 20G<266 332>
VStem: 38 70<97.5 136.5 97.5 207.5> 296 53
LayerCount: 2
Fore
SplineSet
342 644 m 0
 313 604 251 534 220 499 c 0
 214 493 202 494 205 503 c 0
 215 538 243 623 248 648 c 0
 251 656 256 658 266 658 c 0
 284 659 314 660 332 658 c 0
 340 659 350 655 342 644 c 0
349 358 m 0
 349 301 310 265 261 240 c 0
 237 227 210 218 184 210 c 0
 159 202 144 199 123 193 c 0
 114 189 113 184 113 181 c 0
 109 162 108 145 108 128 c 0
 108 67 141 31 187 32 c 0
 217 33 252 50 301 88 c 0
 307 93 312 91 314 85 c 0
 317 79 317 70 312 64 c 0
 252 12 185 -12 141 -12 c 0
 83 -12 38 51 38 132 c 0
 38 283 148 431 265 431 c 0
 317 431 349 404 349 358 c 0
296 346 m 0
 298 376 282 400 250 399 c 0
 215 398 187 380 170 349 c 0
 161 332 153 320 146 303 c 0
 139 287 133 269 126 237 c 0
 124 229 131 228 142 231 c 0
 177 239 204 247 236 263 c 0
 275 283 294 317 296 346 c 0
EndSplineSet
EndChar

StartChar: egrave
Encoding: 290 232 131
Width: 364
Flags: MW
HStem: -12 44 399 32 637 20G<164 238 238 240.5>
VStem: 38 70<97.5 136.5 97.5 207.5> 296 53
LayerCount: 2
Fore
SplineSet
299 499 m 2
 300 496 298 494 293 494 c 0
 289 494 284 495 282 498 c 2
 158 644 l 2
 151 653 159 657 164 657 c 2
 238 657 l 2
 243 657 247 658 250 654 c 0
 250 653 251 652 252 651 c 2
 299 499 l 2
349 358 m 0
 349 301 310 265 261 240 c 0
 237 227 210 218 184 210 c 0
 159 202 144 199 123 193 c 0
 114 189 113 184 113 181 c 0
 109 162 108 145 108 128 c 0
 108 67 141 31 187 32 c 0
 217 33 252 50 301 88 c 0
 307 93 312 91 314 85 c 0
 317 79 317 70 312 64 c 0
 252 12 185 -12 141 -12 c 0
 83 -12 38 51 38 132 c 0
 38 283 148 431 265 431 c 0
 317 431 349 404 349 358 c 0
296 346 m 0
 298 376 282 400 250 399 c 0
 215 398 187 380 170 349 c 0
 161 332 153 320 146 303 c 0
 139 287 133 269 126 237 c 0
 124 229 131 228 142 231 c 0
 177 239 204 247 236 263 c 0
 275 283 294 317 296 346 c 0
EndSplineSet
EndChar

StartChar: ecircumflex
Encoding: 291 234 132
Width: 364
Flags: MW
HStem: -12 44 399 32 621 20G<289 293>
VStem: 38 70<97.5 136.5 97.5 207.5> 296 53
LayerCount: 2
Fore
SplineSet
349 358 m 0
 349 301 310 265 261 240 c 0
 237 227 210 218 184 210 c 0
 159 202 144 199 123 193 c 0
 114 189 113 184 113 181 c 0
 109 162 108 145 108 128 c 0
 108 67 141 31 187 32 c 0
 217 33 252 50 301 88 c 0
 307 93 312 91 314 85 c 0
 317 79 317 70 312 64 c 0
 252 12 185 -12 141 -12 c 0
 83 -12 38 51 38 132 c 0
 38 283 148 431 265 431 c 0
 317 431 349 404 349 358 c 0
296 346 m 0
 298 376 282 400 250 399 c 0
 215 398 187 380 170 349 c 0
 161 332 153 320 146 303 c 0
 139 287 133 269 126 237 c 0
 124 229 131 228 142 231 c 0
 177 239 204 247 236 263 c 0
 275 283 294 317 296 346 c 0
389 488 m 2
 390 482 390 478 384 478 c 2
 378 478 l 1
 299 573 l 2
 296 577 291 577 286 574 c 2
 137 478 l 1
 125 478 l 2
 121 479 122 482 125 485 c 2
 271 632 l 2
 277 639 285 641 293 641 c 0
 304 642 326 640 337 640 c 0
 347 639 352 637 355 625 c 2
 389 488 l 2
EndSplineSet
EndChar

StartChar: edieresis
Encoding: 292 235 133
Width: 364
Flags: W
HStem: -12 44 399 32 486 101<318 345.5> 566 20G<158.5 185>
VStem: 38 70<97.5 136.5 97.5 207.5> 123 98<522.5 550> 282 98<523 551> 296 53
LayerCount: 2
Fore
SplineSet
380 537 m 0xee
 380 509 359 486 332 486 c 0
 304 486 282 509 282 537 c 0
 282 565 304 587 332 587 c 0
 359 587 380 565 380 537 c 0xee
221 536 m 0
 221 509 198 486 172 486 c 0xed
 145 486 123 509 123 536 c 0
 123 564 145 586 172 586 c 0xde
 198 586 221 564 221 536 c 0
349 358 m 0
 349 301 310 265 261 240 c 0
 237 227 210 218 184 210 c 0
 159 202 144 199 123 193 c 0
 114 189 113 184 113 181 c 0
 109 162 108 145 108 128 c 0
 108 67 141 31 187 32 c 0
 217 33 252 50 301 88 c 0
 307 93 312 91 314 85 c 0
 317 79 317 70 312 64 c 0
 252 12 185 -12 141 -12 c 0
 83 -12 38 51 38 132 c 0
 38 283 148 431 265 431 c 0
 317 431 349 404 349 358 c 0
296 346 m 0
 298 376 282 400 250 399 c 0
 215 398 187 380 170 349 c 0
 161 332 153 320 146 303 c 0
 139 287 133 269 126 237 c 0
 124 229 131 228 142 231 c 0
 177 239 204 247 236 263 c 0
 275 283 294 317 296 346 c 0
EndSplineSet
EndChar

StartChar: iacute
Encoding: 293 237 134
Width: 255
Flags: MW
HStem: -14 21G<76 102.5> 638 20G<214 279>
LayerCount: 2
Fore
SplineSet
223 94 m 0
 205 71 184 48 160 26 c 0
 131 -1 110 -14 95 -14 c 0
 57 -14 65 40 70 64 c 2
 121 323 l 2
 122 328 132 359 122 359 c 0
 107 359 82 319 66 307 c 0
 56 299 49 319 54 324 c 0
 115 392 155 425 178 425 c 0
 207 425 201 382 197 364 c 2
 139 75 l 2
 138 70 132 44 143 44 c 0
 155 44 198 96 207 108 c 0
 214 117 230 103 223 94 c 0
290 644 m 0
 261 604 199 534 168 499 c 0
 162 493 150 494 153 503 c 0
 164 538 191 624 195 648 c 0
 198 656 204 658 214 658 c 0
 232 659 262 660 279 658 c 0
 288 660 298 655 290 644 c 0
EndSplineSet
EndChar

StartChar: igrave
Encoding: 294 236 135
Width: 255
Flags: MW
HStem: -14 21G<76 102.5> 637 20G<67 141 141 143.5>
LayerCount: 2
Fore
SplineSet
223 94 m 0
 205 71 184 48 160 26 c 0
 131 -1 110 -14 95 -14 c 0
 57 -14 65 40 70 64 c 2
 121 323 l 2
 122 328 132 359 122 359 c 0
 107 359 82 319 66 307 c 0
 56 299 49 319 54 324 c 0
 115 392 155 425 178 425 c 0
 207 425 201 382 197 364 c 2
 139 75 l 2
 138 70 132 44 143 44 c 0
 155 44 198 96 207 108 c 0
 214 117 230 103 223 94 c 0
202 499 m 2
 203 496 201 494 196 494 c 0
 192 494 187 495 184 498 c 2
 61 644 l 2
 54 653 61 657 67 657 c 2
 141 657 l 2
 146 657 150 658 153 654 c 0
 153 653 154 652 154 651 c 2
 202 499 l 2
EndSplineSet
EndChar

StartChar: icircumflex
Encoding: 295 238 136
Width: 255
Flags: MW
HStem: -14 21G<76 102.5> 621 20G<203 207>
LayerCount: 2
Fore
SplineSet
223 94 m 0
 205 71 184 48 160 26 c 0
 131 -1 110 -14 95 -14 c 0
 57 -14 65 40 70 64 c 2
 121 323 l 2
 122 328 132 359 122 359 c 0
 107 359 82 319 66 307 c 0
 56 299 49 319 54 324 c 0
 115 392 155 425 178 425 c 0
 207 425 201 382 197 364 c 2
 139 75 l 2
 138 70 132 44 143 44 c 0
 155 44 198 96 207 108 c 0
 214 117 230 103 223 94 c 0
303 488 m 2
 304 482 304 478 298 478 c 2
 292 478 l 1
 213 573 l 2
 210 577 205 577 200 574 c 2
 51 478 l 1
 39 478 l 2
 35 479 36 482 39 485 c 2
 185 632 l 2
 191 639 199 641 207 641 c 0
 218 642 240 640 251 640 c 0
 261 639 266 637 269 625 c 2
 303 488 l 2
EndSplineSet
EndChar

StartChar: idieresis
Encoding: 296 239 137
Width: 255
Flags: W
HStem: -14 21G<76 102.5> 484 106<259.5 288> 569 20G<91.5 119.5>
VStem: 54 103<522 551> 221 104<522.5 552>
LayerCount: 2
Fore
SplineSet
223 94 m 0xd8
 205 71 184 48 160 26 c 0
 131 -1 110 -14 95 -14 c 0
 57 -14 65 40 70 64 c 2
 121 323 l 2
 122 328 132 359 122 359 c 0
 107 359 82 319 66 307 c 0
 56 299 49 319 54 324 c 0
 115 392 155 425 178 425 c 0
 207 425 201 382 197 364 c 2
 139 75 l 2
 138 70 132 44 143 44 c 0
 155 44 198 96 207 108 c 0
 214 117 230 103 223 94 c 0xd8
325 537 m 0
 325 508 302 484 274 484 c 0
 245 484 221 508 221 537 c 0
 221 567 245 590 274 590 c 0
 302 590 325 567 325 537 c 0
157 536 m 0
 157 508 133 484 106 484 c 0xd8
 77 484 54 508 54 536 c 0
 54 566 77 589 106 589 c 0xb8
 133 589 157 566 157 536 c 0
EndSplineSet
EndChar

StartChar: ntilde
Encoding: 297 241 138
Width: 469
Flags: W
HStem: -12 21G -11 21G<61.5 67 67 95> 374 55<344 349.5> 480 56<340 410> 551 55<198.5 267.5> 591 20G<465.5 468>
LayerCount: 2
Fore
SplineSet
476 600 m 0x74
 475 598 475 596 475 595 c 0
 460 522 410 480 353 480 c 0
 327 480 297 493 265 520 c 0
 233 547 224 551 209 551 c 0
 188 551 172 534 155 496 c 0
 155 495 155 494 154 493 c 2
 153 489 l 2
 152 486 150 483 149 478 c 0
 146 475 140 472 135 471 c 0
 129 471 127 472 127 476 c 0
 149 565 193 606 253 606 c 0xb8
 282 606 303 597 342 565 c 0
 369 542 385 536 398 536 c 0
 422 536 436 551 456 607 c 0
 457 610 463 611 468 611 c 0
 475 612 476 609 475 608 c 0
 476 605 476 602 476 600 c 0x74
449 123 m 0
 459 111 452 105 444 94 c 0
 395 26 341 -12 310 -12 c 0xb8
 273 -12 275 33 283 66 c 2
 348 326 l 2
 351 338 361 374 338 374 c 0
 296 374 176 199 148 160 c 1
 117 8 l 2
 114 -9 111 -11 95 -11 c 2
 67 -11 l 2x78
 56 -11 46 -6 51 9 c 2
 115 330 l 2
 115 333 118 348 108 342 c 0
 100 337 66 292 60 283 c 0
 57 280 50 281 49 284 c 0
 46 290 45 299 49 304 c 0
 69 331 146 431 177 429 c 0
 195 428 197 404 192 378 c 0
 182 326 172 275 161 224 c 0
 158 211 165 220 172 228 c 0
 213 281 310 429 378 429 c 0
 406 429 421 405 421 367 c 0
 421 349 418 326 413 306 c 2
 353 75 l 2
 351 68 340 37 351 34 c 0
 357 32 378 52 397 73 c 0
 412 90 428 109 435 118 c 0
 441 125 446 126 449 123 c 0
EndSplineSet
EndChar

StartChar: oacute
Encoding: 298 243 139
Width: 398
Flags: MW
HStem: -12 42<108.5 209> 385 44<197 301.5> 638 20G<293 358>
VStem: 38 71<117 198> 305 69<243 296.5>
LayerCount: 2
Fore
SplineSet
369 644 m 0
 340 604 277 534 246 499 c 0
 241 493 229 494 232 503 c 0
 243 538 270 623 274 648 c 0
 277 656 283 658 293 658 c 0
 310 659 340 660 358 658 c 0
 366 659 377 655 369 644 c 0
374 274 m 0
 374 212 355 154 319 107 c 0
 289 68 236 25 187 4 c 0
 165 -6 145 -12 131 -12 c 0
 86 -12 38 68 38 155 c 0
 38 241 89 326 175 385 c 0
 213 411 254 429 279 429 c 0
 324 429 374 356 374 274 c 0
305 261 m 0
 305 332 270 385 228 385 c 0
 166 385 109 275 109 151 c 0
 109 83 140 30 176 30 c 0
 242 30 305 139 305 261 c 0
EndSplineSet
EndChar

StartChar: ograve
Encoding: 299 242 140
Width: 398
Flags: MW
HStem: -12 42<108.5 209> 385 44<197 301.5> 637 20G<191 265 265 267>
VStem: 38 71<117 198> 305 69<243 296.5>
LayerCount: 2
Fore
SplineSet
326 499 m 2
 327 496 324 494 319 494 c 0
 315 494 310 495 308 498 c 2
 185 644 l 2
 176 652 185 657 191 657 c 2
 265 657 l 2
 269 657 274 658 276 654 c 0
 277 653 277 652 278 651 c 2
 326 499 l 2
374 274 m 0
 374 212 355 154 319 107 c 0
 289 68 236 25 187 4 c 0
 165 -6 145 -12 131 -12 c 0
 86 -12 38 68 38 155 c 0
 38 241 89 326 175 385 c 0
 213 411 254 429 279 429 c 0
 324 429 374 356 374 274 c 0
305 261 m 0
 305 332 270 385 228 385 c 0
 166 385 109 275 109 151 c 0
 109 83 140 30 176 30 c 0
 242 30 305 139 305 261 c 0
EndSplineSet
EndChar

StartChar: ocircumflex
Encoding: 300 244 141
Width: 398
Flags: MW
HStem: -12 42<108.5 209> 385 44<197 301.5> 621 20G<304 308>
VStem: 38 71<117 198> 305 69<243 296.5>
LayerCount: 2
Fore
SplineSet
374 274 m 0
 374 212 355 154 319 107 c 0
 289 68 236 25 187 4 c 0
 165 -6 145 -12 131 -12 c 0
 86 -12 38 68 38 155 c 0
 38 241 89 326 175 385 c 0
 213 411 254 429 279 429 c 0
 324 429 374 356 374 274 c 0
305 261 m 0
 305 332 270 385 228 385 c 0
 166 385 109 275 109 151 c 0
 109 83 140 30 176 30 c 0
 242 30 305 139 305 261 c 0
404 488 m 2
 405 482 405 478 399 478 c 2
 393 478 l 1
 314 573 l 2
 311 577 306 577 301 574 c 2
 152 478 l 1
 140 478 l 2
 136 479 137 482 140 485 c 2
 286 632 l 2
 292 639 300 641 308 641 c 0
 319 642 341 640 352 640 c 0
 362 639 367 637 370 625 c 2
 404 488 l 2
EndSplineSet
EndChar

StartChar: odieresis
Encoding: 301 246 142
Width: 398
Flags: W
HStem: -12 42<108.5 209> 385 44<197 301.5> 484 106<348 376.5> 569 20G<180 208>
VStem: 38 71<117 198> 143 103<522 551> 305 69<243 296.5> 305 109
LayerCount: 2
Fore
SplineSet
414 537 m 0xed
 414 508 391 484 362 484 c 0
 334 484 310 508 310 537 c 0
 310 567 334 590 362 590 c 0
 391 590 414 567 414 537 c 0xed
246 536 m 0
 246 508 222 484 194 484 c 0xee
 166 484 143 508 143 536 c 0
 143 566 166 589 194 589 c 0xde
 222 589 246 566 246 536 c 0
374 274 m 0
 374 212 355 154 319 107 c 0
 289 68 236 25 187 4 c 0
 165 -6 145 -12 131 -12 c 0
 86 -12 38 68 38 155 c 0
 38 241 89 326 175 385 c 0
 213 411 254 429 279 429 c 0
 324 429 374 356 374 274 c 0
305 261 m 0
 305 332 270 385 228 385 c 0
 166 385 109 275 109 151 c 0
 109 83 140 30 176 30 c 0
 242 30 305 139 305 261 c 0
EndSplineSet
EndChar

StartChar: otilde
Encoding: 302 245 143
Width: 398
Flags: W
HStem: -12 42<108.5 209> 385 44<197 301.5> 490 66<351.5 368.5> 560 66<184 201.5> 605 20G<422 430.5>
VStem: 38 71<117 198> 305 69<243 296.5>
LayerCount: 2
Fore
SplineSet
374 274 m 0xee
 374 212 355 154 319 107 c 0
 289 68 236 25 187 4 c 0
 165 -6 145 -12 131 -12 c 0
 86 -12 38 68 38 155 c 0
 38 241 89 326 175 385 c 0
 213 411 254 429 279 429 c 0
 324 429 374 356 374 274 c 0xee
305 261 m 0
 305 332 270 385 228 385 c 0
 166 385 109 275 109 151 c 0
 109 83 140 30 176 30 c 0
 242 30 305 139 305 261 c 0
435 612 m 0
 435 543 395 490 342 490 c 0
 275 490 221 560 182 560 c 0
 157 560 146 547 137 499 c 0
 136 493 133 491 125 491 c 0
 118 491 116 495 117 505 c 0
 124 584 157 626 211 626 c 0xf6
 273 626 332 556 371 556 c 0
 394 556 408 572 415 615 c 0
 416 623 418 625 426 625 c 0
 435 625 435 619 435 612 c 0
EndSplineSet
EndChar

StartChar: uacute
Encoding: 303 250 144
Width: 487
Flags: W
HStem: -12 21G<87 133 311.5 328.5> 407 20G<171.5 204.5> 410 20G<389 420 420 429> 638 20G<329 395>
LayerCount: 2
Fore
SplineSet
405 644 m 0xb0
 376 604 314 534 283 499 c 0
 277 493 265 494 268 503 c 0
 278 538 306 623 311 648 c 0
 314 656 319 658 329 658 c 0
 347 659 377 660 395 658 c 0
 403 659 413 655 405 644 c 0xb0
453 109 m 0
 402 44 339 -12 318 -12 c 0
 305 -12 297 1 297 19 c 0
 297 69 316 156 329 205 c 0
 334 223 324 214 317 204 c 0
 240 83 155 -12 111 -12 c 0
 63 -12 85 90 89 111 c 2
 134 337 l 2
 135 341 139 355 134 355 c 0
 118 355 89 310 79 298 c 0
 69 284 58 301 64 309 c 0
 77 328 154 427 189 427 c 0xd0
 220 427 210 374 206 356 c 2
 157 110 l 2
 150 76 145 34 192 76 c 0
 237 117 326 243 345 306 c 0
 356 341 361 378 367 414 c 0
 369 425 375 430 389 430 c 0
 404 429 400 429 420 430 c 0
 438 430 437 416 435 405 c 2
 372 83 l 2
 364 44 391 72 401 83 c 0
 413 96 427 111 438 125 c 0
 444 135 456 119 453 109 c 0
EndSplineSet
EndChar

StartChar: ugrave
Encoding: 304 249 145
Width: 487
Flags: W
HStem: -12 21G<87 133 311.5 328.5> 407 20G<171.5 204.5> 410 20G<389 420 420 429> 637 20G<207 281 281 283.5>
LayerCount: 2
Fore
SplineSet
342 499 m 2xb0
 343 496 341 494 336 494 c 0
 332 494 327 495 325 498 c 2
 201 644 l 2
 194 653 202 657 207 657 c 2
 281 657 l 2
 286 657 291 658 293 654 c 0
 294 653 294 652 295 651 c 2
 342 499 l 2xb0
453 109 m 0
 402 44 339 -12 318 -12 c 0
 305 -12 297 1 297 19 c 0
 297 69 316 156 329 205 c 0
 334 223 324 214 317 204 c 0
 240 83 155 -12 111 -12 c 0
 63 -12 85 90 89 111 c 2
 134 337 l 2
 135 341 139 355 134 355 c 0
 118 355 89 310 79 298 c 0
 69 284 58 301 64 309 c 0
 77 328 154 427 189 427 c 0xd0
 220 427 210 374 206 356 c 2
 157 110 l 2
 150 76 145 34 192 76 c 0
 237 117 326 243 345 306 c 0
 356 341 361 378 367 414 c 0
 369 425 375 430 389 430 c 0
 404 429 400 429 420 430 c 0
 438 430 437 416 435 405 c 2
 372 83 l 2
 364 44 391 72 401 83 c 0
 413 96 427 111 438 125 c 0
 444 135 456 119 453 109 c 0
EndSplineSet
EndChar

StartChar: ucircumflex
Encoding: 305 251 146
Width: 487
Flags: W
HStem: -12 21G<87 133 311.5 328.5> 407 20G<171.5 204.5> 410 20G<389 420 420 429> 621 20G<330 334>
LayerCount: 2
Fore
SplineSet
453 109 m 0xb0
 402 44 339 -12 318 -12 c 0
 305 -12 297 1 297 19 c 0
 297 69 316 156 329 205 c 0
 334 223 324 214 317 204 c 0
 240 83 155 -12 111 -12 c 0
 63 -12 85 90 89 111 c 2
 134 337 l 2
 135 341 139 355 134 355 c 0
 118 355 89 310 79 298 c 0
 69 284 58 301 64 309 c 0
 77 328 154 427 189 427 c 0xd0
 220 427 210 374 206 356 c 2
 157 110 l 2
 150 76 145 34 192 76 c 0
 237 117 326 243 345 306 c 0
 356 341 361 378 367 414 c 0
 369 425 375 430 389 430 c 0
 404 429 400 429 420 430 c 0
 438 430 437 416 435 405 c 2
 372 83 l 2
 364 44 391 72 401 83 c 0
 413 96 427 111 438 125 c 0
 444 135 456 119 453 109 c 0xb0
430 488 m 2
 431 482 431 478 425 478 c 2
 419 478 l 1
 340 573 l 2
 337 577 332 577 327 574 c 2
 178 478 l 1
 166 478 l 2
 162 479 163 482 166 485 c 2
 312 632 l 2
 318 639 326 641 334 641 c 0
 345 642 367 640 378 640 c 0
 388 639 393 637 396 625 c 2
 430 488 l 2
EndSplineSet
EndChar

StartChar: udieresis
Encoding: 306 252 147
Width: 487
Flags: W
HStem: -12 21G<87 133 311.5 328.5> 407 20G<171.5 204.5> 410 20G<389 420 420 429> 484 106<384.5 413.5> 569 20G<216.5 245>
VStem: 180 102<522 551> 346 104<522.5 552>
LayerCount: 2
Fore
SplineSet
450 537 m 0xb6
 450 508 428 484 399 484 c 0
 370 484 346 508 346 537 c 0
 346 567 370 590 399 590 c 0
 428 590 450 567 450 537 c 0xb6
282 536 m 0
 282 508 259 484 231 484 c 0xb6
 202 484 180 508 180 536 c 0
 180 566 202 589 231 589 c 0xae
 259 589 282 566 282 536 c 0
453 109 m 0
 402 44 339 -12 318 -12 c 0
 305 -12 297 1 297 19 c 0
 297 69 316 156 329 205 c 0
 334 223 324 214 317 204 c 0
 240 83 155 -12 111 -12 c 0
 63 -12 85 90 89 111 c 2
 134 337 l 2
 135 341 139 355 134 355 c 0
 118 355 89 310 79 298 c 0
 69 284 58 301 64 309 c 0
 77 328 154 427 189 427 c 0xd6
 220 427 210 374 206 356 c 2
 157 110 l 2
 150 76 145 34 192 76 c 0
 237 117 326 243 345 306 c 0
 356 341 361 378 367 414 c 0
 369 425 375 430 389 430 c 0
 404 429 400 429 420 430 c 0
 438 430 437 416 435 405 c 2
 372 83 l 2
 364 44 391 72 401 83 c 0
 413 96 427 111 438 125 c 0
 444 135 456 119 453 109 c 0
EndSplineSet
EndChar

StartChar: dagger
Encoding: 178 8224 148
Width: 487
Flags: MW
HStem: -243 21G<148.5 189> 680 20G<325.5 359.5>
LayerCount: 2
Fore
SplineSet
501 428 m 0
 501 426 500 423 499 420 c 2
 493 387 l 2
 490 373 484 365 475 365 c 0
 472 365 465 366 456 367 c 2
 308 390 l 1
 226 -179 l 1
 220 -217 l 2
 216 -242 211 -243 167 -243 c 0
 130 -243 119 -242 119 -225 c 0
 119 -223 120 -219 121 -214 c 0
 123 -208 125 -200 128 -189 c 2
 273 389 l 1
 117 367 l 2
 110 366 105 366 99 366 c 0
 84 366 78 369 78 382 c 0
 78 385 78 389 79 393 c 2
 84 421 l 2
 87 440 95 450 107 450 c 0
 110 450 116 449 125 448 c 2
 280 423 l 1
 302 660 l 2
 305 694 311 700 340 700 c 0
 379 700 392 696 392 678 c 0
 392 673 390 665 387 655 c 2
 314 424 l 1
 467 448 l 2
 474 449 480 449 484 449 c 0
 494 449 501 443 501 433 c 0
 501 432 501 430 501 428 c 0
EndSplineSet
EndChar

StartChar: degree
Encoding: 307 176 149
Width: 403
Flags: MW
HStem: 349 47<255 315 255 327.5> 617 46<255 315>
VStem: 131 45<475.5 536.5 475.5 549.5> 393 46<475.5 536.5>
LayerCount: 2
Fore
SplineSet
439 506 m 0
 439 419 370 349 285 349 c 0
 201 349 131 419 131 506 c 0
 131 593 201 663 285 663 c 0
 370 663 439 593 439 506 c 0
393 506 m 0
 393 567 345 617 285 617 c 0
 225 617 176 567 176 506 c 0
 176 445 225 396 285 396 c 0
 345 396 393 445 393 506 c 0
EndSplineSet
EndChar

StartChar: cent
Encoding: 162 162 150
Width: 276
Flags: MW
VStem: 42 69<93 140.5 93 153.5>
LayerCount: 2
Fore
SplineSet
291 350 m 0
 277 350 268 353 242 368 c 0
 229 375 224 373 222 361 c 2
 164 47 l 2
 162 35 166 31 177 34 c 0
 202 38 231 57 260 92 c 0
 264 97 268 96 269 95 c 2
 277 89 l 2
 281 86 281 82 278 79 c 0
 240 33 202 4 165 -9 c 0
 159 -11 153 -15 152 -23 c 2
 116 -223 l 2
 114 -232 111 -237 103 -235 c 2
 98 -234 l 2
 97 -234 93 -233 92 -232 c 0
 91 -231 90 -229 91 -223 c 2
 127 -28 l 2
 129 -18 125 -15 118 -14 c 0
 71 -7 42 34 42 95 c 0
 42 212 117 361 202 409 c 0
 208 412 211 424 212 430 c 2
 249 634 l 2
 250 641 253 644 259 643 c 2
 264 641 l 2
 269 640 273 638 272 632 c 2
 236 435 l 2
 234 425 238 423 247 425 c 0
 253 426 258 426 264 426 c 0
 297 426 319 412 319 385 c 0
 319 365 308 350 291 350 c 0
198 365 m 0
 196 368 194 370 188 365 c 0
 182 359 176 351 171 342 c 0
 139 289 111 175 111 106 c 0
 111 80 117 61 129 48 c 0
 136 41 142 49 143 56 c 2
 197 353 l 2
 198 358 199 362 198 365 c 0
EndSplineSet
EndChar

StartChar: sterling
Encoding: 163 163 151
Width: 742
Flags: W
HStem: -243 21G<67.5 86.5> -242 45<539.5 562.5> -132 31 -7 21G<628 650.5> 60 30<126 256 120 267 329 490> 603 97<661.5 752> 661 39<637 714.5>
VStem: 632 50<-120 -119.5>
LayerCount: 2
Fore
SplineSet
778 639 m 0xbb
 778 619 763 603 741 603 c 0x7d
 717 603 706 623 694 639 c 0
 683 654 671 661 652 661 c 0
 622 661 592 640 567 602 c 0
 539 559 524 527 473 406 c 0
 430 305 403 243 369 170 c 0
 352 133 346 120 329 90 c 1
 496 90 l 1
 490 60 l 1
 313 60 l 1
 291 20 266 -22 246 -53 c 0
 233 -73 225 -83 205 -108 c 1
 232 -102 246 -101 268 -101 c 0
 336 -101 365 -110 443 -156 c 0
 491 -185 523 -197 556 -197 c 0
 599 -197 632 -165 632 -125 c 0
 632 -114 629 -104 625 -95 c 2
 610 -65 l 2
 607 -58 605 -50 605 -43 c 0
 605 -24 619 -7 637 -7 c 0
 664 -7 682 -36 682 -75 c 0
 682 -165 606 -242 519 -242 c 0x7b
 481 -242 434 -229 395 -207 c 0
 383 -200 365 -189 342 -175 c 0
 291 -143 256 -132 203 -132 c 2
 187 -132 l 1
 140 -201 98 -243 75 -243 c 0
 60 -243 48 -231 48 -217 c 0
 48 -181 103 -135 162 -118 c 1
 185 -87 203 -57 228 -4 c 0
 240 22 246 34 256 60 c 1
 120 60 l 1
 126 90 l 1
 267 90 l 1
 274 108 l 2
 312 207 372 344 405 411 c 0
 452 505 496 574 540 624 c 0
 585 675 634 700 689 700 c 0
 740 700 778 674 778 639 c 0xbb
EndSplineSet
EndChar

StartChar: section
Encoding: 167 167 152
Width: 487
Flags: W
HStem: -243 45<30 152> 599 101<417.5 517> 655 45<357 472.5>
LayerCount: 2
Fore
SplineSet
544 651 m 0xa0
 544 624 527 599 507 599 c 0xc0
 494 599 481 605 462 620 c 0
 426 647 410 655 381 655 c 0
 333 655 297 604 297 531 c 0
 297 472 314 411 352 321 c 0
 402 203 411 171 411 108 c 0
 411 -5 341 -115 225 -188 c 0
 168 -224 108 -243 57 -243 c 0
 3 -243 -39 -223 -39 -192 c 0
 -39 -185 -34 -171 -29 -162 c 0
 -21 -150 -14 -143 -3 -143 c 0
 9 -143 22 -149 42 -163 c 0
 89 -194 97 -198 122 -198 c 0
 182 -198 230 -130 230 -43 c 0
 230 12 220 45 173 142 c 0
 130 232 115 284 115 343 c 0
 115 443 173 557 263 629 c 0
 319 674 388 700 447 700 c 0
 498 700 544 679 544 651 c 0xa0
363 102 m 0
 363 156 351 202 313 289 c 0
 297 326 284 356 276 379 c 0
 262 417 253 471 253 507 c 0
 253 532 255 545 264 579 c 1
 196 498 164 424 164 355 c 0
 164 304 179 240 205 187 c 2
 237 121 l 2
 259 76 273 19 273 -24 c 0
 273 -55 267 -84 252 -121 c 1
 330 -54 363 16 363 102 c 0
EndSplineSet
EndChar

StartChar: bullet
Encoding: 183 8226 153
Width: 360
Flags: MW
HStem: 195 21G<205.5 275> 432 20G<205.5 275>
LayerCount: 2
Fore
SplineSet
367 324 m 0
 367 252 310 195 240 195 c 0
 171 195 114 252 114 324 c 0
 114 394 171 452 240 452 c 0
 310 452 367 394 367 324 c 0
EndSplineSet
EndChar

StartChar: paragraph
Encoding: 182 182 154
Width: 456
Flags: MW
HStem: -243 21G<244 254> 615 31<280 287 287 341 412 454 412 412>
VStem: 229 41<-232 239 239 248> 358 40<-230 595 595 600>
LayerCount: 2
Fore
SplineSet
464 633 m 0
 464 628 467 613 454 615 c 2
 412 615 l 2
 406 614 398 609 398 600 c 2
 398 -233 l 2
 398 -240 390 -244 380 -243 c 0
 364 -242 360 -241 358 -230 c 2
 358 595 l 2
 358 608 355 615 341 615 c 2
 287 615 l 2
 273 615 271 607 270 599 c 2
 270 -234 l 2
 269 -244 260 -243 248 -243 c 0
 240 -243 229 -242 229 -232 c 2
 229 239 l 2
 229 257 225 260 211 260 c 0
 105 262 46 294 14 357 c 0
 -1 386 -9 419 -9 453 c 0
 -9 575 76 646 217 646 c 2
 456 646 l 2
 463 646 464 643 464 633 c 0
EndSplineSet
EndChar

StartChar: germandbls
Encoding: 251 223 155
Width: 446
Flags: W
HStem: -243 37<-123.5 -44.5> -243 86<-166.5 -80> -14 32<208.5 285.5> -14 71<188.5 244> 674 25<332.5 359>
VStem: 350 72<209 253> 408 67<558 608.5 544.5 612>
LayerCount: 2
Fore
SplineSet
475 573 m 0xaa
 475 516 439 460 383 431 c 0
 366 422 356 417 335 411 c 0
 324 408 323 401 333 397 c 0
 395 365 422 316 422 245 c 0
 422 173 391 98 338 43 c 0
 302 6 263 -14 225 -14 c 0
 192 -14 168 2 168 27 c 0
 168 44 181 57 196 57 c 0x9c
 215 57 229 41 240 29 c 0
 247 22 255 18 261 18 c 0
 310 18 350 109 350 225 c 0xac
 350 281 333 332 304 361 c 0
 294 371 287 377 269 387 c 0
 262 392 258 394 259 403 c 0
 260 409 263 412 271 413 c 0
 307 420 322 427 343 444 c 0
 383 476 408 530 408 586 c 0
 408 638 379 674 339 674 c 0
 300 674 257 640 236 594 c 0
 216 551 199 484 180 374 c 2
 141 149 l 2
 120 27 103 -33 69 -103 c 0
 52 -138 30 -170 5 -196 c 0
 -26 -227 -61 -243 -99 -243 c 0
 -148 -243 -190 -219 -190 -187 c 0
 -190 -170 -175 -157 -158 -157 c 0x6a
 -142 -157 -131 -163 -109 -180 c 0
 -85 -200 -72 -206 -57 -206 c 0
 -32 -206 -4 -183 12 -148 c 0
 27 -113 39 -70 51 -1 c 2
 104 303 l 2
 126 429 132 456 151 510 c 0
 164 548 183 584 206 614 c 0
 244 664 306 699 359 699 c 0
 424 699 475 644 475 573 c 0xaa
EndSplineSet
EndChar

StartChar: registered
Encoding: 308 174 156
Width: 773
Flags: MW
HStem: -20 39<350 528 350 538.5> 122 25<244.5 420> 540 30<402 437.5> 670 39<350 528>
VStem: 78 39<254 434.5 254 445> 290 81<213 308 365 369 369 480 480 507.5> 507 89<425.5 473.5> 762 39<254 434.5>
LayerCount: 2
Fore
SplineSet
801 344 m 0
 801 143 638 -20 439 -20 c 0
 240 -20 78 143 78 344 c 0
 78 546 240 709 439 709 c 0
 638 709 801 546 801 344 c 0
762 344 m 0
 762 525 617 670 439 670 c 0
 261 670 117 525 117 344 c 0
 117 164 261 19 439 19 c 0
 617 19 762 164 762 344 c 0
650 129 m 0
 650 121 648 122 640 122 c 0
 614 124 585 123 565 122 c 0
 558 121 550 124 547 127 c 2
 403 328 l 1
 383 328 l 2
 374 328 371 318 371 308 c 2
 371 212 l 1
 371 175 l 2
 371 158 383 148 426 147 c 0
 430 147 430 146 430 140 c 2
 430 128 l 2
 430 123 426 121 420 122 c 0
 368 124 291 124 248 122 c 0
 246 121 238 123 238 129 c 2
 238 141 l 2
 238 145 241 147 248 147 c 0
 286 148 290 158 290 213 c 2
 290 480 l 2
 290 535 287 543 252 545 c 0
 247 545 244 547 244 552 c 2
 244 561 l 2
 244 571 249 571 256 570 c 0
 300 569 394 569 442 570 c 0
 533 571 596 524 596 453 c 0
 596 398 563 361 498 340 c 0
 491 338 490 332 495 325 c 2
 589 190 l 2
 611 159 622 149 646 147 c 0
 654 147 650 134 650 129 c 0
507 447 m 0
 507 500 466 540 409 540 c 0
 395 540 388 539 371 533 c 1
 371 369 l 2
 371 361 373 358 382 358 c 0
 463 358 507 392 507 447 c 0
EndSplineSet
EndChar

StartChar: copyright
Encoding: 309 169 157
Width: 773
Flags: MW
HStem: -19 39<365.5 542.5 365.5 552.5> 111 39<422 496.5> 407 20G<617 622 622 634> 546 30<420.5 490.5 402.5 502> 664 39<365.5 542.5>
VStem: 97 38<253 431 253 441.5> 221 83<287.5 407> 774 38<253 431>
LayerCount: 2
Fore
SplineSet
812 342 m 0
 812 143 651 -19 454 -19 c 0
 257 -19 97 143 97 342 c 0
 97 541 257 703 454 703 c 0
 651 703 812 541 812 342 c 0
774 342 m 0
 774 520 631 664 454 664 c 0
 277 664 135 520 135 342 c 0
 135 164 277 20 454 20 c 0
 631 20 774 164 774 342 c 0
648 211 m 0
 598 143 537 111 456 111 c 0
 323 111 221 210 221 339 c 0
 221 475 331 576 474 576 c 0
 507 576 517 574 568 557 c 0
 577 554 581 553 585 553 c 0
 594 553 599 556 607 576 c 1
 621 576 l 2
 625 576 632 575 633 567 c 2
 642 449 l 2
 643 443 643 427 634 427 c 2
 622 427 l 2
 612 427 613 440 610 446 c 0
 584 513 536 546 468 546 c 0
 373 546 304 473 304 353 c 0
 304 222 371 150 473 150 c 0
 534 150 582 172 621 224 c 0
 625 229 632 233 638 230 c 2
 644 226 l 2
 650 222 652 216 648 211 c 0
EndSplineSet
EndChar

StartChar: trademark
Encoding: 310 8482 158
Width: 996
Flags: W
HStem: 272 27<117.5 118 112 127 112 286 566 567 567 577> 628 20G<94 133.5 272.5 314> 659 28
VStem: 158 92<360 361 361 627> 483 41<360 361 361 558> 837 93<360 361 361 570 570 574.5> 837 148<280 570>
LayerCount: 2
Fore
SplineSet
985 285 m 0xfa
 985 275 983 272 970 272 c 0
 927 272 842 274 799 272 c 0
 780 271 778 272 778 286 c 0
 778 302 784 298 795 299 c 0
 833 303 837 315 837 360 c 2
 837 570 l 2
 837 579 833 583 829 574 c 2
 696 281 l 2
 692 274 689 272 684 272 c 2
 674 272 l 2
 671 272 670 272 665 282 c 2
 532 568 l 2
 525 580 524 562 524 558 c 2
 524 361 l 2
 524 306 530 299 566 299 c 0
 573 299 578 299 581 299 c 0
 590 299 590 290 590 286 c 0
 590 275 587 272 577 272 c 0
 575 272 571 272 567 272 c 0
 516 274 501 275 444 272 c 0
 427 271 427 271 427 287 c 0
 427 297 432 298 439 299 c 0
 479 300 483 311 483 360 c 2
 483 595 l 2
 483 649 479 658 440 659 c 0
 425 660 427 663 427 676 c 0
 427 687 430 687 438 687 c 0
 469 686 537 685 568 686 c 0
 576 687 577 684 580 678 c 2
 701 425 l 2
 706 414 718 422 721 429 c 2
 835 678 l 2
 840 685 844 687 853 687 c 0
 884 687 931 687 966 687 c 0
 978 687 985 688 985 673 c 0xfa
 985 659 983 660 970 659 c 0
 934 657 930 646 930 596 c 2
 930 361 l 2xfc
 930 311 932 303 971 299 c 0
 985 298 985 300 985 285 c 0xfa
400 595 m 2
 401 583 405 577 389 577 c 2
 376 577 l 1
 367 632 345 648 283 648 c 0
 262 648 250 653 250 627 c 2
 250 361 l 2
 250 312 255 303 292 299 c 0
 295 299 297 299 299 299 c 0
 300 299 301 299 301 299 c 2
 303 298 303 295 303 285 c 0
 303 282 303 279 303 277 c 0
 303 275 303 274 302 274 c 0
 300 272 296 272 286 272 c 0
 218 274 179 273 127 272 c 0
 108 272 108 273 108 286 c 0
 108 290 108 292 108 294 c 0
 108 297 108 298 112 299 c 0
 113 299 115 299 118 299 c 0
 155 304 158 312 158 360 c 2
 158 629 l 2
 158 654 143 648 124 648 c 0
 64 648 44 632 33 577 c 1
 18 577 l 2
 8 577 8 577 10 598 c 2
 18 672 l 2
 19 685 23 687 38 687 c 0
 115 685 280 685 367 687 c 0
 386 688 390 686 392 667 c 2
 400 595 l 2
EndSplineSet
EndChar

StartChar: acute
Encoding: 194 180 159
Width: 339
Flags: MW
HStem: 638 20G<260 325>
LayerCount: 2
Fore
SplineSet
336 644 m 0
 307 604 245 534 214 499 c 0
 208 493 196 494 199 503 c 0
 210 538 237 624 241 648 c 0
 244 656 250 658 260 658 c 0
 278 659 308 660 325 658 c 0
 334 660 344 655 336 644 c 0
EndSplineSet
EndChar

StartChar: dieresis
Encoding: 200 168 160
Width: 339
Flags: W
HStem: 484 106<315.5 344> 569 20G<147.5 175.5>
VStem: 110 103<522 551> 277 104<522.5 552>
LayerCount: 2
Fore
SplineSet
381 537 m 0xb0
 381 508 358 484 330 484 c 0
 301 484 277 508 277 537 c 0
 277 567 301 590 330 590 c 0
 358 590 381 567 381 537 c 0xb0
213 536 m 0
 213 508 189 484 162 484 c 0xb0
 133 484 110 508 110 536 c 0
 110 566 133 589 162 589 c 0x70
 189 589 213 566 213 536 c 0
EndSplineSet
EndChar

StartChar: AE
Encoding: 225 198 161
Width: 965
Flags: W
HStem: -2 23<348 358 353 358 353 859> 255 30<274 469 303 461> 312 30<596 740 585 780> 616 30 628 20G
LayerCount: 2
Fore
SplineSet
972 630 m 0xf0
 968 598 957 540 948 504 c 0
 946 503 943 500 938 500 c 0
 932 499 928 502 926 504 c 2
 925 517 l 2
 919 589 896 616 821 616 c 2
 643 616 l 2xf0
 637 615 632 613 629 600 c 2
 581 355 l 2
 579 345 589 342 596 342 c 2
 780 342 l 2
 825 342 857 362 874 404 c 0
 879 416 883 413 890 413 c 0
 895 412 898 410 896 400 c 0
 886 368 870 287 864 238 c 0
 863 232 863 225 851 225 c 2
 845 225 l 2
 837 227 841 236 841 240 c 0
 841 296 820 312 740 312 c 2
 585 312 l 2
 577 311 574 308 570 299 c 2
 529 95 l 2
 528 89 527 83 527 76 c 0
 527 40 547 28 619 28 c 2
 685 28 l 2
 748 28 788 40 837 73 c 0
 869 94 883 109 906 144 c 1
 920 144 l 2
 926 144 924 135 922 129 c 2
 881 12 l 2
 878 3 871 -2 859 -2 c 0
 708 0 481 0 353 -2 c 0
 343 -2 341 2 343 11 c 0
 345 17 348 21 358 21 c 0
 415 23 435 43 448 113 c 2
 473 243 l 2
 475 252 474 255 461 255 c 2
 280 255 l 2
 268 255 262 251 255 243 c 2
 157 117 l 2
 132 84 125 72 125 56 c 0
 125 32 134 24 191 21 c 0
 194 19 199 17 197 11 c 0
 195 8 192 -2 180 -2 c 0
 109 0 28 2 -22 -2 c 0
 -26 1 -26 6 -26 10 c 0
 -24 16 -23 19 -17 21 c 0
 13 24 37 34 60 54 c 0
 79 70 97 89 113 109 c 0
 122 121 141 144 169 180 c 2
 486 584 l 2
 493 593 496 599 496 603 c 0
 496 613 486 618 432 622 c 0
 421 623 422 627 425 635 c 0
 428 642 431 647 440 648 c 0xe8
 561 646 825 645 950 646 c 0
 968 646 972 643 972 630 c 0xf0
544 599 m 2
 544 606 543 611 536 605 c 2
 301 301 l 2
 291 288 300 285 303 285 c 2
 469 285 l 2
 475 285 480 288 485 301 c 2
 544 599 l 2
EndSplineSet
EndChar

StartChar: Oslash
Encoding: 233 216 162
Width: 806
Flags: MW
HStem: -18 29<389.5 503.5 389.5 527> 633 29<466.5 528.5>
VStem: 110 94<245 316.5 235.5 388> 719 93<282 405 254.5 417.5>
LayerCount: 2
Fore
SplineSet
812 359 m 0
 812 150 636 -18 418 -18 c 0
 348 -18 294 -2 239 37 c 0
 233 41 226 40 221 34 c 2
 147 -52 l 2
 136 -65 117 -45 123 -38 c 2
 196 47 l 2
 206 59 206 64 201 69 c 0
 139 132 110 203 110 287 c 0
 110 489 290 662 497 662 c 0
 563 662 619 647 673 612 c 0
 678 609 681 613 685 618 c 2
 743 684 l 2
 748 688 770 675 766 667 c 2
 709 600 l 2
 705 596 702 592 707 587 c 0
 777 529 812 451 812 359 c 0
642 566 m 2
 648 576 644 580 637 586 c 0
 596 620 555 633 502 633 c 0
 431 633 362 605 315 555 c 0
 247 484 204 369 204 264 c 0
 204 207 215 157 238 115 c 0
 243 105 248 107 255 115 c 2
 642 566 l 2
719 388 m 0
 719 447 707 496 680 538 c 0
 676 544 668 554 660 545 c 2
 269 89 l 2
 263 83 265 76 271 70 c 0
 311 30 360 11 419 11 c 0
 588 11 719 176 719 388 c 0
EndSplineSet
EndChar

StartChar: plusminus
Encoding: 311 177 163
Width: 679
Flags: MW
HStem: -22 59<69 609 69 609> 387 58<69 309 69 309 367 609> 671 20G<309 367 367 367>
VStem: 309 58<141 387 141 387 445 691>
LayerCount: 2
Fore
SplineSet
609 387 m 1
 367 387 l 1
 367 141 l 1
 309 141 l 1
 309 387 l 1
 69 387 l 1
 69 445 l 1
 309 445 l 1
 309 691 l 1
 367 691 l 1
 367 445 l 1
 609 445 l 1
 609 387 l 1
609 -22 m 1
 69 -22 l 1
 69 37 l 1
 609 37 l 1
 609 -22 l 1
EndSplineSet
EndChar

StartChar: yen
Encoding: 165 165 164
Width: 509
Flags: W
HStem: -4 30<79.5 91 87 91 87 319> 341 42<42 204 204 215 42 227 42 52.5> 497 39<171 177 177 180 171 184 301 308 308 383> 642 20G<109 110> 644 20G<105.5 106 626 626> 663 27<296.5 322>
LayerCount: 2
Fore
SplineSet
626 664 m 1xe8
 593 659 576 652 559 635 c 0
 551 627 543 616 533 601 c 0
 523 587 510 569 494 546 c 0
 487 536 501 536 507 536 c 2
 513 536 l 2
 534 536 561 535 584 536 c 0
 592 536 587 525 585 520 c 2
 580 503 l 2
 577 496 572 495 566 496 c 0
 557 497 495 497 471 497 c 0
 461 497 452 490 449 484 c 0
 435 463 408 423 390 400 c 0
 384 392 385 386 391 383 c 0
 395 382 401 382 405 382 c 0
 422 382 447 381 469 381 c 0
 492 380 512 379 523 381 c 0
 544 381 535 362 532 352 c 0
 529 344 521 340 517 340 c 0
 506 342 424 342 368 341 c 0
 346 341 338 331 332 316 c 2
 281 140 l 2
 270 104 264 79 264 63 c 0
 264 36 276 30 334 26 c 0
 337 26 343 25 342 21 c 2
 336 3 l 2
 334 -1 330 -4 319 -4 c 0
 258 -1 144 -2 81 -4 c 0
 78 -4 74 -1 74 4 c 2
 78 19 l 2
 79 24 83 26 91 26 c 0
 105 27 113 27 119 28 c 0
 125 28 128 29 133 31 c 0
 161 45 165 48 189 133 c 2
 247 328 l 1
 244 337 238 342 227 341 c 0
 178 341 71 341 34 341 c 0
 21 342 17 343 19 352 c 2
 26 376 l 2
 29 384 38 383 42 383 c 0
 57 382 148 383 204 383 c 0
 226 383 228 384 224 399 c 2
 202 482 l 2
 200 492 194 496 184 497 c 0
 182 497 179 497 177 497 c 0
 156 497 101 497 70 497 c 0
 64 496 59 501 61 507 c 0
 61 508 63 513 64 517 c 0
 66 522 67 524 68 529 c 0
 70 533 72 534 77 535 c 0
 82 536 88 535 95 535 c 2
 171 536 l 2
 189 536 187 539 178 566 c 0
 157 631 147 650 118 660 c 0
 115 661 113 661 110 662 c 0xf4
 108 662 107 663 106 664 c 0xe8
 105 664 104 665 104 670 c 2
 106 682 l 2
 107 684 107 688 108 689 c 0
 109 690 112 690 119 690 c 0
 155 689 244 687 322 690 c 0
 331 690 333 687 333 684 c 2
 329 669 l 2
 327 664 324 663 320 663 c 0
 273 663 255 650 255 620 c 0
 255 607 258 587 268 560 c 0
 271 549 276 537 292 536 c 0
 327 534 386 533 425 536 c 0
 431 536 440 538 445 546 c 0
 453 558 466 577 476 594 c 0
 487 611 496 628 496 637 c 0
 496 652 486 660 440 663 c 0
 433 663 432 664 433 669 c 2
 436 683 l 2
 438 689 445 689 451 689 c 0
 527 691 535 684 625 690 c 0xf4
 633 691 638 685 636 679 c 2
 626 664 l 1xe8
383 497 m 2
 308 497 l 2
 294 497 287 496 292 479 c 2
 317 382 l 2
 318 375 321 371 325 373 c 0
 328 375 333 383 335 386 c 0
 350 405 382 453 399 482 c 0
 407 495 402 497 383 497 c 2
EndSplineSet
EndChar

StartChar: mu
Encoding: 312 181 165
Width: 509
Flags: MW
HStem: -225 21G<-12 16> -14 54<367 439> 428 20G<181 223 223 229.5 442 476 476 476>
VStem: 320 81<66 75.5>
LayerCount: 2
Fore
SplineSet
512 101 m 0
 496 50 483 31 455 10 c 0
 435 -4 408 -14 387 -14 c 0
 347 -14 320 19 320 64 c 0
 320 87 317 89 308 77 c 0
 290 51 275 38 252 21 c 0
 197 -20 133 -36 91 27 c 0
 86 34 84 32 81 25 c 0
 66 -29 63 -48 55 -138 c 0
 50 -196 33 -225 -1 -225 c 0
 -23 -225 -39 -207 -39 -182 c 0
 -39 -165 -35 -158 0 -88 c 0
 21 -47 38 3 56 66 c 2
 69 110 l 1
 159 425 l 2
 162 444 174 448 181 448 c 2
 223 448 l 2
 236 448 243 442 239 427 c 2
 171 187 l 2
 163 160 151 125 151 97 c 0
 151 -7 255 45 295 99 c 0
 335 151 339 160 366 255 c 2
 416 429 l 2
 423 446 431 448 442 448 c 2
 476 448 l 2
 489 446 499 442 496 430 c 2
 417 153 l 2
 410 127 401 107 401 80 c 0
 401 52 410 40 427 40 c 0
 451 40 466 55 494 111 c 1
 509 111 l 2
 513 111 515 109 512 101 c 0
EndSplineSet
EndChar

StartChar: ordfeminine
Encoding: 227 170 166
Width: 265
Flags: MW
HStem: 399 21G<130 149 255 267.5> 642 20G<315 333 333 333>
VStem: 100 45<463.5 495>
LayerCount: 2
Fore
SplineSet
333 662 m 1
 293 478 l 2
 291 467 288 456 288 445 c 0
 288 439 290 439 292 439 c 0
 295 439 305 447 315 456 c 0
 321 462 327 469 331 473 c 1
 331 453 l 2
 329 450 327 449 326 448 c 0
 325 447 324 446 324 445 c 0
 295 415 274 399 261 399 c 0
 249 399 240 412 240 429 c 0
 240 439 242 455 249 483 c 1
 190 424 157 399 141 399 c 0
 119 399 100 431 100 464 c 0
 100 526 152 599 221 636 c 0
 250 652 288 662 315 662 c 2
 333 662 l 1
280 627 m 1
 247 624 226 618 208 606 c 0
 171 582 145 530 145 476 c 0
 145 451 154 434 164 434 c 0
 168 434 176 439 190 450 c 0
 203 461 221 479 248 501 c 2
 254 506 l 1
 280 627 l 1
EndSplineSet
EndChar

StartChar: ordmasculine
Encoding: 235 186 167
Width: 265
Flags: MW
HStem: 399 26<156.5 223.5> 636 26<215.5 285.5>
VStem: 112 47<476 524.5> 285 45<534.5 583>
LayerCount: 2
Fore
SplineSet
330 569 m 0
 330 500 285 440 209 408 c 0
 195 402 182 399 173 399 c 0
 140 399 112 447 112 498 c 0
 112 551 145 602 202 637 c 0
 225 652 252 662 268 662 c 0
 303 662 330 619 330 569 c 0
285 562 m 0
 285 604 263 636 235 636 c 0
 196 636 159 570 159 496 c 0
 159 456 179 425 203 425 c 0
 244 425 285 489 285 562 c 0
EndSplineSet
EndChar

StartChar: ae
Encoding: 241 230 168
Width: 583
Flags: W
HStem: -14 41<348.5 436.5> -14 56 -13 21G<101 113> 399 25 405 20G<492 536.5>
VStem: 37 67<102 173.5 102 184.5> 280 70<94 112> 538 59<335.5 364.5>
LayerCount: 2
Fore
SplineSet
597 352 m 0x8f
 597 307 560 265 497 237 c 0
 453 217 405 200 367 190 c 0
 360 189 357 184 356 178 c 0
 351 152 350 143 350 122 c 0
 350 66 381 27 422 27 c 0x97
 451 27 477 39 537 78 c 0
 543 78 545 77 548 74 c 0
 551 69 551 67 549 62 c 0
 477 12 417 -14 375 -14 c 0
 322 -14 280 42 280 110 c 0
 280 114 277 119 268 111 c 0
 249 93 221 66 192 42 c 0x57
 156 12 121 -13 105 -13 c 0
 97 -13 88 -9 79 -1 c 0
 51 21 37 57 37 102 c 0
 37 267 208 424 388 424 c 0x37
 398 424 399 415 397 408 c 2
 390 376 l 2
 387 364 394 369 398 373 c 0
 440 411 472 425 512 425 c 0
 561 425 597 394 597 352 c 0x8f
538 350 m 0
 538 379 519 399 493 399 c 0
 439 399 395 341 366 227 c 0
 363 214 371 214 379 216 c 0
 388 219 397 222 413 228 c 0
 446 240 473 254 493 268 c 0
 520 287 538 321 538 350 c 0
325 359 m 2
 327 370 328 375 315 373 c 0
 268 366 248 359 216 340 c 0
 147 299 104 218 104 129 c 0
 104 75 120 42 140 42 c 0x57
 163 42 201 72 284 156 c 1
 325 359 l 2
EndSplineSet
EndChar

StartChar: oslash
Encoding: 249 248 169
Width: 403
Flags: MW
HStem: -14 41<129 216> 381 44<204.5 295>
VStem: 46 70<147.5 182> 311 69<240 262>
LayerCount: 2
Fore
SplineSet
397 418 m 2
 399 415 402 411 396 404 c 2
 370 373 l 2
 365 368 360 363 365 352 c 0
 376 328 380 302 380 271 c 0
 380 209 361 151 326 105 c 0
 296 66 243 23 194 2 c 0
 172 -8 152 -14 139 -14 c 0
 119 -14 101 -3 84 22 c 0
 78 29 75 28 69 21 c 2
 44 -8 l 2
 40 -12 36 -15 32 -9 c 0
 28 -4 24 0 30 7 c 2
 59 42 l 2
 65 49 63 58 61 64 c 0
 51 91 46 120 46 150 c 0
 46 214 75 281 125 333 c 0
 172 383 245 425 286 425 c 0
 304 425 326 411 345 388 c 0
 350 381 354 387 360 393 c 2
 384 422 l 2
 388 426 391 425 394 422 c 2
 397 418 l 2
295 333 m 0
 281 364 259 381 235 381 c 0
 174 381 116 272 116 152 c 0
 116 143 116 136 117 129 c 0
 119 111 123 116 131 125 c 2
 292 314 l 2
 298 321 298 328 295 333 c 0
311 257 m 0
 311 267 311 274 309 285 c 0
 307 296 304 297 293 284 c 2
 134 97 l 2
 128 90 126 85 130 76 c 0
 144 44 163 27 183 27 c 0
 249 27 311 136 311 257 c 0
EndSplineSet
EndChar

StartChar: questiondown
Encoding: 191 191 170
Width: 403
Flags: MW
HStem: -243 79<154.5 186 152.5 223> 314 111<300.5 319>
VStem: 52 38<-106.5 -63.5 -106.5 -51>
LayerCount: 2
Fore
SplineSet
355 375 m 0
 355 340 334 314 304 314 c 0
 269 314 262 351 263 369 c 0
 266 401 287 425 314 425 c 0
 339 425 355 404 355 375 c 0
293 235 m 0
 285 160 270 104 247 73 c 0
 236 58 217 45 178 23 c 0
 114 -13 90 -43 90 -84 c 0
 90 -129 127 -164 178 -164 c 0
 194 -164 216 -160 240 -152 c 0
 250 -149 257 -148 262 -148 c 0
 279 -148 290 -165 290 -188 c 0
 290 -220 249 -243 197 -243 c 0
 112 -243 52 -177 52 -82 c 0
 52 -20 72 37 105 68 c 0
 119 81 139 95 165 108 c 0
 214 133 229 144 245 174 c 0
 258 197 262 208 269 240 c 0
 270 243 272 250 278 251 c 2
 288 251 l 2
 295 251 294 246 293 235 c 0
EndSplineSet
EndChar

StartChar: exclamdown
Encoding: 161 161 171
Width: 297
Flags: MW
HStem: -243 21G<74.5 90 90 111> 314 111<213 230.5>
LayerCount: 2
Fore
SplineSet
267 375 m 0
 267 340 245 314 216 314 c 0
 184 314 173 345 176 369 c 0
 179 401 200 425 226 425 c 0
 250 425 267 404 267 375 c 0
207 236 m 2
 148 -205 l 2
 144 -233 138 -243 111 -243 c 2
 90 -243 l 2
 59 -243 52 -234 60 -205 c 2
 183 240 l 2
 186 247 187 250 194 250 c 2
 199 250 l 2
 204 248 208 246 207 236 c 2
EndSplineSet
EndChar

StartChar: logicalnot
Encoding: 313 172 172
Width: 679
Flags: MW
HStem: 182 21G<552 609 552 552> 428 59<69 552 69 609>
VStem: 552 57<182 428 428 428>
LayerCount: 2
Fore
SplineSet
609 182 m 1
 552 182 l 1
 552 428 l 1
 69 428 l 1
 69 487 l 1
 609 487 l 1
 609 182 l 1
EndSplineSet
EndChar

StartChar: guillemotleft
Encoding: 171 171 173
Width: 446
Flags: MW
HStem: 35 21G<205 232 205 205> 401 20G<292 317 317 317>
LayerCount: 2
Fore
SplineSet
453 398 m 1
 343 227 l 1
 371 60 l 1
 345 60 l 1
 267 228 l 1
 426 398 l 1
 453 398 l 1
317 421 m 1
 170 227 l 1
 232 35 l 1
 205 35 l 1
 95 228 l 1
 292 421 l 1
 317 421 l 1
EndSplineSet
EndChar

StartChar: guillemotright
Encoding: 187 187 174
Width: 446
Flags: MW
HStem: 35 21G<229 255 229 229> 401 20G<316 342 342 342>
LayerCount: 2
Fore
SplineSet
452 228 m 1
 255 35 l 1
 229 35 l 1
 377 229 l 1
 316 421 l 1
 342 421 l 1
 452 228 l 1
280 228 m 1
 120 58 l 1
 93 58 l 1
 205 229 l 1
 175 396 l 1
 201 396 l 1
 280 228 l 1
EndSplineSet
EndChar

StartChar: ellipsis
Encoding: 188 8230 175
Width: 1017
Flags: MW
HStem: -14 110<162 180 500.5 519.5 838.5 857.5>
LayerCount: 2
Fore
SplineSet
894 48 m 0
 894 13 872 -14 843 -14 c 0
 811 -14 797 16 800 43 c 0
 803 75 825 96 852 96 c 0
 877 96 894 76 894 48 c 0
556 42 m 0
 556 7 534 -14 505 -14 c 0
 466 -14 461 22 463 42 c 0
 467 73 487 96 514 96 c 0
 545 96 556 71 556 42 c 0
216 48 m 0
 216 13 195 -14 165 -14 c 0
 132 -14 121 13 125 42 c 0
 129 73 149 96 175 96 c 0
 200 96 216 76 216 48 c 0
EndSplineSet
EndChar

StartChar: Agrave
Encoding: 315 192 177
Width: 693
Flags: MW
HStem: -2 25<-37 -35 -35 -28 -37 205 376 380 380 427> 279 45<280.5 335 327.5 335 327.5 480> 856 20G<464 538 538 540>
VStem: 494 87
LayerCount: 2
Fore
SplineSet
599 718 m 2
 600 715 598 713 592 713 c 0
 588 713 583 714 581 717 c 2
 458 863 l 2
 449 871 458 876 464 876 c 2
 538 876 l 2
 542 876 547 877 550 873 c 0
 550 872 551 871 551 870 c 2
 599 718 l 2
676 9 m 0
 675 0 672 -2 662 -2 c 0
 586 2 448 0 380 -2 c 0
 370 -2 369 23 383 23 c 0
 471 23 495 41 495 105 c 2
 494 268 l 2
 494 271 486 279 480 279 c 2
 283 279 l 2
 278 279 274 277 269 272 c 2
 144 106 l 2
 132 90 125 75 125 64 c 0
 125 30 158 26 182 25 c 0
 192 24 200 25 208 25 c 0
 221 25 218 -2 205 -2 c 0
 149 0 29 0 -35 -2 c 0
 -46 -2 -46 23 -28 23 c 0
 24 33 46 47 99 116 c 2
 515 657 l 2
 516 660 521 663 526 664 c 0
 539 668 555 667 566 664 c 0
 577 662 578 657 578 648 c 2
 584 80 l 2
 584 37 608 29 631 26 c 0
 640 25 650 26 659 26 c 0
 661 26 664 26 666 26 c 0
 673 25 678 18 676 9 c 0
496 339 m 0
 496 393 496 498 496 546 c 0
 496 565 484 561 479 554 c 2
 321 339 l 2
 316 333 320 324 335 324 c 2
 477 325 l 2
 490 325 496 333 496 339 c 0
EndSplineSet
EndChar

StartChar: Atilde
Encoding: 316 195 178
Width: 693
Flags: W
HStem: -2 25<-37 -35 -35 -28 -37 205 376 380 380 427> 279 45<280.5 335 327.5 335 327.5 480> 719 66<637.5 654.5> 789 66<470 487.5> 834 20G<708 716.5>
LayerCount: 2
Fore
SplineSet
676 9 m 0xe8
 675 0 672 -2 662 -2 c 0
 586 2 448 0 380 -2 c 0
 370 -2 369 23 383 23 c 0
 471 23 495 41 495 105 c 2
 494 268 l 2
 494 271 486 279 480 279 c 2
 283 279 l 2
 278 279 274 277 269 272 c 2
 144 106 l 2
 132 90 125 75 125 64 c 0
 125 30 158 26 182 25 c 0
 192 24 200 25 208 25 c 0
 221 25 218 -2 205 -2 c 0
 149 0 29 0 -35 -2 c 0
 -46 -2 -46 23 -28 23 c 0
 24 33 46 47 99 116 c 2
 515 657 l 2
 516 660 521 663 526 664 c 0
 539 668 555 667 566 664 c 0
 577 662 578 657 578 648 c 2
 584 80 l 2
 584 37 608 29 631 26 c 0
 640 25 650 26 659 26 c 0
 661 26 664 26 666 26 c 0
 673 25 678 18 676 9 c 0xe8
496 339 m 0
 496 393 496 498 496 546 c 0
 496 565 484 561 479 554 c 2
 321 339 l 2
 316 333 320 324 335 324 c 2
 477 325 l 2
 490 325 496 333 496 339 c 0
721 841 m 0
 721 772 681 719 628 719 c 0
 561 719 507 789 468 789 c 0
 443 789 432 776 423 728 c 0
 422 722 419 720 411 720 c 0
 404 720 402 724 403 734 c 0
 410 813 443 855 497 855 c 0xf0
 559 855 618 785 657 785 c 0
 680 785 694 801 701 844 c 0
 702 852 704 854 712 854 c 0
 721 854 721 848 721 841 c 0
EndSplineSet
EndChar

StartChar: Otilde
Encoding: 317 213 179
Width: 819
Flags: W
HStem: -18 31<387 387> 631 31<443.5 481> 719 66<576.5 593.5> 789 66<409 426.5> 834 20G<647 655.5>
VStem: 88 94<200.5 315.5 185.5 389> 688 94<282.5 443.5 254 460.5>
LayerCount: 2
Fore
SplineSet
782 358 m 0xee
 782 150 606 -18 387 -18 c 0
 211 -18 88 114 88 287 c 0
 88 491 267 662 480 662 c 0
 656 662 782 529 782 358 c 0xee
688 389 m 0
 688 532 609 632 481 631 c 0
 406 631 342 605 295 555 c 0
 226 482 182 369 182 262 c 0
 182 109 256 14 387 13 c 0
 556 12 688 176 688 389 c 0
660 841 m 0
 660 772 620 719 567 719 c 0
 500 719 446 789 407 789 c 0
 382 789 371 776 362 728 c 0
 361 722 358 720 350 720 c 0
 343 720 341 724 342 734 c 0
 349 813 382 855 436 855 c 0xf6
 498 855 557 785 596 785 c 0
 619 785 633 801 640 844 c 0
 641 852 643 854 651 854 c 0
 660 854 660 848 660 841 c 0
EndSplineSet
EndChar

StartChar: OE
Encoding: 234 338 180
Width: 1049
Flags: W
HStem: -6 29<334.5 403> -2 21G<519 526 526 927> 311 30<688 819 676 858> 616 31<744 752 752 899> 631 20G<491 531.5>
VStem: 93 92<197 311 191 365>
LayerCount: 2
Fore
SplineSet
1053 636 m 0xb4
 1049 591 1032 533 1026 505 c 0
 1023 500 1010 502 1007 505 c 2
 1007 517 l 2
 1007 589 977 616 899 616 c 2
 752 616 l 2
 736 616 728 613 721 601 c 1
 670 349 l 2
 669 343 683 341 688 341 c 0
 730 341 813 340 858 341 c 0
 907 342 940 362 955 409 c 1
 962 414 970 412 977 409 c 1
 971 358 950 273 941 228 c 0
 938 222 920 222 918 229 c 0
 919 232 919 235 919 238 c 0
 919 295 899 311 819 311 c 2
 676 311 l 2
 671 310 661 300 660 295 c 2
 620 95 l 2
 607 29 658 28 711 28 c 0
 791 28 847 24 916 72 c 0
 946 92 963 108 983 139 c 0
 986 142 992 143 996 144 c 0
 1000 144 1005 142 1004 138 c 0
 995 106 969 47 957 18 c 0
 946 -8 938 -2 927 -2 c 2
 526 -2 l 2x74
 512 -2 492 -3 464 -4 c 0
 437 -5 413 -6 393 -6 c 0
 212 -6 93 109 93 285 c 0
 93 445 201 589 355 631 c 0
 406 645 458 651 524 651 c 0xac
 539 651 554 651 569 650 c 2
 654 647 l 1
 1043 647 l 2
 1052 647 1054 643 1053 636 c 0xb4
626 549 m 0
 626 597 586 622 504 622 c 0
 413 622 338 586 277 514 c 0
 218 445 185 355 185 267 c 0
 185 115 267 23 402 23 c 0xb4
 438 23 467 30 491 43 c 0
 523 60 537 90 553 169 c 2
 621 509 l 2
 624 523 626 538 626 549 c 0
EndSplineSet
EndChar

StartChar: oe
Encoding: 250 339 181
Width: 581
Flags: W
HStem: -15 40 -14 21G<357.5 401> 385 39<194 283.5> 399 25<476.5 499>
VStem: 33 68<143.5 187> 290 53 535 57<328.5 362>
LayerCount: 2
Fore
SplineSet
592 349 m 0xae
 592 308 560 270 504 242 c 0
 457 219 404 200 359 188 c 0
 352 187 347 187 345 168 c 0
 343 153 343 143 343 127 c 0
 343 60 370 25 420 25 c 0x9e
 453 25 491 42 539 79 c 0
 542 82 546 82 549 76 c 0
 551 71 552 64 548 60 c 0
 485 11 424 -14 378 -14 c 0x6e
 337 -14 307 11 288 62 c 0
 284 73 278 76 271 68 c 0
 248 44 235 34 214 20 c 0
 184 1 146 -15 124 -15 c 0
 75 -15 33 56 33 137 c 0
 33 237 82 326 171 388 c 0
 206 412 237 424 264 424 c 0
 303 424 329 398 346 340 c 0
 349 329 354 334 360 342 c 0
 400 398 448 424 505 424 c 0
 558 424 592 395 592 349 c 0xae
535 347 m 0
 535 377 514 399 484 399 c 0
 424 399 383 347 356 229 c 0
 353 216 354 210 367 213 c 0
 476 243 535 292 535 347 c 0
290 266 m 0
 290 336 261 385 226 385 c 0xae
 162 385 101 289 101 167 c 0
 101 120 109 29 176 29 c 0
 233 29 290 144 290 266 c 0
EndSplineSet
EndChar

StartChar: endash
Encoding: 177 8211 182
Width: 617
Flags: MW
HStem: 186 54<74 128.5 74 543>
LayerCount: 2
Fore
SplineSet
562 227 m 2
 559 195 l 2
 558 188 552 186 543 186 c 0
 424 186 188 186 69 186 c 0
 59 186 58 192 59 199 c 2
 62 229 l 2
 62 234 69 239 74 240 c 0
 196 240 432 240 548 240 c 0
 556 240 562 232 562 227 c 2
EndSplineSet
EndChar

StartChar: emdash
Encoding: 208 8212 183
Width: 822
Flags: MW
HStem: 183 55<108 731 104 732>
LayerCount: 2
Fore
SplineSet
747 229 m 0
 751 214 746 211 745 194 c 0
 743 190 738 182 731 183 c 2
 104 183 l 2
 97 182 87 186 88 196 c 0
 88 207 90 209 91 219 c 0
 91 225 91 238 108 238 c 2
 732 238 l 2
 739 236 745 235 747 229 c 0
EndSplineSet
EndChar

StartChar: quotedblleft
Encoding: 170 8220 184
Width: 509
Flags: W
HStem: 393 21G<246 274 447 474.5>
VStem: 208 67<444.5 545.5> 208 95<444.5 448 427.5 502.5> 409 66<444.5 550.5> 409 95<444.5 448 427.5 502.5>
LayerCount: 2
Fore
SplineSet
566 651 m 0xc8
 569 646 568 638 564 637 c 0
 523 606 475 574 475 527 c 0xb0
 475 512 478 503 489 485 c 0
 499 468 504 455 504 441 c 0
 504 414 486 393 463 393 c 0
 431 393 409 424 409 465 c 0
 409 540 462 611 553 657 c 0
 556 659 563 658 566 651 c 0xc8
365 654 m 0
 368 649 367 640 363 637 c 0
 298 594 275 564 275 527 c 0xd0
 275 512 277 503 288 485 c 0
 298 468 303 455 303 441 c 0
 303 414 286 393 262 393 c 0
 230 393 208 424 208 465 c 0
 208 540 263 611 353 657 c 0
 356 658 362 657 365 654 c 0
EndSplineSet
EndChar

StartChar: quotedblright
Encoding: 186 8221 185
Width: 509
Flags: W
HStem: 637 20G<254 282 455 482.5>
VStem: 225 94<602.5 605.5 547 623> 426 93<602.5 605.5 547 623>
LayerCount: 2
Fore
SplineSet
519 584 m 0
 519 510 466 440 376 393 c 0
 362 386 350 409 366 413 c 1
 431 456 454 486 454 524 c 0xe0
 454 539 452 548 441 565 c 0
 431 581 426 596 426 609 c 0
 426 637 443 657 467 657 c 0
 498 657 519 627 519 584 c 0
319 584 m 0
 319 510 265 438 175 393 c 0
 163 387 155 406 165 413 c 0
 230 456 253 486 253 524 c 0xe0
 253 539 250 548 240 564 c 0
 229 582 225 596 225 609 c 0
 225 637 242 657 266 657 c 0
 298 657 319 627 319 584 c 0
EndSplineSet
EndChar

StartChar: quoteleft
Encoding: 96 8216 186
Width: 297
Flags: W
HStem: 393 21G<231.5 259>
VStem: 193 67<444.5 545.5> 193 95<444.5 448 427.5 502.5>
LayerCount: 2
Fore
SplineSet
348 637 m 1xa0
 283 594 260 564 260 527 c 0xc0
 260 512 262 503 273 485 c 0
 284 468 288 455 288 441 c 0
 288 414 271 393 247 393 c 0
 216 393 193 424 193 465 c 0
 193 540 248 611 339 657 c 0
 353 660 364 642 348 637 c 1xa0
EndSplineSet
EndChar

StartChar: quoteright
Encoding: 39 8217 187
Width: 273
Flags: W
HStem: 624 20G<221 248>
VStem: 192 96<590 594.5 536 610.5>
LayerCount: 2
Fore
SplineSet
288 573 m 0
 288 499 232 426 142 380 c 0
 127 372 120 393 131 401 c 0
 197 444 220 474 220 511 c 0xc0
 220 527 218 535 207 552 c 0
 196 569 192 583 192 597 c 0
 192 624 209 644 233 644 c 0
 263 644 288 616 288 573 c 0
EndSplineSet
EndChar

StartChar: divide
Encoding: 318 247 188
Width: 680
Flags: MW
HStem: 89 76<328 349.5> 305 57<70 610 70 610> 505 76<329 349 329 349>
VStem: 300 76<116.5 138 546 554.5>
LayerCount: 2
Fore
SplineSet
376 544 m 0
 376 522 359 505 339 505 c 0
 317 505 299 523 300 546 c 0
 300 566 319 581 339 581 c 0
 359 581 376 565 376 544 c 0
610 305 m 1
 70 305 l 1
 70 362 l 1
 610 362 l 1
 610 305 l 1
376 127 m 0
 376 106 360 89 339 89 c 0
 317 89 300 106 300 127 c 0
 300 149 317 165 339 165 c 0
 360 165 376 149 376 127 c 0
EndSplineSet
EndChar

StartChar: ydieresis
Encoding: 319 255 189
Width: 437
Flags: W
HStem: -276 21G<191 194.5> -275 24<-15.5 -15> 371 57<152 154> 409 20G<387 411> 486 101<365.5 393> 566 20G<206.5 233>
VStem: 181 52 181 88 330 98<523 551> 356 85<381.5 391 361 397>
LayerCount: 2
Fore
SplineSet
428 537 m 0x6980
 428 509 407 486 379 486 c 0
 352 486 330 509 330 537 c 0
 330 565 352 587 379 587 c 0
 407 587 428 565 428 537 c 0x6980
269 536 m 0
 269 509 246 486 220 486 c 0x5940
 193 486 171 509 171 536 c 0
 171 564 193 586 220 586 c 0x6680
 246 586 269 564 269 536 c 0
441 375 m 0
 441 347 432 323 406 275 c 0
 384 235 350 188 319 143 c 0
 287 97 259 54 245 23 c 0
 212 -50 184 -126 151 -200 c 0
 132 -242 130 -251 188 -251 c 0x6a40
 196 -251 208 -251 205 -263 c 0
 203 -270 198 -276 191 -276 c 0xaa80
 133 -273 37 -273 -15 -275 c 0
 -24 -275 -23 -251 -8 -251 c 0
 50 -249 54 -249 71 -216 c 0
 100 -158 134 -84 149 -42 c 0
 162 -6 178 30 181 68 c 0
 190 188 173 371 135 371 c 0
 118 371 95 339 85 325 c 0
 79 317 73 308 67 300 c 0
 60 291 44 307 52 320 c 0
 100 391 140 428 164 428 c 0
 232 428 239 148 233 70 c 0x6a80
 231 48 236 54 245 68 c 0
 280 127 377 290 370 348 c 0
 369 355 365 361 362 367 c 0
 359 373 356 378 356 385 c 0
 356 409 376 429 398 429 c 0
 424 429 441 407 441 375 c 0
EndSplineSet
EndChar

StartChar: Ydieresis
Encoding: 320 376 190
Width: 639
Flags: W
HStem: -2 30<441 445 441 464> 622 24<107.5 328 114 330.5> 702 107<542.5 571> 788 20G<374.5 402.5>
VStem: 337 103<741 770> 504 104<741.5 771>
LayerCount: 2
Fore
SplineSet
608 756 m 0xec
 608 727 585 702 557 702 c 0
 528 702 504 727 504 756 c 0
 504 786 528 809 557 809 c 0
 585 809 608 786 608 756 c 0xec
440 755 m 0
 440 727 416 702 389 702 c 0xec
 360 702 337 727 337 755 c 0
 337 785 360 808 389 808 c 0xdc
 416 808 440 785 440 755 c 0
762 638 m 0
 760 629 757 626 756 625 c 0
 714 609 701 602 660 554 c 2
 406 262 l 1
 375 112 l 2
 362 50 369 26 441 28 c 0
 449 28 462 29 469 27 c 0
 479 25 469 -2 464 -2 c 0
 388 0 248 0 162 -2 c 0
 153 0 160 26 170 27 c 0
 193 28 230 28 250 41 c 0
 266 52 276 72 285 113 c 2
 317 263 l 1
 191 550 l 2
 166 608 149 620 112 622 c 0
 103 622 101 625 103 635 c 0
 104 641 108 646 114 646 c 0
 176 643 276 644 328 646 c 0
 334 644 338 642 335 634 c 0
 334 629 332 622 329 622 c 0
 270 617 259 615 288 548 c 2
 390 315 l 2
 393 307 393 299 406 315 c 2
 590 529 l 2
 620 564 629 575 629 590 c 0
 629 610 610 620 567 622 c 0
 558 624 565 648 575 646 c 0
 638 643 688 642 752 646 c 0
 757 646 763 643 762 638 c 0
EndSplineSet
EndChar

StartChar: fraction
Encoding: 164 8260 191
Width: 191
Flags: W
LayerCount: 2
Fore
SplineSet
488 668 m 2
 -135 -29 l 2
 -147 -38 -161 -41 -171 -40 c 0
 -182 -38 -187 -31 -175 -17 c 2
 448 680 l 2
 455 685 469 690 481 689 c 0
 493 687 495 680 488 668 c 2
EndSplineSet
EndChar

StartChar: Euro
Encoding: 321 8364 192
Width: 463
Flags: MW
HStem: -18 26<250 307> 224 39<15.5 85 27 85 27 86 182 367> 337 39<38.5 101 50 92 195 390> 586 27<333.5 396.5 309.5 413.5>
VStem: 86 96<224 224>
LayerCount: 2
Fore
SplineSet
373 263 m 2
 384 263 387 258 387 252 c 0
 387 241 379 224 367 224 c 2
 182 224 l 1
 183 118 210 8 290 8 c 0
 355 8 416 49 451 139 c 0
 455 150 459 151 466 151 c 0
 474 151 480 149 477 137 c 0
 466 97 454 32 448 -2 c 1
 441 1 419 2 414 2 c 0
 385 2 340 -18 274 -18 c 0
 173 -18 94 48 86 224 c 1
 21 224 l 2
 10 224 7 229 7 235 c 0
 7 246 15 263 27 263 c 2
 85 263 l 1
 85 288 88 313 92 337 c 1
 44 337 l 2
 33 337 30 342 30 348 c 0
 30 359 38 376 50 376 c 2
 101 376 l 1
 133 493 246 613 373 613 c 0
 420 613 484 600 527 572 c 0
 531 569 536 561 532 545 c 0
 524 514 516 469 509 429 c 0
 508 422 501 423 495 423 c 0
 487 423 483 425 483 440 c 0
 483 541 448 586 379 586 c 0
 288 586 221 499 195 376 c 1
 396 376 l 2
 407 376 410 371 410 365 c 0
 410 354 402 337 390 337 c 2
 188 337 l 1
 185 313 183 289 182 263 c 1
 373 263 l 2
EndSplineSet
EndChar

StartChar: guilsinglleft
Encoding: 172 8249 193
Width: 730
Flags: W
HStem: -275 40<-119.5 -44> -15 21G<567.5 607> 371 44<359 365 365 367> 706 44<316 423.5> 733 20G<607.5 651>
LayerCount: 2
Fore
SplineSet
383 417 m 0xf0
 394 421 399 430 402 447 c 0
 407 483 413 514 427 554 c 0
 447 613 466 649 491 681 c 0
 528 727 584 753 631 753 c 0xe8
 671 753 713 724 712 693 c 0
 710 659 690 650 663 656 c 0
 647 660 637 674 628 685 c 0
 617 698 605 710 585 709 c 0
 568 709 540 697 526 675 c 0
 509 648 495 600 481 517 c 2
 468 441 l 2
 466 429 473 416 482 415 c 0
 504 414 541 414 563 415 c 0
 591 415 607 416 620 418 c 0
 633 419 644 422 658 426 c 0
 664 427 682 432 682 422 c 2
 621 59 l 2
 621 55 620 51 620 47 c 0
 620 42 622 37 629 37 c 0
 636 37 660 50 698 98 c 0
 706 109 722 94 719 80 c 1
 667 13 625 -15 589 -15 c 0
 546 -15 547 30 552 59 c 0
 570 164 584 238 600 338 c 0
 605 367 590 370 583 370 c 0
 547 371 509 372 478 371 c 0
 470 371 465 369 461 366 c 0
 458 363 456 357 454 353 c 2
 410 110 l 2
 389 -8 365 -163 261 -239 c 0
 231 -261 199 -275 162 -275 c 0
 120 -275 81 -246 86 -219 c 0
 92 -188 110 -188 128 -190 c 0
 142 -191 155 -207 165 -216 c 0
 175 -226 186 -235 202 -235 c 0
 231 -235 263 -211 279 -179 c 0
 290 -157 299 -121 307 -84 c 0
 314 -47 321 -9 325 16 c 0
 348 131 362 226 381 338 c 0
 383 351 375 371 359 371 c 0
 343 372 301 373 299 373 c 0
 298 373 249 372 229 373 c 0
 211 371 194 365 191 346 c 2
 149 109 l 2
 128 -8 104 -163 1 -239 c 0
 -29 -261 -63 -275 -98 -275 c 0
 -141 -275 -180 -246 -174 -218 c 0
 -169 -188 -150 -188 -132 -189 c 0
 -118 -190 -106 -207 -97 -216 c 0
 -86 -226 -74 -235 -58 -235 c 0
 -30 -235 2 -211 18 -179 c 0
 27 -161 35 -135 42 -102 c 0
 49 -69 56 -29 65 16 c 0
 87 131 104 238 123 350 c 0
 124 358 122 372 110 370 c 2
 68 373 l 2
 64 372 61 375 61 383 c 0
 62 390 66 397 71 400 c 0
 108 403 123 407 132 413 c 1
 140 450 151 512 165 552 c 0
 186 611 205 647 231 679 c 0
 268 724 331 750 377 750 c 0
 470 750 474 643 408 650 c 0
 376 653 364 706 325 706 c 0
 307 706 278 694 265 673 c 0
 249 647 235 598 221 515 c 2
 207 434 l 2
 205 423 221 415 232 415 c 0
 254 414 348 415 365 415 c 0
 372 415 378 415 383 417 c 0xf0
EndSplineSet
EndChar

StartChar: guilsinglright
Encoding: 173 8250 194
Width: 737
Flags: W
HStem: -275 41<-119.5 -44> -275 86 -15 21G<581 612.5> 370 45<222 318> 705 45<316 424>
LayerCount: 2
Fore
SplineSet
191 346 m 2xb8
 149 109 l 2
 128 -9 104 -163 1 -239 c 0
 -29 -261 -62 -275 -98 -275 c 0
 -141 -275 -180 -246 -175 -218 c 0
 -169 -188 -150 -188 -132 -189 c 0x78
 -118 -190 -106 -206 -96 -215 c 0
 -85 -226 -74 -234 -58 -234 c 0xb8
 -30 -234 2 -210 18 -179 c 0
 27 -161 34 -135 41 -102 c 0
 48 -69 55 -29 64 16 c 0
 86 131 103 238 122 350 c 0
 123 358 121 371 110 370 c 2
 68 373 l 2
 56 370 60 394 71 400 c 1
 108 403 123 407 132 412 c 1
 139 449 151 512 165 552 c 0
 186 611 204 646 231 678 c 0
 268 724 331 750 377 750 c 0
 471 750 475 641 408 649 c 0
 375 652 363 705 325 705 c 0
 307 705 279 693 265 672 c 0
 249 646 235 598 221 514 c 2
 207 433 l 2
 205 422 221 415 232 415 c 0
 254 414 301 415 318 415 c 0
 335 415 351 415 351 415 c 2
 384 415 391 428 393 437 c 0
 400 473 411 519 422 552 c 0
 442 611 460 647 487 679 c 0
 529 731 618 777 683 737 c 0
 689 734 696 733 702 736 c 0
 711 740 718 745 726 750 c 0
 734 760 744 759 746 749 c 2
 629 70 l 2
 628 63 627 44 637 44 c 0
 650 44 664 51 703 100 c 0
 711 110 734 93 725 81 c 0
 671 12 631 -15 594 -15 c 0
 568 -15 558 1 556 23 c 0
 554 44 558 67 562 88 c 2
 609 343 l 2
 611 351 611 372 598 373 c 0
 536 374 496 372 466 372 c 0
 457 370 449 362 447 350 c 2
 406 109 l 2
 386 -9 360 -163 257 -239 c 0
 227 -261 195 -275 158 -275 c 0
 115 -275 76 -246 81 -218 c 0
 86 -188 106 -188 124 -189 c 0x78
 139 -190 150 -205 161 -215 c 0
 171 -225 182 -234 198 -234 c 0
 227 -234 258 -210 274 -179 c 0
 283 -161 290 -135 297 -102 c 0
 304 -69 312 -29 320 16 c 0
 343 132 359 237 378 350 c 0
 379 356 377 368 369 370 c 0
 353 371 353 371 352 371 c 0
 351 371 242 370 222 370 c 0
 210 369 194 364 191 346 c 2xb8
521 672 m 0
 505 646 491 598 477 514 c 2
 464 439 l 2
 461 430 465 414 472 414 c 0
 506 414 563 413 602 414 c 0
 610 414 624 416 627 434 c 2
 668 651 l 1
 634 711 563 736 521 672 c 0
EndSplineSet
EndChar

StartChar: fi
Encoding: 174 64257 195
Width: 504
Flags: MW
HStem: -275 37<-94.5 -17.5> -14 21G<337 376.5> 374 38 730 20G<385 454>
LayerCount: 2
Fore
SplineSet
488 80 m 1
 436 13 395 -14 358 -14 c 0
 316 -14 318 28 323 58 c 0
 341 164 357 257 374 356 c 0
 375 362 377 375 368 375 c 0
 332 376 266 376 233 375 c 0
 224 375 224 370 220 362 c 2
 176 109 l 2
 156 -9 130 -164 26 -239 c 0
 -4 -261 -37 -275 -73 -275 c 0
 -116 -275 -154 -246 -149 -220 c 0
 -143 -191 -126 -191 -108 -192 c 0
 -97 -193 -89 -201 -82 -208 c 0
 -68 -222 -55 -238 -32 -238 c 0
 -3 -238 30 -213 46 -181 c 0
 55 -163 61 -137 69 -103 c 0
 76 -70 84 -30 93 14 c 0
 115 130 134 250 153 363 c 0
 154 366 151 374 146 374 c 2
 95 374 l 2
 89 373 89 381 90 387 c 0
 92 395 97 398 99 399 c 0
 137 402 152 406 162 412 c 1
 168 449 181 512 195 552 c 0
 216 612 234 647 261 679 c 0
 298 724 362 750 408 750 c 0
 500 750 504 645 439 652 c 0
 422 654 409 672 398 684 c 0
 387 696 374 709 355 708 c 0
 337 708 307 696 293 675 c 0
 276 648 263 599 248 516 c 2
 231 422 l 2
 229 413 238 412 239 412 c 0
 262 411 310 411 332 412 c 0
 361 413 377 412 390 414 c 0
 403 416 412 419 429 422 c 0
 439 424 451 429 452 422 c 2
 389 58 l 2
 388 50 384 32 397 32 c 0
 406 32 432 49 469 96 c 0
 477 106 492 92 488 80 c 1
EndSplineSet
EndChar

StartChar: fl
Encoding: 175 64258 196
Width: 487
Flags: MW
HStem: -275 37<-116.5 -39.5> -14 21G<333 364.5> 374 39<221 227.5 221 357>
LayerCount: 2
Fore
SplineSet
497 751 m 2
 377 58 l 2
 376 50 373 34 386 34 c 0
 400 34 418 50 458 99 c 0
 464 106 484 91 476 81 c 0
 423 13 383 -14 346 -14 c 0
 320 -14 311 2 309 23 c 0
 307 44 312 66 316 87 c 2
 367 361 l 2
 367 362 365 374 357 374 c 0
 295 376 243 374 212 374 c 0
 207 374 198 370 198 360 c 2
 154 109 l 2
 133 -9 108 -164 4 -239 c 0
 -26 -261 -59 -275 -95 -275 c 0
 -138 -275 -176 -246 -171 -220 c 0
 -165 -191 -147 -191 -129 -192 c 0
 -119 -193 -111 -201 -104 -208 c 0
 -90 -222 -77 -238 -54 -238 c 0
 -25 -238 8 -213 24 -181 c 0
 33 -163 40 -137 48 -103 c 0
 55 -70 62 -30 71 14 c 0
 94 131 112 248 131 362 c 0
 132 363 129 375 120 374 c 2
 69 374 l 2
 58 374 59 395 74 397 c 0
 104 400 118 405 140 412 c 1
 147 449 159 512 173 552 c 0
 193 612 212 647 239 679 c 0
 284 734 380 781 446 731 c 1
 459 736 470 744 481 751 c 1
 489 761 496 758 497 751 c 2
423 652 m 1
 388 714 314 741 272 675 c 0
 254 648 241 599 226 516 c 2
 210 427 l 2
 209 423 211 413 221 413 c 0
 255 412 326 412 366 413 c 0
 373 413 377 416 379 423 c 2
 423 652 l 1
EndSplineSet
EndChar

StartChar: daggerdbl
Encoding: 179 8225 197
Width: 508
Flags: W
HStem: -275 41<-119.5 -44> 371 44<358 366> 705 45<316 424> 734 20G<609.5 653>
LayerCount: 2
Fore
SplineSet
390 417 m 0xe0
 400 421 405 429 408 446 c 0
 414 482 420 513 434 553 c 0
 454 612 472 648 498 681 c 0
 534 727 586 754 633 754 c 0xd0
 673 754 710 729 709 697 c 0
 708 672 685 666 664 668 c 0
 632 672 626 711 587 710 c 0
 569 710 547 696 534 674 c 0
 517 648 503 599 489 516 c 2
 476 440 l 2
 473 428 475 419 483 418 c 2
 540 418 l 2
 547 418 547 406 544 394 c 0
 541 381 535 370 528 370 c 1
 527 366 487 370 485 370 c 0
 473 369 466 363 461 353 c 2
 418 110 l 2
 397 -9 372 -163 268 -239 c 0
 238 -261 206 -275 169 -275 c 0
 127 -275 87 -246 92 -218 c 0
 98 -187 117 -187 135 -189 c 0
 150 -190 162 -206 172 -215 c 0
 182 -225 193 -234 209 -234 c 0
 238 -234 270 -211 286 -179 c 0
 297 -157 306 -121 313 -84 c 0
 321 -47 327 -9 332 16 c 0
 354 131 368 226 387 338 c 0
 389 350 382 370 366 371 c 0
 350 371 303 371 302 370 c 0
 301 370 242 369 222 369 c 0
 210 369 194 364 191 346 c 2
 149 109 l 2
 128 -9 104 -163 1 -239 c 0
 -29 -261 -62 -275 -98 -275 c 0
 -141 -275 -180 -246 -175 -218 c 0
 -169 -188 -150 -188 -132 -189 c 0
 -118 -190 -106 -206 -96 -215 c 0
 -85 -226 -74 -234 -58 -234 c 0
 -30 -234 2 -210 18 -179 c 0
 27 -161 34 -135 41 -102 c 0
 48 -69 55 -29 64 16 c 0
 86 131 103 238 122 350 c 0
 123 358 121 371 110 370 c 2
 68 373 l 2
 56 370 60 394 71 400 c 1
 108 403 123 407 132 412 c 1
 139 449 151 512 165 552 c 0
 186 611 204 646 231 678 c 0
 268 724 331 750 377 750 c 0
 471 750 475 641 408 649 c 0
 375 652 363 705 325 705 c 0
 307 705 279 693 265 672 c 0
 249 646 235 598 221 514 c 2
 207 433 l 2
 205 422 221 415 232 415 c 0
 254 414 356 415 372 415 c 0
 379 415 385 416 390 417 c 0xe0
EndSplineSet
EndChar

StartChar: periodcentered
Encoding: 180 183 198
Width: 297
Flags: MW
HStem: 240 107<170 198.5>
VStem: 132 105<279.5 309>
LayerCount: 2
Fore
SplineSet
237 294 m 0
 237 265 213 240 184 240 c 0
 156 240 132 265 132 294 c 0
 132 324 156 347 184 347 c 0
 213 347 237 324 237 294 c 0
EndSplineSet
EndChar

StartChar: quotesinglbase
Encoding: 184 8218 199
Width: 297
Flags: W
HStem: 76 20G<161.5 190.5>
VStem: 131 98<39 43 -24.5 60.5>
LayerCount: 2
Fore
SplineSet
229 21 m 0
 229 -70 152 -138 83 -178 c 0
 78 -181 72 -175 69 -173 c 0
 67 -171 67 -159 72 -156 c 0
 137 -112 161 -81 161 -43 c 0xc0
 161 -28 158 -18 147 0 c 0
 136 17 131 32 131 46 c 0
 131 75 149 96 174 96 c 0
 207 96 229 65 229 21 c 0
EndSplineSet
EndChar

StartChar: quotedblbase
Encoding: 185 8222 200
Width: 509
Flags: W
HStem: 76 20G<133.5 162 340 368>
VStem: 103 97<39 42.5 -17.5 60.5> 310 97<39 42.5 -17.5 60.5>
LayerCount: 2
Fore
SplineSet
407 21 m 0
 407 -56 353 -129 259 -178 c 0
 257 -179 247 -175 247 -172 c 0
 245 -168 244 -160 250 -156 c 0
 316 -112 339 -81 339 -43 c 0xe0
 339 -28 336 -18 325 0 c 0
 314 18 310 32 310 46 c 0
 310 75 328 96 352 96 c 0
 384 96 407 64 407 21 c 0
200 21 m 0
 200 -56 146 -129 53 -178 c 0
 50 -179 41 -176 42 -169 c 0
 40 -166 40 -158 44 -156 c 0
 109 -112 133 -81 133 -43 c 0xe0
 133 -28 130 -18 119 0 c 0
 107 18 103 32 103 46 c 0
 103 75 121 96 146 96 c 0
 178 96 200 64 200 21 c 0
EndSplineSet
EndChar

StartChar: perthousand
Encoding: 189 8240 201
Width: 1017
Flags: W
HStem: -50 21G<153 168 153 153> -10 29<515.5 558 515.5 571.5 827.5 869.5> 257 29<145.5 188 145.5 201.5> 318 29<575 617.5 887 929> 585 29<205 247.5> 596 20G<574 580>
LayerCount: 2
Fore
SplineSet
1014 167 m 0xf8
 995 69 922 -10 845 -10 c 0
 765 -10 723 71 742 170 c 0
 761 268 835 347 912 347 c 0
 990 347 1033 265 1014 167 c 0xf8
702 167 m 0
 683 69 610 -10 533 -10 c 0
 453 -10 411 71 430 170 c 0
 449 268 523 347 600 347 c 0
 679 347 721 265 702 167 c 0
605 595 m 2
 187 -37 l 2
 181 -46 179 -50 168 -50 c 2
 153 -50 l 2
 142 -48 135 -39 143 -27 c 0
 346 281 435 415 480 483 c 0
 525 552 528 555 560 604 c 0
 566 612 568 616 580 616 c 0xf4
 590 617 605 614 605 614 c 2
 615 610 610 598 605 595 c 2
332 434 m 0
 313 336 240 257 163 257 c 0
 83 257 41 339 60 437 c 0
 79 535 153 614 230 614 c 0xf8
 309 614 351 532 332 434 c 0
944 170 m 0
 965 278 949 318 909 318 c 0
 865 318 832 273 811 167 c 0
 790 59 807 19 848 19 c 0
 891 19 924 63 944 170 c 0
633 170 m 0
 654 278 638 318 597 318 c 0
 553 318 520 273 499 167 c 0
 478 59 495 19 536 19 c 0
 580 19 612 63 633 170 c 0
263 437 m 0
 284 545 268 585 227 585 c 0
 183 585 150 540 129 434 c 0
 108 326 125 286 166 286 c 0
 210 286 242 330 263 437 c 0
EndSplineSet
EndChar

StartChar: Acircumflex
Encoding: 322 194 202
Width: 693
Flags: MW
HStem: -2 25<-37 -35 -35 -28 -37 205 376 380 380 427> 279 45<280.5 335 327.5 335 327.5 480> 840 20G<578 582>
VStem: 494 88
LayerCount: 2
Fore
SplineSet
676 9 m 0
 675 0 672 -2 662 -2 c 0
 586 2 448 0 380 -2 c 0
 370 -2 369 23 383 23 c 0
 471 23 495 41 495 105 c 2
 494 268 l 2
 494 271 486 279 480 279 c 2
 283 279 l 2
 278 279 274 277 269 272 c 2
 144 106 l 2
 132 90 125 75 125 64 c 0
 125 30 158 26 182 25 c 0
 192 24 200 25 208 25 c 0
 221 25 218 -2 205 -2 c 0
 149 0 29 0 -35 -2 c 0
 -46 -2 -46 23 -28 23 c 0
 24 33 46 47 99 116 c 2
 515 657 l 2
 516 660 521 663 526 664 c 0
 539 668 555 667 566 664 c 0
 577 662 578 657 578 648 c 2
 584 80 l 2
 584 37 608 29 631 26 c 0
 640 25 650 26 659 26 c 0
 661 26 664 26 666 26 c 0
 673 25 678 18 676 9 c 0
496 339 m 0
 496 393 496 498 496 546 c 0
 496 565 484 561 479 554 c 2
 321 339 l 2
 316 333 320 324 335 324 c 2
 477 325 l 2
 490 325 496 333 496 339 c 0
678 707 m 2
 679 701 679 697 673 697 c 2
 667 697 l 1
 588 792 l 2
 585 796 580 796 575 793 c 2
 426 697 l 1
 414 697 l 2
 410 698 411 701 414 704 c 2
 560 851 l 2
 566 858 574 860 582 860 c 0
 593 861 615 859 626 859 c 0
 636 858 641 856 644 844 c 2
 678 707 l 2
EndSplineSet
EndChar

StartChar: Ecircumflex
Encoding: 323 202 203
Width: 662
Flags: MW
HStem: -2 33<309 379 379 412.5> 311 34<271 450 286 414> 615 31<336 342 342 510> 840 20G<450 454>
LayerCount: 2
Fore
SplineSet
670 623 m 0
 663 585 650 527 644 503 c 0
 645 499 641 497 634 497 c 0
 617 498 624 509 624 521 c 0
 624 588 592 615 510 615 c 2
 342 615 l 2
 330 615 320 614 317 601 c 2
 266 358 l 2
 264 348 273 345 286 345 c 2
 450 345 l 2
 510 345 535 360 560 413 c 0
 562 420 586 420 581 409 c 0
 570 365 552 274 543 228 c 0
 543 222 521 209 521 244 c 0
 521 296 498 311 414 311 c 2
 277 311 l 2
 265 311 255 308 253 297 c 2
 211 97 l 2
 197 29 257 31 309 31 c 2
 379 31 l 2
 446 31 488 44 527 72 c 0
 559 95 571 104 599 141 c 0
 606 151 621 148 620 140 c 0
 606 106 582 16 575 7 c 0
 567 -1 563 -2 535 -2 c 0
 398 0 170 1 12 -2 c 0
 6 -2 1 6 2 13 c 0
 4 22 10 29 17 29 c 0
 28 30 42 28 50 29 c 0
 98 33 112 50 125 113 c 2
 213 532 l 2
 218 555 219 567 219 575 c 0
 219 605 195 619 153 619 c 2
 127 619 l 2
 119 620 117 626 118 633 c 0
 120 642 129 646 137 646 c 2
 648 646 l 2
 665 646 673 643 670 623 c 0
550 707 m 2
 551 701 551 697 545 697 c 2
 539 697 l 1
 460 792 l 2
 457 796 452 796 447 793 c 2
 298 697 l 1
 286 697 l 2
 282 698 283 701 286 704 c 2
 432 851 l 2
 438 858 446 860 454 860 c 0
 465 861 487 859 498 859 c 0
 508 858 513 856 516 844 c 2
 550 707 l 2
EndSplineSet
EndChar

StartChar: Aacute
Encoding: 324 193 204
Width: 693
Flags: MW
HStem: -2 25<-37 -35 -35 -28 -37 205 376 380 380 427> 279 45<280.5 335 327.5 335 327.5 480>
VStem: 494 90
LayerCount: 2
Fore
SplineSet
672 863 m 0
 643 822 580 753 550 718 c 0
 544 712 532 713 535 722 c 0
 546 757 573 842 577 867 c 0
 580 875 586 877 596 877 c 0
 614 878 644 879 661 877 c 0
 669 878 680 874 672 863 c 0
676 9 m 0
 675 0 672 -2 662 -2 c 0
 586 2 448 0 380 -2 c 0
 370 -2 369 23 383 23 c 0
 471 23 495 41 495 105 c 2
 494 268 l 2
 494 271 486 279 480 279 c 2
 283 279 l 2
 278 279 274 277 269 272 c 2
 144 106 l 2
 132 90 125 75 125 64 c 0
 125 30 158 26 182 25 c 0
 192 24 200 25 208 25 c 0
 221 25 218 -2 205 -2 c 0
 149 0 29 0 -35 -2 c 0
 -46 -2 -46 23 -28 23 c 0
 24 33 46 47 99 116 c 2
 515 657 l 2
 516 660 521 663 526 664 c 0
 539 668 555 667 566 664 c 0
 577 662 578 657 578 648 c 2
 584 80 l 2
 584 37 608 29 631 26 c 0
 640 25 650 26 659 26 c 0
 661 26 664 26 666 26 c 0
 673 25 678 18 676 9 c 0
496 339 m 0
 496 393 496 498 496 546 c 0
 496 565 484 561 479 554 c 2
 321 339 l 2
 316 333 320 324 335 324 c 2
 477 325 l 2
 490 325 496 333 496 339 c 0
EndSplineSet
EndChar

StartChar: Edieresis
Encoding: 325 203 205
Width: 662
Flags: W
HStem: -2 33<309 379 379 412.5> 311 34<271 450 286 414> 615 31<336 342 342 510> 702 107<522.5 551> 788 20G<354.5 382.5>
LayerCount: 2
Fore
SplineSet
588 756 m 0xf0
 588 727 565 702 537 702 c 0
 508 702 484 727 484 756 c 0
 484 786 508 809 537 809 c 0
 565 809 588 786 588 756 c 0xf0
420 755 m 0
 420 727 396 702 369 702 c 0xf0
 340 702 317 727 317 755 c 0
 317 785 340 808 369 808 c 0xe8
 396 808 420 785 420 755 c 0
670 623 m 0
 663 585 650 527 644 503 c 0
 645 499 641 497 634 497 c 0
 617 498 624 509 624 521 c 0
 624 588 592 615 510 615 c 2
 342 615 l 2
 330 615 320 614 317 601 c 2
 266 358 l 2
 264 348 273 345 286 345 c 2
 450 345 l 2
 510 345 535 360 560 413 c 0
 562 420 586 420 581 409 c 0
 570 365 552 274 543 228 c 0
 543 222 521 209 521 244 c 0
 521 296 498 311 414 311 c 2
 277 311 l 2
 265 311 255 308 253 297 c 2
 211 97 l 2
 197 29 257 31 309 31 c 2
 379 31 l 2
 446 31 488 44 527 72 c 0
 559 95 571 104 599 141 c 0
 606 151 621 148 620 140 c 0
 606 106 582 16 575 7 c 0
 567 -1 563 -2 535 -2 c 0
 398 0 170 1 12 -2 c 0
 6 -2 1 6 2 13 c 0
 4 22 10 29 17 29 c 0
 28 30 42 28 50 29 c 0
 98 33 112 50 125 113 c 2
 213 532 l 2
 218 555 219 567 219 575 c 0
 219 605 195 619 153 619 c 2
 127 619 l 2
 119 620 117 626 118 633 c 0
 120 642 129 646 137 646 c 2
 648 646 l 2
 665 646 673 643 670 623 c 0
EndSplineSet
EndChar

StartChar: Egrave
Encoding: 326 200 206
Width: 662
Flags: MW
HStem: -2 33<309 379 379 412.5> 311 34<271 450 286 414> 615 31<336 342 342 510> 856 20G<365 439 439 441>
LayerCount: 2
Fore
SplineSet
500 718 m 2
 501 715 499 713 493 713 c 0
 490 713 485 714 482 717 c 2
 359 863 l 2
 352 872 359 876 365 876 c 2
 439 876 l 2
 443 876 448 877 451 873 c 0
 451 872 452 871 452 870 c 2
 500 718 l 2
670 623 m 0
 663 585 650 527 644 503 c 0
 645 499 641 497 634 497 c 0
 617 498 624 509 624 521 c 0
 624 588 592 615 510 615 c 2
 342 615 l 2
 330 615 320 614 317 601 c 2
 266 358 l 2
 264 348 273 345 286 345 c 2
 450 345 l 2
 510 345 535 360 560 413 c 0
 562 420 586 420 581 409 c 0
 570 365 552 274 543 228 c 0
 543 222 521 209 521 244 c 0
 521 296 498 311 414 311 c 2
 277 311 l 2
 265 311 255 308 253 297 c 2
 211 97 l 2
 197 29 257 31 309 31 c 2
 379 31 l 2
 446 31 488 44 527 72 c 0
 559 95 571 104 599 141 c 0
 606 151 621 148 620 140 c 0
 606 106 582 16 575 7 c 0
 567 -1 563 -2 535 -2 c 0
 398 0 170 1 12 -2 c 0
 6 -2 1 6 2 13 c 0
 4 22 10 29 17 29 c 0
 28 30 42 28 50 29 c 0
 98 33 112 50 125 113 c 2
 213 532 l 2
 218 555 219 567 219 575 c 0
 219 605 195 619 153 619 c 2
 127 619 l 2
 119 620 117 626 118 633 c 0
 120 642 129 646 137 646 c 2
 648 646 l 2
 665 646 673 643 670 623 c 0
EndSplineSet
EndChar

StartChar: Iacute
Encoding: 327 205 207
Width: 356
Flags: MW
HStem: -2 27<26.5 39 36.5 39 36.5 301> 619 27
LayerCount: 2
Fore
SplineSet
409 863 m 0
 380 822 318 753 287 718 c 0
 281 712 270 713 273 722 c 0
 283 757 310 842 315 867 c 0
 318 875 323 877 334 877 c 0
 351 878 381 879 399 877 c 0
 407 878 417 874 409 863 c 0
426 630 m 0
 423 622 417 617 408 620 c 0
 344 616 329 605 314 532 c 2
 225 112 l 2
 210 43 228 22 303 23 c 0
 311 23 314 16 312 9 c 0
 311 4 305 -1 301 -2 c 0
 231 0 95 2 30 -2 c 0
 23 -2 21 6 23 13 c 0
 25 19 34 25 39 25 c 0
 108 24 122 50 135 113 c 2
 224 533 l 2
 236 589 238 614 166 619 c 0
 155 618 138 618 144 634 c 0
 146 642 151 646 160 646 c 0
 224 643 352 643 421 646 c 0
 429 646 429 638 426 630 c 0
EndSplineSet
EndChar

StartChar: Icircumflex
Encoding: 328 206 208
Width: 356
Flags: MW
HStem: -2 27<26.5 39 36.5 39 36.5 301> 619 27 841 20G<329 333>
LayerCount: 2
Fore
SplineSet
426 630 m 0
 423 622 417 617 408 620 c 0
 344 616 329 605 314 532 c 2
 225 112 l 2
 210 43 228 22 303 23 c 0
 311 23 314 16 312 9 c 0
 311 4 305 -1 301 -2 c 0
 231 0 95 2 30 -2 c 0
 23 -2 21 6 23 13 c 0
 25 19 34 25 39 25 c 0
 108 24 122 50 135 113 c 2
 224 533 l 2
 236 589 238 614 166 619 c 0
 155 618 138 618 144 634 c 0
 146 642 151 646 160 646 c 0
 224 643 352 643 421 646 c 0
 429 646 429 638 426 630 c 0
429 708 m 2
 430 702 430 698 424 698 c 2
 418 698 l 1
 339 793 l 2
 336 797 331 797 326 794 c 2
 177 698 l 1
 165 698 l 2
 161 699 162 702 165 705 c 2
 311 852 l 2
 317 859 325 861 333 861 c 0
 344 862 366 860 377 860 c 0
 387 859 392 857 395 845 c 2
 429 708 l 2
EndSplineSet
EndChar

StartChar: Idieresis
Encoding: 329 207 209
Width: 356
Flags: W
HStem: -2 27<26.5 39 36.5 39 36.5 301> 619 27 702 107<388.5 417.5> 788 20G<220.5 249>
VStem: 184 102<741 770> 351 103<741.5 771>
LayerCount: 2
Fore
SplineSet
454 756 m 0xec
 454 727 432 702 403 702 c 0
 374 702 351 727 351 756 c 0
 351 786 374 809 403 809 c 0
 432 809 454 786 454 756 c 0xec
286 755 m 0
 286 727 263 702 235 702 c 0xec
 206 702 184 727 184 755 c 0
 184 785 206 808 235 808 c 0xdc
 263 808 286 785 286 755 c 0
426 630 m 0
 423 622 417 617 408 620 c 0
 344 616 329 605 314 532 c 2
 225 112 l 2
 210 43 228 22 303 23 c 0
 311 23 314 16 312 9 c 0
 311 4 305 -1 301 -2 c 0
 231 0 95 2 30 -2 c 0
 23 -2 21 6 23 13 c 0
 25 19 34 25 39 25 c 0
 108 24 122 50 135 113 c 2
 224 533 l 2
 236 589 238 614 166 619 c 0
 155 618 138 618 144 634 c 0
 146 642 151 646 160 646 c 0
 224 643 352 643 421 646 c 0
 429 646 429 638 426 630 c 0
EndSplineSet
EndChar

StartChar: Igrave
Encoding: 330 204 210
Width: 356
Flags: MW
HStem: -2 27<26.5 39 36.5 39 36.5 301> 619 27 856 20G<211 285 285 287.5>
LayerCount: 2
Fore
SplineSet
347 718 m 2
 347 715 345 713 340 713 c 0
 336 713 331 714 329 717 c 2
 205 863 l 2
 198 872 206 876 211 876 c 2
 285 876 l 2
 290 876 295 877 297 873 c 0
 298 872 298 871 299 870 c 2
 347 718 l 2
426 630 m 0
 423 622 417 617 408 620 c 0
 344 616 329 605 314 532 c 2
 225 112 l 2
 210 43 228 22 303 23 c 0
 311 23 314 16 312 9 c 0
 311 4 305 -1 301 -2 c 0
 231 0 95 2 30 -2 c 0
 23 -2 21 6 23 13 c 0
 25 19 34 25 39 25 c 0
 108 24 122 50 135 113 c 2
 224 533 l 2
 236 589 238 614 166 619 c 0
 155 618 138 618 144 634 c 0
 146 642 151 646 160 646 c 0
 224 643 352 643 421 646 c 0
 429 646 429 638 426 630 c 0
EndSplineSet
EndChar

StartChar: Oacute
Encoding: 331 211 211
Width: 819
Flags: MW
HStem: -18 31<387 387> 631 31<443.5 481>
VStem: 88 94<200.5 315.5 185.5 389> 688 94<282.5 443.5 254 460.5>
LayerCount: 2
Fore
SplineSet
609 863 m 0
 579 822 517 753 486 718 c 0
 480 712 469 713 472 722 c 0
 482 757 509 842 514 867 c 0
 517 875 522 877 533 877 c 0
 550 878 580 879 598 877 c 0
 606 878 617 874 609 863 c 0
782 358 m 0
 782 150 606 -18 387 -18 c 0
 211 -18 88 114 88 287 c 0
 88 491 267 662 480 662 c 0
 656 662 782 529 782 358 c 0
688 389 m 0
 688 532 609 632 481 631 c 0
 406 631 342 605 295 555 c 0
 226 482 182 369 182 262 c 0
 182 109 256 14 387 13 c 0
 556 12 688 176 688 389 c 0
EndSplineSet
EndChar

StartChar: Ocircumflex
Encoding: 332 212 212
Width: 819
Flags: MW
HStem: -18 31<387 387> 631 31<443.5 481> 842 20G<539 543>
VStem: 88 94<200.5 315.5 185.5 389> 688 94<282.5 443.5 254 460.5>
LayerCount: 2
Fore
SplineSet
782 358 m 0
 782 150 606 -18 387 -18 c 0
 211 -18 88 114 88 287 c 0
 88 491 267 662 480 662 c 0
 656 662 782 529 782 358 c 0
688 389 m 0
 688 532 609 632 481 631 c 0
 406 631 342 605 295 555 c 0
 226 482 182 369 182 262 c 0
 182 109 256 14 387 13 c 0
 556 12 688 176 688 389 c 0
639 709 m 2
 640 703 640 699 634 699 c 2
 628 699 l 1
 549 794 l 2
 546 798 541 798 536 795 c 2
 387 699 l 1
 375 699 l 2
 371 700 372 703 375 706 c 2
 521 853 l 2
 527 860 535 862 543 862 c 0
 554 863 576 861 587 861 c 0
 597 860 602 858 605 846 c 2
 639 709 l 2
EndSplineSet
EndChar

StartChar: Ograve
Encoding: 333 210 213
Width: 819
Flags: MW
HStem: -18 31<387 387> 631 31<443.5 481> 856 20G<440 515 515 517>
VStem: 88 94<200.5 315.5 185.5 389> 688 94<282.5 443.5 254 460.5>
LayerCount: 2
Fore
SplineSet
576 718 m 2
 577 715 574 713 569 713 c 0
 565 713 560 714 558 717 c 2
 434 863 l 2
 427 872 435 876 440 876 c 2
 515 876 l 2
 519 876 524 877 526 873 c 0
 527 872 527 871 528 870 c 2
 576 718 l 2
782 358 m 0
 782 150 606 -18 387 -18 c 0
 211 -18 88 114 88 287 c 0
 88 491 267 662 480 662 c 0
 656 662 782 529 782 358 c 0
688 389 m 0
 688 532 609 632 481 631 c 0
 406 631 342 605 295 555 c 0
 226 482 182 369 182 262 c 0
 182 109 256 14 387 13 c 0
 556 12 688 176 688 389 c 0
EndSplineSet
EndChar

StartChar: Uacute
Encoding: 334 218 214
Width: 740
Flags: MW
HStem: -18 30<295 392.5> 621 26<65.5 339 73 85>
LayerCount: 2
Fore
SplineSet
606 863 m 0
 577 822 514 753 484 718 c 0
 478 712 466 713 469 722 c 0
 480 757 507 842 511 867 c 0
 514 875 520 877 530 877 c 0
 548 878 578 879 595 877 c 0
 603 878 614 874 606 863 c 0
803 633 m 0
 802 625 796 620 790 621 c 0
 732 614 708 602 691 510 c 2
 640 236 l 2
 629 175 618 147 595 109 c 0
 539 17 447 -18 338 -18 c 0
 220 -18 152 15 107 83 c 0
 66 146 74 202 88 270 c 2
 143 528 l 2
 154 580 157 621 85 621 c 2
 68 621 l 2
 63 621 58 630 59 636 c 0
 61 643 68 647 73 647 c 0
 136 644 268 644 339 647 c 0
 346 647 352 640 351 634 c 0
 351 621 344 619 333 620 c 0
 265 623 251 609 235 532 c 2
 178 266 l 2
 170 228 166 194 166 167 c 0
 166 74 235 12 355 12 c 0
 518 12 579 110 605 246 c 2
 656 517 l 2
 670 593 651 621 568 621 c 0
 562 621 562 628 563 635 c 0
 565 643 569 648 573 647 c 0
 621 646 721 642 795 648 c 0
 803 649 804 639 803 633 c 0
EndSplineSet
EndChar

StartChar: Ucircumflex
Encoding: 335 219 215
Width: 740
Flags: MW
HStem: -18 30<295 392.5> 621 26<65.5 339 73 85>
LayerCount: 2
Fore
SplineSet
600 712 m 2
 601 706 601 702 594 702 c 2
 588 702 l 1
 510 797 l 2
 507 800 502 801 497 798 c 2
 348 702 l 1
 336 702 l 2
 332 703 333 706 336 709 c 2
 481 856 l 2
 488 863 496 864 504 864 c 0
 515 866 537 864 548 863 c 0
 557 863 563 860 566 849 c 2
 600 712 l 2
803 633 m 0
 802 625 796 620 790 621 c 0
 732 614 708 602 691 510 c 2
 640 236 l 2
 629 175 618 147 595 109 c 0
 539 17 447 -18 338 -18 c 0
 220 -18 152 15 107 83 c 0
 66 146 74 202 88 270 c 2
 143 528 l 2
 154 580 157 621 85 621 c 2
 68 621 l 2
 63 621 58 630 59 636 c 0
 61 643 68 647 73 647 c 0
 136 644 268 644 339 647 c 0
 346 647 352 640 351 634 c 0
 351 621 344 619 333 620 c 0
 265 623 251 609 235 532 c 2
 178 266 l 2
 170 228 166 194 166 167 c 0
 166 74 235 12 355 12 c 0
 518 12 579 110 605 246 c 2
 656 517 l 2
 670 593 651 621 568 621 c 0
 562 621 562 628 563 635 c 0
 565 643 569 648 573 647 c 0
 621 646 721 642 795 648 c 0
 803 649 804 639 803 633 c 0
EndSplineSet
EndChar

StartChar: Ugrave
Encoding: 336 217 216
Width: 740
Flags: MW
HStem: -18 30<295 392.5> 621 26<65.5 339 73 85> 856 20G<370 444 444 446>
LayerCount: 2
Fore
SplineSet
505 718 m 2
 506 715 504 713 498 713 c 0
 494 713 490 714 487 717 c 2
 364 863 l 2
 357 872 364 876 370 876 c 2
 444 876 l 2
 448 876 453 877 456 873 c 0
 456 872 457 871 457 870 c 2
 505 718 l 2
803 633 m 0
 802 625 796 620 790 621 c 0
 732 614 708 602 691 510 c 2
 640 236 l 2
 629 175 618 147 595 109 c 0
 539 17 447 -18 338 -18 c 0
 220 -18 152 15 107 83 c 0
 66 146 74 202 88 270 c 2
 143 528 l 2
 154 580 157 621 85 621 c 2
 68 621 l 2
 63 621 58 630 59 636 c 0
 61 643 68 647 73 647 c 0
 136 644 268 644 339 647 c 0
 346 647 352 640 351 634 c 0
 351 621 344 619 333 620 c 0
 265 623 251 609 235 532 c 2
 178 266 l 2
 170 228 166 194 166 167 c 0
 166 74 235 12 355 12 c 0
 518 12 579 110 605 246 c 2
 656 517 l 2
 670 593 651 621 568 621 c 0
 562 621 562 628 563 635 c 0
 565 643 569 648 573 647 c 0
 621 646 721 642 795 648 c 0
 803 649 804 639 803 633 c 0
EndSplineSet
EndChar

StartChar: dotlessi
Encoding: 245 305 217
Width: 255
Flags: MW
HStem: -14 21G<76 102.5> 405 20G<166.5 192.5>
LayerCount: 2
Fore
SplineSet
223 94 m 0
 205 71 184 48 160 26 c 0
 131 -1 110 -14 95 -14 c 0
 57 -14 65 40 70 64 c 2
 121 323 l 2
 122 328 132 359 122 359 c 0
 107 359 82 319 66 307 c 0
 56 299 49 319 54 324 c 0
 115 392 155 425 178 425 c 0
 207 425 201 382 197 364 c 2
 139 75 l 2
 138 70 132 44 143 44 c 0
 155 44 198 96 207 108 c 0
 214 117 230 103 223 94 c 0
EndSplineSet
EndChar

StartChar: circumflex
Encoding: 195 710 218
Width: 339
Flags: MW
HStem: 478 21G<98 110 98 98 351 357 351 351> 621 20G<262 266>
LayerCount: 2
Fore
SplineSet
362 488 m 2
 363 482 363 478 357 478 c 2
 351 478 l 1
 272 573 l 2
 269 577 264 577 259 574 c 2
 110 478 l 1
 98 478 l 2
 94 479 95 482 98 485 c 2
 244 632 l 2
 250 639 258 641 266 641 c 0
 277 642 299 640 310 640 c 0
 320 639 325 637 328 625 c 2
 362 488 l 2
EndSplineSet
EndChar

StartChar: tilde
Encoding: 196 732 219
Width: 339
Flags: W
HStem: 490 66<320.5 337.5> 491 21G<90.5 98> 560 66<153 170.5> 605 20G<391 399.5>
LayerCount: 2
Fore
SplineSet
404 612 m 0x90
 404 543 364 490 311 490 c 0xa0
 244 490 190 560 151 560 c 0
 126 560 115 547 106 499 c 0
 105 493 102 491 94 491 c 0
 87 491 85 495 86 505 c 0
 93 584 126 626 180 626 c 0x60
 242 626 301 556 340 556 c 0
 363 556 377 572 384 615 c 0
 385 623 387 625 395 625 c 0
 404 625 404 619 404 612 c 0x90
EndSplineSet
EndChar

StartChar: macron
Encoding: 197 175 220
Width: 339
Flags: MW
HStem: 524 69<103.5 386 123 377>
LayerCount: 2
Fore
SplineSet
404 571 m 2
 395 537 l 2
 392 529 386 522 377 524 c 2
 111 524 l 2
 96 524 91 529 94 541 c 2
 105 579 l 2
 110 595 106 593 123 593 c 2
 386 593 l 2
 403 593 408 585 404 571 c 2
EndSplineSet
EndChar

StartChar: breve
Encoding: 198 728 221
Width: 339
Flags: MW
HStem: 486 75<221.5 276 221.5 276.5>
LayerCount: 2
Fore
SplineSet
420 639 m 1
 376 543 309 486 244 486 c 0
 176 486 136 542 133 639 c 0
 135 649 151 644 152 639 c 0
 163 588 195 561 248 561 c 0
 304 561 352 586 401 639 c 0
 407 649 416 646 420 639 c 1
EndSplineSet
EndChar

StartChar: dotaccent
Encoding: 199 729 222
Width: 339
Flags: MW
HStem: 481 111<231 261.5>
VStem: 192 109<520.5 551.5>
LayerCount: 2
Fore
SplineSet
301 536 m 0
 301 505 277 481 246 481 c 0
 216 481 192 505 192 536 c 0
 192 567 216 592 246 592 c 0
 277 592 301 567 301 536 c 0
EndSplineSet
EndChar

StartChar: ring
Encoding: 202 730 223
Width: 339
Flags: MW
HStem: 462 37<236.5 269.5 236.5 279.5> 620 37<236.5 269.5>
VStem: 157 37<542.5 576 542.5 586> 313 35<542.5 576>
LayerCount: 2
Fore
SplineSet
348 559 m 0
 348 505 306 462 253 462 c 0
 201 462 157 505 157 559 c 0
 157 613 201 657 253 657 c 0
 306 657 348 613 348 559 c 0
313 559 m 0
 313 593 286 620 253 620 c 0
 220 620 194 593 194 559 c 0
 194 526 220 499 253 499 c 0
 286 499 313 526 313 559 c 0
EndSplineSet
EndChar

StartChar: cedilla
Encoding: 203 184 224
Width: 339
Flags: MW
HStem: -198 21<66 95.5 64 111.5> -24 20G<141 162 162 162>
VStem: 156 51<-128 -106.5>
LayerCount: 2
Fore
SplineSet
207 -96 m 0
 207 -160 154 -198 69 -198 c 0
 63 -198 61 -198 47 -197 c 0
 43 -195 36 -191 39 -185 c 0
 39 -180 43 -177 46 -176 c 0
 58 -177 61 -177 67 -177 c 0
 124 -177 156 -155 156 -117 c 0
 156 -96 144 -83 114 -80 c 0
 107 -79 106 -75 108 -69 c 2
 141 -4 l 1
 162 -4 l 1
 151 -26 l 1
 186 -31 207 -60 207 -96 c 0
EndSplineSet
EndChar

StartChar: hungarumlaut
Encoding: 205 733 225
Width: 339
Flags: MW
HStem: 483 21G<142 162 142 142 278 298 278 278> 640 20G<196 314 314 314 333 451 451 451>
LayerCount: 2
Fore
SplineSet
451 660 m 1
 298 483 l 1
 278 483 l 1
 333 660 l 1
 451 660 l 1
314 660 m 1
 162 483 l 1
 142 483 l 1
 196 660 l 1
 314 660 l 1
EndSplineSet
EndChar

StartChar: ogonek
Encoding: 206 731 226
Width: 339
Flags: MW
HStem: -192 47<137 142.5> -18 20G<48 77 77 77>
VStem: 8 56<-79 -74>
LayerCount: 2
Fore
SplineSet
239 -150 m 0
 189 -183 162 -192 123 -192 c 0
 54 -192 8 -152 8 -91 c 0
 8 -57 20 -29 48 2 c 1
 77 2 l 1
 66 -28 64 -39 64 -53 c 0
 64 -105 108 -145 166 -145 c 0
 184 -145 196 -142 226 -132 c 0
 235 -128 248 -142 239 -150 c 0
EndSplineSet
EndChar

StartChar: caron
Encoding: 207 711 227
Width: 339
Flags: MW
HStem: 478 21G<186 262 186 186> 621 20G<148 161 161 161 402 420 420 420>
LayerCount: 2
Fore
SplineSet
420 641 m 1
 262 478 l 1
 186 478 l 1
 148 641 l 1
 161 641 l 1
 245 539 l 1
 402 641 l 1
 420 641 l 1
EndSplineSet
EndChar

StartChar: currency
Encoding: 168 164 228
Width: 679
Flags: W
HStem: 90 21G<139 139 539 539> 105 58<307.5 368> 504 58<309 369 309 386.5> 558 20G<139 139 539 539>
VStem: 116 57<308.5 365.5> 506 57<300.5 361.5 300.5 380.5>
LayerCount: 2
Fore
SplineSet
578 130 m 1x5c
 539 90 l 1xac
 477 154 l 1
 424 114 398 105 338 105 c 0x6c
 277 105 252 114 203 154 c 1
 139 90 l 1
 99 130 l 1
 163 195 l 1
 124 253 116 280 116 337 c 0
 116 394 125 421 163 474 c 1
 99 537 l 1
 139 578 l 1x9c
 203 514 l 1
 253 554 279 562 339 562 c 0x6c
 399 562 425 554 477 514 c 1
 539 578 l 1
 578 537 l 1
 516 474 l 1
 554 419 563 392 563 331 c 0
 563 270 554 243 516 194 c 1
 578 130 l 1x5c
506 333 m 0
 506 428 432 504 341 504 c 0
 248 504 173 428 173 334 c 0
 173 239 246 163 338 163 c 0x6c
 431 163 506 239 506 333 c 0
EndSplineSet
EndChar

StartChar: ff
Encoding: 337 64256 229
Width: 508
Flags: W
HStem: -275 41<-119.5 -44> 371 44<358 366> 705 45<316 424> 734 20G<609.5 653>
LayerCount: 2
Fore
SplineSet
390 417 m 0xe0
 400 421 405 429 408 446 c 0
 414 482 420 513 434 553 c 0
 454 612 472 648 498 681 c 0
 534 727 586 754 633 754 c 0xd0
 673 754 710 729 709 697 c 0
 708 672 685 666 664 668 c 0
 632 672 626 711 587 710 c 0
 569 710 547 696 534 674 c 0
 517 648 503 599 489 516 c 2
 476 440 l 2
 473 428 475 419 483 418 c 2
 540 418 l 2
 547 418 547 406 544 394 c 0
 541 381 535 370 528 370 c 1
 527 366 487 370 485 370 c 0
 473 369 466 363 461 353 c 2
 418 110 l 2
 397 -9 372 -163 268 -239 c 0
 238 -261 206 -275 169 -275 c 0
 127 -275 87 -246 92 -218 c 0
 98 -187 117 -187 135 -189 c 0
 150 -190 162 -206 172 -215 c 0
 182 -225 193 -234 209 -234 c 0
 238 -234 270 -211 286 -179 c 0
 297 -157 306 -121 313 -84 c 0
 321 -47 327 -9 332 16 c 0
 354 131 368 226 387 338 c 0
 389 350 382 370 366 371 c 0
 350 371 303 371 302 370 c 0
 301 370 242 369 222 369 c 0
 210 369 194 364 191 346 c 2
 149 109 l 2
 128 -9 104 -163 1 -239 c 0
 -29 -261 -62 -275 -98 -275 c 0
 -141 -275 -180 -246 -175 -218 c 0
 -169 -188 -150 -188 -132 -189 c 0
 -118 -190 -106 -206 -96 -215 c 0
 -85 -226 -74 -234 -58 -234 c 0
 -30 -234 2 -210 18 -179 c 0
 27 -161 34 -135 41 -102 c 0
 48 -69 55 -29 64 16 c 0
 86 131 103 238 122 350 c 0
 123 358 121 371 110 370 c 2
 68 373 l 2
 56 370 60 394 71 400 c 1
 108 403 123 407 132 412 c 1
 139 449 151 512 165 552 c 0
 186 611 204 646 231 678 c 0
 268 724 331 750 377 750 c 0
 471 750 475 641 408 649 c 0
 375 652 363 705 325 705 c 0
 307 705 279 693 265 672 c 0
 249 646 235 598 221 514 c 2
 207 433 l 2
 205 422 221 415 232 415 c 0
 254 414 356 415 372 415 c 0
 379 415 385 416 390 417 c 0xe0
EndSplineSet
EndChar

StartChar: ffi
Encoding: 338 64259 230
Width: 730
Flags: W
HStem: -275 40<-119.5 -44> -15 21G<567.5 607> 371 44<359 365 365 367> 706 44<316 423.5> 733 20G<607.5 651>
LayerCount: 2
Fore
SplineSet
383 417 m 0xf0
 394 421 399 430 402 447 c 0
 407 483 413 514 427 554 c 0
 447 613 466 649 491 681 c 0
 528 727 584 753 631 753 c 0xe8
 671 753 713 724 712 693 c 0
 710 659 690 650 663 656 c 0
 647 660 637 674 628 685 c 0
 617 698 605 710 585 709 c 0
 568 709 540 697 526 675 c 0
 509 648 495 600 481 517 c 2
 468 441 l 2
 466 429 473 416 482 415 c 0
 504 414 541 414 563 415 c 0
 591 415 607 416 620 418 c 0
 633 419 644 422 658 426 c 0
 664 427 682 432 682 422 c 2
 621 59 l 2
 621 55 620 51 620 47 c 0
 620 42 622 37 629 37 c 0
 636 37 660 50 698 98 c 0
 706 109 722 94 719 80 c 1
 667 13 625 -15 589 -15 c 0
 546 -15 547 30 552 59 c 0
 570 164 584 238 600 338 c 0
 605 367 590 370 583 370 c 0
 547 371 509 372 478 371 c 0
 470 371 465 369 461 366 c 0
 458 363 456 357 454 353 c 2
 410 110 l 2
 389 -8 365 -163 261 -239 c 0
 231 -261 199 -275 162 -275 c 0
 120 -275 81 -246 86 -219 c 0
 92 -188 110 -188 128 -190 c 0
 142 -191 155 -207 165 -216 c 0
 175 -226 186 -235 202 -235 c 0
 231 -235 263 -211 279 -179 c 0
 290 -157 299 -121 307 -84 c 0
 314 -47 321 -9 325 16 c 0
 348 131 362 226 381 338 c 0
 383 351 375 371 359 371 c 0
 343 372 301 373 299 373 c 0
 298 373 249 372 229 373 c 0
 211 371 194 365 191 346 c 2
 149 109 l 2
 128 -8 104 -163 1 -239 c 0
 -29 -261 -63 -275 -98 -275 c 0
 -141 -275 -180 -246 -174 -218 c 0
 -169 -188 -150 -188 -132 -189 c 0
 -118 -190 -106 -207 -97 -216 c 0
 -86 -226 -74 -235 -58 -235 c 0
 -30 -235 2 -211 18 -179 c 0
 27 -161 35 -135 42 -102 c 0
 49 -69 56 -29 65 16 c 0
 87 131 104 238 123 350 c 0
 124 358 122 372 110 370 c 2
 68 373 l 2
 64 372 61 375 61 383 c 0
 62 390 66 397 71 400 c 0
 108 403 123 407 132 413 c 1
 140 450 151 512 165 552 c 0
 186 611 205 647 231 679 c 0
 268 724 331 750 377 750 c 0
 470 750 474 643 408 650 c 0
 376 653 364 706 325 706 c 0
 307 706 278 694 265 673 c 0
 249 647 235 598 221 515 c 2
 207 434 l 2
 205 423 221 415 232 415 c 0
 254 414 348 415 365 415 c 0
 372 415 378 415 383 417 c 0xf0
EndSplineSet
EndChar

StartChar: ffl
Encoding: 339 64260 231
Width: 737
Flags: W
HStem: -275 41<-119.5 -44> -275 86 -15 21G<581 612.5> 370 45<222 318> 705 45<316 424>
LayerCount: 2
Fore
SplineSet
191 346 m 2xb8
 149 109 l 2
 128 -9 104 -163 1 -239 c 0
 -29 -261 -62 -275 -98 -275 c 0
 -141 -275 -180 -246 -175 -218 c 0
 -169 -188 -150 -188 -132 -189 c 0x78
 -118 -190 -106 -206 -96 -215 c 0
 -85 -226 -74 -234 -58 -234 c 0xb8
 -30 -234 2 -210 18 -179 c 0
 27 -161 34 -135 41 -102 c 0
 48 -69 55 -29 64 16 c 0
 86 131 103 238 122 350 c 0
 123 358 121 371 110 370 c 2
 68 373 l 2
 56 370 60 394 71 400 c 1
 108 403 123 407 132 412 c 1
 139 449 151 512 165 552 c 0
 186 611 204 646 231 678 c 0
 268 724 331 750 377 750 c 0
 471 750 475 641 408 649 c 0
 375 652 363 705 325 705 c 0
 307 705 279 693 265 672 c 0
 249 646 235 598 221 514 c 2
 207 433 l 2
 205 422 221 415 232 415 c 0
 254 414 301 415 318 415 c 0
 335 415 351 415 351 415 c 2
 384 415 391 428 393 437 c 0
 400 473 411 519 422 552 c 0
 442 611 460 647 487 679 c 0
 529 731 618 777 683 737 c 0
 689 734 696 733 702 736 c 0
 711 740 718 745 726 750 c 0
 734 760 744 759 746 749 c 2
 629 70 l 2
 628 63 627 44 637 44 c 0
 650 44 664 51 703 100 c 0
 711 110 734 93 725 81 c 0
 671 12 631 -15 594 -15 c 0
 568 -15 558 1 556 23 c 0
 554 44 558 67 562 88 c 2
 609 343 l 2
 611 351 611 372 598 373 c 0
 536 374 496 372 466 372 c 0
 457 370 449 362 447 350 c 2
 406 109 l 2
 386 -9 360 -163 257 -239 c 0
 227 -261 195 -275 158 -275 c 0
 115 -275 76 -246 81 -218 c 0
 86 -188 106 -188 124 -189 c 0x78
 139 -190 150 -205 161 -215 c 0
 171 -225 182 -234 198 -234 c 0
 227 -234 258 -210 274 -179 c 0
 283 -161 290 -135 297 -102 c 0
 304 -69 312 -29 320 16 c 0
 343 132 359 237 378 350 c 0
 379 356 377 368 369 370 c 0
 353 371 353 371 352 371 c 0
 351 371 242 370 222 370 c 0
 210 369 194 364 191 346 c 2xb8
521 672 m 0
 505 646 491 598 477 514 c 2
 464 439 l 2
 461 430 465 414 472 414 c 0
 506 414 563 413 602 414 c 0
 610 414 624 416 627 434 c 2
 668 651 l 1
 634 711 563 736 521 672 c 0
EndSplineSet
EndChar
